<svg width="482" height="32" viewBox="0 0 482 32" fill="none" xmlns="http://www.w3.org/2000/svg">
<path d="M9.79112e-06 23.5584V0.480802H3.86231V10.1926H14.7921V0.480802H18.6384V23.5584H14.7921V13.8145H3.86231V23.5584H9.79112e-06ZM31.0003 24.0392C29.2481 24.0392 27.7096 23.6599 26.3848 22.9013C25.0599 22.1428 24.0236 21.0904 23.2757 19.7442C22.5385 18.398 22.1699 16.8488 22.1699 15.0966C22.1699 13.2055 22.5332 11.5655 23.2597 10.1766C23.9862 8.77699 24.9958 7.69256 26.2886 6.9233C27.5814 6.15405 29.0772 5.76942 30.7759 5.76942C32.5708 5.76942 34.0933 6.19144 35.3434 7.03549C36.6041 7.86884 37.5389 9.04944 38.1479 10.5773C38.7569 12.1051 38.9866 13.9054 38.8371 15.9781H35.0068V14.5678C34.9961 12.6874 34.6649 11.3145 34.0132 10.4491C33.3615 9.58364 32.3358 9.15093 30.9362 9.15093C29.3549 9.15093 28.1797 9.6424 27.4104 10.6253C26.6412 11.5976 26.2566 13.0239 26.2566 14.9043C26.2566 16.6565 26.6412 18.0134 27.4104 18.9749C28.1797 19.9365 29.3015 20.4173 30.7759 20.4173C31.7268 20.4173 32.5441 20.209 33.2279 19.7923C33.9224 19.3649 34.4566 18.7506 34.8305 17.9493L38.6448 19.1032C37.9823 20.663 36.9567 21.8757 35.5677 22.7411C34.1895 23.6065 32.667 24.0392 31.0003 24.0392ZM25.0386 15.9781V13.0613H36.946V15.9781H25.0386ZM46.9398 24.0392C45.6897 24.0392 44.632 23.8042 43.7666 23.3341C42.9012 22.8533 42.2441 22.2176 41.7954 21.4269C41.3573 20.6363 41.1383 19.7656 41.1383 18.8147C41.1383 17.9813 41.2772 17.2334 41.555 16.571C41.8328 15.8979 42.2601 15.321 42.8371 14.8402C43.414 14.3487 44.1619 13.9481 45.0807 13.6382C45.7752 13.4139 46.5872 13.2109 47.5167 13.0293C48.4569 12.8476 49.4719 12.682 50.5617 12.5324C51.6621 12.3722 52.8107 12.2012 54.0073 12.0196L52.629 12.8049C52.6397 11.6083 52.3726 10.7268 51.8277 10.1606C51.2828 9.59432 50.364 9.3112 49.0712 9.3112C48.2913 9.3112 47.5381 9.49283 46.8116 9.85608C46.085 10.2193 45.5776 10.8444 45.2891 11.7311L41.7633 10.6253C42.1907 9.16162 43.0027 7.98637 44.1993 7.09959C45.4066 6.21281 47.0306 5.76942 49.0712 5.76942C50.6098 5.76942 51.9613 6.0205 53.1259 6.52265C54.3011 7.0248 55.1719 7.84748 55.7381 8.99067C56.048 9.59967 56.2349 10.2247 56.299 10.8657C56.3631 11.4961 56.3952 12.1852 56.3952 12.9331V23.5584H53.0137V19.8083L53.5746 20.4173C52.7946 21.6673 51.8812 22.5862 50.8341 23.1738C49.7978 23.7507 48.4996 24.0392 46.9398 24.0392ZM47.709 20.9622C48.5851 20.9622 49.333 20.8073 49.9527 20.4974C50.5724 20.1876 51.0638 19.8083 51.4271 19.3596C51.801 18.9108 52.0521 18.4888 52.1803 18.0935C52.3833 17.602 52.4955 17.0411 52.5169 16.4108C52.5489 15.7697 52.5649 15.2515 52.5649 14.8562L53.7509 15.2088C52.5863 15.3904 51.5873 15.5507 50.754 15.6896C49.9206 15.8285 49.2048 15.962 48.6065 16.0902C48.0082 16.2078 47.4793 16.3413 47.0199 16.4909C46.5712 16.6512 46.1919 16.8381 45.882 17.0518C45.5722 17.2655 45.3318 17.5112 45.1609 17.789C45.0006 18.0668 44.9205 18.3927 44.9205 18.7666C44.9205 19.194 45.0273 19.5733 45.241 19.9045C45.4547 20.225 45.7645 20.4814 46.1705 20.6737C46.5872 20.866 47.1 20.9622 47.709 20.9622ZM60.888 23.5584V1.91046e-05H64.7503V23.5584H60.888ZM69.5509 23.5584V0.480802H73.4612L84.1667 16.7473V0.480802H88.0771V23.5584H84.1667L73.4612 7.2919V23.5584H69.5509ZM100.426 24.0392C98.6738 24.0392 97.1353 23.6599 95.8104 22.9013C94.4856 22.1428 93.4492 21.0904 92.7014 19.7442C91.9642 18.398 91.5956 16.8488 91.5956 15.0966C91.5956 13.2055 91.9588 11.5655 92.6853 10.1766C93.4119 8.77699 94.4215 7.69256 95.7143 6.9233C97.007 6.15405 98.5028 5.76942 100.202 5.76942C101.997 5.76942 103.519 6.19144 104.769 7.03549C106.03 7.86884 106.965 9.04944 107.574 10.5773C108.183 12.1051 108.412 13.9054 108.263 15.9781H104.432V14.5678C104.422 12.6874 104.091 11.3145 103.439 10.4491C102.787 9.58364 101.761 9.15093 100.362 9.15093C98.7806 9.15093 97.6054 9.6424 96.8361 10.6253C96.0668 11.5976 95.6822 13.0239 95.6822 14.9043C95.6822 16.6565 96.0668 18.0134 96.8361 18.9749C97.6054 19.9365 98.7272 20.4173 100.202 20.4173C101.152 20.4173 101.97 20.209 102.654 19.7923C103.348 19.3649 103.882 18.7506 104.256 17.9493L108.07 19.1032C107.408 20.663 106.382 21.8757 104.993 22.7411C103.615 23.6065 102.093 24.0392 100.426 24.0392ZM94.4642 15.9781V13.0613H106.372V15.9781H94.4642ZM121.983 23.5584C120.84 23.7721 119.718 23.8629 118.618 23.8309C117.528 23.8095 116.55 23.6118 115.685 23.2379C114.819 22.8533 114.162 22.2496 113.714 21.4269C113.318 20.6791 113.11 19.9151 113.089 19.1352C113.067 18.3553 113.057 17.4738 113.057 16.4909V1.44237H116.903V16.2665C116.903 16.961 116.908 17.57 116.919 18.0935C116.94 18.617 117.052 19.0444 117.255 19.3756C117.64 20.0166 118.254 20.3746 119.098 20.4494C119.942 20.5241 120.904 20.4814 121.983 20.3211V23.5584ZM109.915 9.27914V6.25021H121.983V9.27914H109.915ZM126.186 8.68618L126.41 7.01946C126.902 7.0622 127.291 6.98207 127.58 6.77907C127.868 6.56539 128.061 6.27158 128.157 5.89763C128.264 5.51301 128.29 5.0803 128.237 4.59952H126.186V0.480802H130.144V4.75978C130.144 6.15939 129.813 7.21712 129.151 7.93295C128.488 8.64878 127.5 8.89986 126.186 8.68618ZM138.93 24.0392C136.793 24.0392 135.057 23.5584 133.721 22.5969C132.386 21.6353 131.574 20.2837 131.285 18.5422L135.228 17.9332C135.431 18.788 135.879 19.4611 136.574 19.9525C137.268 20.444 138.144 20.6897 139.202 20.6897C140.132 20.6897 140.848 20.5081 141.35 20.1449C141.862 19.7709 142.119 19.2634 142.119 18.6224C142.119 18.2271 142.023 17.9119 141.83 17.6768C141.649 17.4311 141.243 17.196 140.612 16.9717C139.982 16.7473 139.015 16.4642 137.712 16.1223C136.259 15.7377 135.105 15.3263 134.25 14.8883C133.395 14.4396 132.781 13.9107 132.407 13.3017C132.033 12.6927 131.846 11.9555 131.846 11.0901C131.846 10.011 132.129 9.0708 132.696 8.2695C133.262 7.46819 134.052 6.85386 135.067 6.42649C136.082 5.98845 137.279 5.76942 138.657 5.76942C140.003 5.76942 141.195 5.97776 142.231 6.39444C143.278 6.81112 144.122 7.40409 144.763 8.17334C145.404 8.94259 145.8 9.8454 145.949 10.8818L142.007 11.5869C141.911 10.8497 141.574 10.2674 140.997 9.84006C140.431 9.41269 139.672 9.1723 138.721 9.11888C137.813 9.06546 137.081 9.20436 136.526 9.53556C135.97 9.85608 135.692 10.3102 135.692 10.8978C135.692 11.229 135.805 11.5121 136.029 11.7472C136.253 11.9822 136.702 12.2173 137.375 12.4523C138.059 12.6874 139.074 12.9758 140.42 13.3177C141.798 13.6703 142.899 14.0763 143.722 14.5357C144.555 14.9844 145.153 15.524 145.516 16.1544C145.89 16.7847 146.077 17.5486 146.077 18.4461C146.077 20.1876 145.442 21.5552 144.17 22.5488C142.91 23.5424 141.163 24.0392 138.93 24.0392ZM164.546 24.0392C162.858 24.0392 161.336 23.7454 159.979 23.1578C158.633 22.5701 157.521 21.7314 156.645 20.6417C155.78 19.5412 155.23 18.2377 154.995 16.7313L159.001 16.1223C159.343 17.4899 160.043 18.5476 161.101 19.2955C162.169 20.0434 163.398 20.4173 164.787 20.4173C165.609 20.4173 166.384 20.2891 167.11 20.0327C167.837 19.7763 168.425 19.4023 168.873 18.9108C169.333 18.4194 169.562 17.8157 169.562 17.0999C169.562 16.7794 169.509 16.4856 169.402 16.2185C169.295 15.9407 169.135 15.6949 168.921 15.4813C168.718 15.2676 168.451 15.0753 168.12 14.9043C167.8 14.7227 167.426 14.5678 166.998 14.4396L161.036 12.6767C160.524 12.5271 159.968 12.3294 159.37 12.0837C158.782 11.8273 158.221 11.4801 157.687 11.042C157.164 10.5933 156.731 10.027 156.389 9.34325C156.058 8.64878 155.892 7.79406 155.892 6.77907C155.892 5.29398 156.266 4.04928 157.014 3.04498C157.773 2.02999 158.787 1.27142 160.059 0.769273C161.341 0.26712 162.762 0.0213864 164.322 0.0320709C165.903 0.0427542 167.313 0.315198 168.553 0.849403C169.792 1.37292 170.828 2.13684 171.662 3.14114C172.495 4.14544 173.083 5.35809 173.425 6.77907L169.274 7.50024C169.103 6.68825 168.772 5.99913 168.28 5.43287C167.8 4.85593 167.207 4.41789 166.501 4.11873C165.807 3.81958 165.064 3.65932 164.274 3.63795C163.505 3.62726 162.789 3.74479 162.126 3.99052C161.475 4.22557 160.946 4.56746 160.54 5.01619C160.144 5.46493 159.947 5.98845 159.947 6.58676C159.947 7.15301 160.118 7.61777 160.46 7.98103C160.801 8.3336 161.223 8.61673 161.726 8.83041C162.238 9.03341 162.757 9.20436 163.28 9.34325L167.415 10.4971C167.981 10.6467 168.617 10.8497 169.322 11.1061C170.027 11.3625 170.706 11.7205 171.357 12.1799C172.009 12.6393 172.543 13.2429 172.96 13.9908C173.387 14.7387 173.601 15.6896 173.601 16.8435C173.601 18.0401 173.35 19.0925 172.848 20.0006C172.356 20.8981 171.689 21.646 170.844 22.2443C170 22.8426 169.034 23.2913 167.944 23.5905C166.865 23.8896 165.732 24.0392 164.546 24.0392ZM187.214 23.5584C186.071 23.7721 184.949 23.8629 183.849 23.8309C182.759 23.8095 181.782 23.6118 180.916 23.2379C180.051 22.8533 179.394 22.2496 178.945 21.4269C178.55 20.6791 178.341 19.9151 178.32 19.1352C178.299 18.3553 178.288 17.4738 178.288 16.4909V1.44237H182.134V16.2665C182.134 16.961 182.139 17.57 182.15 18.0935C182.172 18.617 182.284 19.0444 182.487 19.3756C182.871 20.0166 183.486 20.3746 184.33 20.4494C185.174 20.5241 186.135 20.4814 187.214 20.3211V23.5584ZM175.147 9.27914V6.25021H187.214V9.27914H175.147ZM197.704 24.0392C195.973 24.0392 194.462 23.6492 193.169 22.8693C191.876 22.0894 190.872 21.0156 190.156 19.648C189.451 18.2698 189.098 16.6886 189.098 14.9043C189.098 13.088 189.461 11.4961 190.188 10.1285C190.915 8.76097 191.924 7.69256 193.217 6.9233C194.51 6.15405 196.005 5.76942 197.704 5.76942C199.446 5.76942 200.963 6.15939 202.256 6.93933C203.548 7.71927 204.553 8.79836 205.269 10.1766C205.984 11.5442 206.342 13.1201 206.342 14.9043C206.342 16.6992 205.979 18.2858 205.253 19.6641C204.537 21.0316 203.532 22.1054 202.24 22.8853C200.947 23.6546 199.435 24.0392 197.704 24.0392ZM197.704 20.4173C199.243 20.4173 200.386 19.9045 201.134 18.8788C201.882 17.8531 202.256 16.5283 202.256 14.9043C202.256 13.2269 201.876 11.8914 201.118 10.8978C200.359 9.89348 199.221 9.39133 197.704 9.39133C196.668 9.39133 195.813 9.62638 195.14 10.0965C194.478 10.5559 193.986 11.2023 193.666 12.0356C193.345 12.8583 193.185 13.8145 193.185 14.9043C193.185 16.5817 193.564 17.9226 194.323 18.9269C195.092 19.9205 196.219 20.4173 197.704 20.4173ZM209.873 23.5584V6.25021H213.287V10.4651L212.87 9.92019C213.084 9.34325 213.367 8.81973 213.72 8.34963C214.083 7.86884 214.516 7.47353 215.018 7.1637C215.445 6.87523 215.915 6.65086 216.428 6.4906C216.952 6.31965 217.486 6.21815 218.031 6.1861C218.576 6.14337 219.104 6.16473 219.617 6.25021V9.85608C219.104 9.70651 218.511 9.65843 217.838 9.71185C217.176 9.76527 216.578 9.95224 216.043 10.2728C215.509 10.5612 215.071 10.9298 214.729 11.3786C214.398 11.8273 214.152 12.3401 213.992 12.9171C213.832 13.4833 213.752 14.0977 213.752 14.7601V23.5584H209.873ZM224.419 31.251L227.752 22.1L227.817 24.7924L220.268 6.25021H224.291L229.644 19.9686H228.618L233.826 6.25021H237.689L228.041 31.251H224.419ZM241.361 21.475V17.5166H245.319V21.475H241.361ZM241.393 12.2921V8.3336H245.351V12.2921H241.393Z" fill="url(#paint0_linear_52_211)"/>
<path d="M267.002 24.0392C265.506 24.0392 264.101 23.7774 262.787 23.2539C261.483 22.7197 260.335 21.9398 259.341 20.9141C258.358 19.8884 257.589 18.6331 257.033 17.148C256.478 15.6522 256.2 13.9427 256.2 12.0196C256.2 9.49817 256.67 7.34533 257.61 5.56108C258.551 3.76616 259.838 2.39325 261.473 1.44237C263.107 0.480802 264.95 1.91046e-05 267.002 1.91046e-05C269.844 1.91046e-05 272.093 0.662432 273.749 1.98726C275.415 3.3014 276.543 5.14975 277.13 7.5323L273.188 8.15732C272.75 6.78975 272.034 5.69998 271.04 4.88799C270.047 4.06531 268.781 3.65397 267.242 3.65397C265.693 3.63261 264.405 3.96915 263.38 4.66362C262.354 5.35809 261.58 6.33568 261.056 7.5964C260.543 8.85712 260.287 10.3315 260.287 12.0196C260.287 13.7077 260.543 15.1768 261.056 16.4268C261.569 17.6661 262.338 18.6331 263.364 19.3275C264.4 20.022 265.693 20.3799 267.242 20.4013C268.407 20.412 269.427 20.2036 270.303 19.7763C271.179 19.3382 271.895 18.6811 272.451 17.805C273.006 16.9183 273.38 15.8125 273.572 14.4876H269.502V11.4587H277.675C277.696 11.6296 277.713 11.8807 277.723 12.2119C277.734 12.5431 277.739 12.7408 277.739 12.8049C277.739 14.9844 277.307 16.9236 276.441 18.6224C275.586 20.3105 274.358 21.6353 272.755 22.5969C271.152 23.5584 269.235 24.0392 267.002 24.0392ZM288.827 24.0392C287.075 24.0392 285.536 23.6599 284.211 22.9013C282.886 22.1428 281.85 21.0904 281.102 19.7442C280.365 18.398 279.996 16.8488 279.996 15.0966C279.996 13.2055 280.36 11.5655 281.086 10.1766C281.813 8.77699 282.822 7.69256 284.115 6.9233C285.408 6.15405 286.904 5.76942 288.602 5.76942C290.397 5.76942 291.92 6.19144 293.17 7.03549C294.431 7.86884 295.365 9.04944 295.974 10.5773C296.583 12.1051 296.813 13.9054 296.664 15.9781H292.833V14.5678C292.823 12.6874 292.491 11.3145 291.84 10.4491C291.188 9.58364 290.162 9.15093 288.763 9.15093C287.181 9.15093 286.006 9.6424 285.237 10.6253C284.468 11.5976 284.083 13.0239 284.083 14.9043C284.083 16.6565 284.468 18.0134 285.237 18.9749C286.006 19.9365 287.128 20.4173 288.602 20.4173C289.553 20.4173 290.371 20.209 291.054 19.7923C291.749 19.3649 292.283 18.7506 292.657 17.9493L296.471 19.1032C295.809 20.663 294.783 21.8757 293.394 22.7411C292.016 23.6065 290.494 24.0392 288.827 24.0392ZM282.865 15.9781V13.0613H294.772V15.9781H282.865ZM310.384 23.5584C309.241 23.7721 308.119 23.8629 307.018 23.8309C305.929 23.8095 304.951 23.6118 304.086 23.2379C303.22 22.8533 302.563 22.2496 302.114 21.4269C301.719 20.6791 301.511 19.9151 301.489 19.1352C301.468 18.3553 301.457 17.4738 301.457 16.4909V1.44237H305.304V16.2665C305.304 16.961 305.309 17.57 305.32 18.0935C305.341 18.617 305.453 19.0444 305.656 19.3756C306.041 20.0166 306.655 20.3746 307.499 20.4494C308.343 20.5241 309.305 20.4814 310.384 20.3211V23.5584ZM298.316 9.27914V6.25021H310.384V9.27914H298.316ZM330.667 23.5584C329.524 23.7721 328.402 23.8629 327.302 23.8309C326.212 23.8095 325.234 23.6118 324.369 23.2379C323.503 22.8533 322.846 22.2496 322.398 21.4269C322.002 20.6791 321.794 19.9151 321.772 19.1352C321.751 18.3553 321.74 17.4738 321.74 16.4909V1.44237H325.587V16.2665C325.587 16.961 325.592 17.57 325.603 18.0935C325.624 18.617 325.736 19.0444 325.939 19.3756C326.324 20.0166 326.938 20.3746 327.782 20.4494C328.626 20.5241 329.588 20.4814 330.667 20.3211V23.5584ZM318.599 9.27914V6.25021H330.667V9.27914H318.599ZM341.157 24.0392C339.426 24.0392 337.914 23.6492 336.621 22.8693C335.329 22.0894 334.324 21.0156 333.609 19.648C332.903 18.2698 332.551 16.6886 332.551 14.9043C332.551 13.088 332.914 11.4961 333.641 10.1285C334.367 8.76097 335.377 7.69256 336.67 6.9233C337.962 6.15405 339.458 5.76942 341.157 5.76942C342.898 5.76942 344.415 6.15939 345.708 6.93933C347.001 7.71927 348.005 8.79836 348.721 10.1766C349.437 11.5442 349.795 13.1201 349.795 14.9043C349.795 16.6992 349.432 18.2858 348.705 19.6641C347.989 21.0316 346.985 22.1054 345.692 22.8853C344.399 23.6546 342.888 24.0392 341.157 24.0392ZM341.157 20.4173C342.695 20.4173 343.839 19.9045 344.586 18.8788C345.334 17.8531 345.708 16.5283 345.708 14.9043C345.708 13.2269 345.329 11.8914 344.57 10.8978C343.812 9.89348 342.674 9.39133 341.157 9.39133C340.12 9.39133 339.266 9.62638 338.593 10.0965C337.93 10.5559 337.439 11.2023 337.118 12.0356C336.798 12.8583 336.637 13.8145 336.637 14.9043C336.637 16.5817 337.017 17.9226 337.775 18.9269C338.545 19.9205 339.672 20.4173 341.157 20.4173ZM359.711 23.5584L359.743 0.480802H363.653V14.5838L369.983 6.25021H374.807L368.092 14.9043L375.384 23.5584H370.272L363.653 15.2248V23.5584H359.711ZM388.961 23.5584V15.2248C388.961 14.6799 388.924 14.0763 388.849 13.4139C388.774 12.7515 388.598 12.1158 388.32 11.5068C388.053 10.8871 387.647 10.3796 387.102 9.98429C386.568 9.58898 385.841 9.39133 384.922 9.39133C384.431 9.39133 383.945 9.47146 383.464 9.63172C382.983 9.79198 382.545 10.0698 382.15 10.4651C381.765 10.8497 381.455 11.3839 381.22 12.0677C380.985 12.7408 380.868 13.6062 380.868 14.6639L378.576 13.6863C378.576 12.2119 378.859 10.8764 379.425 9.6798C380.002 8.48318 380.846 7.5323 381.958 6.82715C383.069 6.11131 384.436 5.7534 386.06 5.7534C387.342 5.7534 388.4 5.96708 389.233 6.39444C390.067 6.8218 390.729 7.36669 391.221 8.02911C391.712 8.69152 392.075 9.39667 392.31 10.1446C392.546 10.8924 392.695 11.6029 392.759 12.276C392.834 12.9384 392.871 13.478 392.871 13.8947V23.5584H388.961ZM376.957 23.5584V6.25021H380.403V11.619H380.868V23.5584H376.957ZM404.416 24.0392C402.685 24.0392 401.174 23.6492 399.881 22.8693C398.588 22.0894 397.584 21.0156 396.868 19.648C396.163 18.2698 395.81 16.6886 395.81 14.9043C395.81 13.088 396.173 11.4961 396.9 10.1285C397.626 8.76097 398.636 7.69256 399.929 6.9233C401.222 6.15405 402.717 5.76942 404.416 5.76942C406.158 5.76942 407.675 6.15939 408.968 6.93933C410.26 7.71927 411.265 8.79836 411.981 10.1766C412.696 11.5442 413.054 13.1201 413.054 14.9043C413.054 16.6992 412.691 18.2858 411.964 19.6641C411.249 21.0316 410.244 22.1054 408.952 22.8853C407.659 23.6546 406.147 24.0392 404.416 24.0392ZM404.416 20.4173C405.955 20.4173 407.098 19.9045 407.846 18.8788C408.594 17.8531 408.968 16.5283 408.968 14.9043C408.968 13.2269 408.588 11.8914 407.83 10.8978C407.071 9.89348 405.933 9.39133 404.416 9.39133C403.38 9.39133 402.525 9.62638 401.852 10.0965C401.19 10.5559 400.698 11.2023 400.378 12.0356C400.057 12.8583 399.897 13.8145 399.897 14.9043C399.897 16.5817 400.276 17.9226 401.035 18.9269C401.804 19.9205 402.931 20.4173 404.416 20.4173ZM419.645 23.5584L414.357 6.21815L418.139 6.25021L421.52 17.3563L424.95 6.25021H428.203L431.617 17.3563L435.014 6.25021H438.796L433.508 23.5584H430.495L426.569 11.651L422.658 23.5584H419.645ZM454.596 24.0552C453.314 24.0552 452.256 23.8415 451.423 23.4142C450.589 22.9868 449.927 22.4419 449.436 21.7795C448.944 21.1171 448.581 20.412 448.346 19.6641C448.111 18.9162 447.956 18.211 447.881 17.5486C447.817 16.8755 447.785 16.3306 447.785 15.914V6.25021H451.695V14.5838C451.695 15.118 451.733 15.7216 451.807 16.3947C451.882 17.0572 452.053 17.6982 452.32 18.3179C452.598 18.9269 453.004 19.429 453.538 19.8243C454.083 20.2196 454.815 20.4173 455.734 20.4173C456.225 20.4173 456.711 20.3372 457.192 20.1769C457.673 20.0166 458.106 19.7442 458.49 19.3596C458.886 18.9643 459.201 18.4247 459.436 17.7409C459.671 17.0572 459.788 16.1917 459.788 15.1447L462.08 16.1223C462.08 17.5967 461.792 18.9322 461.215 20.1288C460.649 21.3254 459.81 22.2817 458.699 22.9975C457.588 23.7027 456.22 24.0552 454.596 24.0552ZM460.253 23.5584V18.1897H459.788V6.25021H463.667V23.5584H460.253ZM474.852 24.0392C472.715 24.0392 470.979 23.5584 469.644 22.5969C468.308 21.6353 467.496 20.2837 467.208 18.5422L471.15 17.9332C471.353 18.788 471.802 19.4611 472.496 19.9525C473.191 20.444 474.067 20.6897 475.125 20.6897C476.054 20.6897 476.77 20.5081 477.272 20.1449C477.785 19.7709 478.041 19.2634 478.041 18.6224C478.041 18.2271 477.945 17.9119 477.753 17.6768C477.571 17.4311 477.165 17.196 476.535 16.9717C475.905 16.7473 474.938 16.4642 473.634 16.1223C472.181 15.7377 471.027 15.3263 470.173 14.8883C469.318 14.4396 468.704 13.9107 468.33 13.3017C467.956 12.6927 467.769 11.9555 467.769 11.0901C467.769 10.011 468.052 9.0708 468.618 8.2695C469.184 7.46819 469.975 6.85386 470.99 6.42649C472.005 5.98845 473.202 5.76942 474.58 5.76942C475.926 5.76942 477.117 5.97776 478.154 6.39444C479.201 6.81112 480.045 7.40409 480.686 8.17334C481.327 8.94259 481.722 9.8454 481.872 10.8818L477.929 11.5869C477.833 10.8497 477.497 10.2674 476.92 9.84006C476.353 9.41269 475.595 9.1723 474.644 9.11888C473.736 9.06546 473.004 9.20436 472.448 9.53556C471.893 9.85608 471.615 10.3102 471.615 10.8978C471.615 11.229 471.727 11.5121 471.952 11.7472C472.176 11.9822 472.625 12.2173 473.298 12.4523C473.982 12.6874 474.996 12.9758 476.343 13.3177C477.721 13.6703 478.821 14.0763 479.644 14.5357C480.477 14.9844 481.076 15.524 481.439 16.1544C481.813 16.7847 482 17.5486 482 18.4461C482 20.1876 481.364 21.5552 480.093 22.5488C478.832 23.5424 477.085 24.0392 474.852 24.0392Z" fill="#3D3D3D"/>
<defs>
<linearGradient id="paint0_linear_52_211" x1="-2.3845" y1="11.5388" x2="54.624" y2="116.541" gradientUnits="userSpaceOnUse">
<stop stop-color="#0179B4"/>
<stop offset="0.921204" stop-color="#88D8FF"/>
</linearGradient>
</defs>
</svg>
