<svg width="453" height="39" viewBox="0 0 453 39" fill="none" xmlns="http://www.w3.org/2000/svg">
<path d="M-4.88162e-05 29.3999V0.599901H4.81995V12.7199H18.46V0.599901H23.26V29.3999H18.46V17.2399H4.81995V29.3999H-4.88162e-05ZM38.4071 29.9999C36.2471 29.9999 34.3605 29.5132 32.7471 28.5399C31.1338 27.5666 29.8805 26.2266 28.9871 24.5199C28.1071 22.7999 27.6671 20.8266 27.6671 18.5999C27.6671 16.3332 28.1205 14.3466 29.0271 12.6399C29.9338 10.9332 31.1938 9.5999 32.8071 8.6399C34.4205 7.6799 36.2871 7.1999 38.4071 7.1999C40.5805 7.1999 42.4738 7.68657 44.0871 8.6599C45.7005 9.63323 46.9538 10.9799 47.8471 12.6999C48.7405 14.4066 49.1871 16.3732 49.1871 18.5999C49.1871 20.8399 48.7338 22.8199 47.8271 24.5399C46.9338 26.2466 45.6805 27.5866 44.0671 28.5599C42.4538 29.5199 40.5671 29.9999 38.4071 29.9999ZM38.4071 25.4799C40.3271 25.4799 41.7538 24.8399 42.6871 23.5599C43.6205 22.2799 44.0871 20.6266 44.0871 18.5999C44.0871 16.5066 43.6138 14.8399 42.6671 13.5999C41.7205 12.3466 40.3005 11.7199 38.4071 11.7199C37.1138 11.7199 36.0471 12.0132 35.2071 12.5999C34.3805 13.1732 33.7671 13.9799 33.3671 15.0199C32.9671 16.0466 32.7671 17.2399 32.7671 18.5999C32.7671 20.6932 33.2405 22.3666 34.1871 23.6199C35.1471 24.8599 36.5538 25.4799 38.4071 25.4799ZM57.4125 29.3999L50.8125 7.7599L55.5325 7.7999L59.7525 21.6599L64.0325 7.7999H68.0925L72.3525 21.6599L76.5925 7.7999H81.3125L74.7125 29.3999H70.9525L66.0525 14.5399L61.1725 29.3999H57.4125ZM346.514 29.3999L339.914 7.7599L344.634 7.7999L348.854 21.6599L353.134 7.7999H357.194L361.454 21.6599L365.694 7.7999H370.414L363.814 29.3999H360.054L355.154 14.5399L350.274 29.3999H346.514ZM382.782 29.9999C380.622 29.9999 378.735 29.5132 377.122 28.5399C375.509 27.5666 374.255 26.2266 373.362 24.5199C372.482 22.7999 372.042 20.8266 372.042 18.5999C372.042 16.3332 372.495 14.3466 373.402 12.6399C374.309 10.9332 375.569 9.5999 377.182 8.6399C378.795 7.6799 380.662 7.1999 382.782 7.1999C384.955 7.1999 386.849 7.68657 388.462 8.6599C390.075 9.63323 391.329 10.9799 392.222 12.6999C393.115 14.4066 393.562 16.3732 393.562 18.5999C393.562 20.8399 393.109 22.8199 392.202 24.5399C391.309 26.2466 390.055 27.5866 388.442 28.5599C386.829 29.5199 384.942 29.9999 382.782 29.9999ZM382.782 25.4799C384.702 25.4799 386.129 24.8399 387.062 23.5599C387.995 22.2799 388.462 20.6266 388.462 18.5999C388.462 16.5066 387.989 14.8399 387.042 13.5999C386.095 12.3466 384.675 11.7199 382.782 11.7199C381.489 11.7199 380.422 12.0132 379.582 12.5999C378.755 13.1732 378.142 13.9799 377.742 15.0199C377.342 16.0466 377.142 17.2399 377.142 18.5999C377.142 20.6932 377.615 22.3666 378.562 23.6199C379.522 24.8599 380.929 25.4799 382.782 25.4799ZM397.969 29.3999V7.7999H402.229V13.0599L401.709 12.3799C401.975 11.6599 402.329 11.0066 402.769 10.4199C403.222 9.8199 403.762 9.32657 404.389 8.9399C404.922 8.5799 405.509 8.2999 406.149 8.0999C406.802 7.88657 407.469 7.7599 408.149 7.7199C408.829 7.66657 409.489 7.69323 410.129 7.7999V12.2999C409.489 12.1132 408.749 12.0532 407.909 12.1199C407.082 12.1866 406.335 12.4199 405.669 12.8199C405.002 13.1799 404.455 13.6399 404.029 14.1999C403.615 14.7599 403.309 15.3999 403.109 16.1199C402.909 16.8266 402.809 17.5932 402.809 18.4199V29.3999H397.969ZM413.905 29.3999L413.945 0.599901H418.825V18.1999L426.725 7.7999H432.745L424.365 18.5999L433.465 29.3999H427.085L418.825 18.9999V29.3999H413.905ZM443.418 29.9999C440.751 29.9999 438.585 29.3999 436.918 28.1999C435.251 26.9999 434.238 25.3132 433.878 23.1399L438.798 22.3799C439.051 23.4466 439.611 24.2866 440.478 24.8999C441.345 25.5132 442.438 25.8199 443.758 25.8199C444.918 25.8199 445.811 25.5932 446.438 25.1399C447.078 24.6732 447.398 24.0399 447.398 23.2399C447.398 22.7466 447.278 22.3532 447.038 22.0599C446.811 21.7532 446.305 21.4599 445.518 21.1799C444.731 20.8999 443.525 20.5466 441.898 20.1199C440.085 19.6399 438.645 19.1266 437.578 18.5799C436.511 18.0199 435.745 17.3599 435.278 16.5999C434.811 15.8399 434.578 14.9199 434.578 13.8399C434.578 12.4932 434.931 11.3199 435.638 10.3199C436.345 9.3199 437.331 8.55324 438.598 8.0199C439.865 7.47324 441.358 7.1999 443.078 7.1999C444.758 7.1999 446.245 7.4599 447.538 7.9799C448.845 8.4999 449.898 9.2399 450.698 10.1999C451.498 11.1599 451.991 12.2866 452.178 13.5799L447.258 14.4599C447.138 13.5399 446.718 12.8132 445.998 12.2799C445.291 11.7466 444.345 11.4466 443.158 11.3799C442.025 11.3132 441.111 11.4866 440.418 11.8999C439.725 12.2999 439.378 12.8666 439.378 13.5999C439.378 14.0132 439.518 14.3666 439.798 14.6599C440.078 14.9532 440.638 15.2466 441.478 15.5399C442.331 15.8332 443.598 16.1932 445.278 16.6199C446.998 17.0599 448.371 17.5666 449.398 18.1399C450.438 18.6999 451.185 19.3732 451.638 20.1599C452.105 20.9466 452.338 21.8999 452.338 23.0199C452.338 25.1932 451.545 26.8999 449.958 28.1399C448.385 29.3799 446.205 29.9999 443.418 29.9999Z" fill="#3D3D3D"/>
<path d="M102.47 29.9999C100.31 29.9999 98.423 29.5132 96.8096 28.5399C95.1963 27.5666 93.943 26.2266 93.0496 24.5199C92.1696 22.7999 91.7296 20.8266 91.7296 18.5999C91.7296 16.3332 92.183 14.3466 93.0896 12.6399C93.9963 10.9332 95.2563 9.5999 96.8696 8.6399C98.483 7.6799 100.35 7.1999 102.47 7.1999C104.643 7.1999 106.536 7.68657 108.15 8.6599C109.763 9.63323 111.016 10.9799 111.91 12.6999C112.803 14.4066 113.25 16.3732 113.25 18.5999C113.25 20.8399 112.796 22.8199 111.89 24.5399C110.996 26.2466 109.743 27.5866 108.13 28.5599C106.516 29.5199 104.63 29.9999 102.47 29.9999ZM102.47 25.4799C104.39 25.4799 105.816 24.8399 106.75 23.5599C107.683 22.2799 108.15 20.6266 108.15 18.5999C108.15 16.5066 107.676 14.8399 106.73 13.5999C105.783 12.3466 104.363 11.7199 102.47 11.7199C101.176 11.7199 100.11 12.0132 99.2696 12.5999C98.443 13.1732 97.8296 13.9799 97.4296 15.0199C97.0296 16.0466 96.8296 17.2399 96.8296 18.5999C96.8296 20.6932 97.303 22.3666 98.2496 23.6199C99.2096 24.8599 100.616 25.4799 102.47 25.4799ZM125.756 30.0199C124.156 30.0199 122.836 29.7532 121.796 29.2199C120.756 28.6866 119.93 28.0066 119.316 27.1799C118.703 26.3532 118.25 25.4732 117.956 24.5399C117.663 23.6066 117.47 22.7266 117.376 21.8999C117.296 21.0599 117.256 20.3799 117.256 19.8599V7.7999H122.136V18.1999C122.136 18.8666 122.183 19.6199 122.276 20.4599C122.37 21.2866 122.583 22.0866 122.916 22.8599C123.263 23.6199 123.77 24.2466 124.436 24.7399C125.116 25.2332 126.03 25.4799 127.176 25.4799C127.79 25.4799 128.396 25.3799 128.996 25.1799C129.596 24.9799 130.136 24.6399 130.616 24.1599C131.11 23.6666 131.503 22.9932 131.796 22.1399C132.09 21.2866 132.236 20.2066 132.236 18.8999L135.096 20.1199C135.096 21.9599 134.736 23.6266 134.016 25.1199C133.31 26.6132 132.263 27.8066 130.876 28.6999C129.49 29.5799 127.783 30.0199 125.756 30.0199ZM132.816 29.3999V22.6999H132.236V7.7999H137.076V29.3999H132.816ZM142.695 29.3999V7.7999H146.955V13.0599L146.435 12.3799C146.702 11.6599 147.055 11.0066 147.495 10.4199C147.949 9.8199 148.489 9.32657 149.115 8.9399C149.649 8.5799 150.235 8.2999 150.875 8.0999C151.529 7.88657 152.195 7.7599 152.875 7.7199C153.555 7.66657 154.215 7.69323 154.855 7.7999V12.2999C154.215 12.1132 153.475 12.0532 152.635 12.1199C151.809 12.1866 151.062 12.4199 150.395 12.8199C149.729 13.1799 149.182 13.6399 148.755 14.1999C148.342 14.7599 148.035 15.3999 147.835 16.1199C147.635 16.8266 147.535 17.5932 147.535 18.4199V29.3999H142.695ZM177.06 29.9999C174.953 29.9999 173.186 29.4999 171.76 28.4999C170.333 27.4999 169.26 26.1399 168.54 24.4199C167.82 22.6866 167.46 20.7466 167.46 18.5999C167.46 16.4266 167.82 14.4799 168.54 12.7599C169.26 11.0399 170.313 9.68657 171.7 8.6999C173.1 7.6999 174.826 7.1999 176.88 7.1999C178.92 7.1999 180.686 7.6999 182.18 8.6999C183.686 9.68657 184.853 11.0399 185.68 12.7599C186.506 14.4666 186.92 16.4132 186.92 18.5999C186.92 20.7599 186.513 22.6999 185.7 24.4199C184.886 26.1399 183.74 27.4999 182.26 28.4999C180.78 29.4999 179.046 29.9999 177.06 29.9999ZM166.64 38.9999V7.7999H170.9V22.9599H171.5V38.9999H166.64ZM176.32 25.6799C177.573 25.6799 178.606 25.3666 179.42 24.7399C180.233 24.1132 180.833 23.2666 181.22 22.1999C181.62 21.1199 181.82 19.9199 181.82 18.5999C181.82 17.2932 181.62 16.1066 181.22 15.0399C180.82 13.9599 180.2 13.1066 179.36 12.4799C178.52 11.8399 177.453 11.5199 176.16 11.5199C174.933 11.5199 173.933 11.8199 173.16 12.4199C172.386 13.0066 171.813 13.8332 171.44 14.8999C171.08 15.9532 170.9 17.1866 170.9 18.5999C170.9 19.9999 171.08 21.2332 171.44 22.2999C171.813 23.3666 172.393 24.1999 173.18 24.7999C173.98 25.3866 175.026 25.6799 176.32 25.6799ZM191.728 29.3999V-9.82285e-05H196.548V29.3999H191.728ZM208.579 29.9999C207.019 29.9999 205.699 29.7066 204.619 29.1199C203.539 28.5199 202.719 27.7266 202.159 26.7399C201.612 25.7532 201.339 24.6666 201.339 23.4799C201.339 22.4399 201.512 21.5066 201.859 20.6799C202.206 19.8399 202.739 19.1199 203.459 18.5199C204.179 17.9066 205.112 17.4066 206.259 17.0199C207.126 16.7399 208.139 16.4866 209.299 16.2599C210.472 16.0332 211.739 15.8266 213.099 15.6399C214.472 15.4399 215.906 15.2266 217.399 14.9999L215.679 15.9799C215.692 14.4866 215.359 13.3866 214.679 12.6799C213.999 11.9732 212.852 11.6199 211.239 11.6199C210.266 11.6199 209.326 11.8466 208.419 12.2999C207.512 12.7532 206.879 13.5332 206.519 14.6399L202.119 13.2599C202.652 11.4332 203.666 9.96657 205.159 8.8599C206.666 7.75324 208.692 7.1999 211.239 7.1999C213.159 7.1999 214.846 7.51323 216.299 8.1399C217.766 8.76657 218.852 9.79323 219.559 11.2199C219.946 11.9799 220.179 12.7599 220.259 13.5599C220.339 14.3466 220.379 15.2066 220.379 16.1399V29.3999H216.159V24.7199L216.859 25.4799C215.886 27.0399 214.746 28.1866 213.439 28.9199C212.146 29.6399 210.526 29.9999 208.579 29.9999ZM209.539 26.1599C210.632 26.1599 211.566 25.9666 212.339 25.5799C213.112 25.1932 213.726 24.7199 214.179 24.1599C214.646 23.5999 214.959 23.0732 215.119 22.5799C215.372 21.9666 215.512 21.2666 215.539 20.4799C215.579 19.6799 215.599 19.0332 215.599 18.5399L217.079 18.9799C215.626 19.2066 214.379 19.4066 213.339 19.5799C212.299 19.7532 211.406 19.9199 210.659 20.0799C209.912 20.2266 209.252 20.3932 208.679 20.5799C208.119 20.7799 207.646 21.0132 207.259 21.2799C206.872 21.5466 206.572 21.8532 206.359 22.1999C206.159 22.5466 206.059 22.9532 206.059 23.4199C206.059 23.9532 206.192 24.4266 206.459 24.8399C206.726 25.2399 207.112 25.5599 207.619 25.7999C208.139 26.0399 208.779 26.1599 209.539 26.1599ZM238.246 29.3999C236.819 29.6666 235.419 29.7799 234.046 29.7399C232.686 29.7132 231.466 29.4666 230.386 28.9999C229.306 28.5199 228.486 27.7666 227.926 26.7399C227.433 25.8066 227.173 24.8532 227.146 23.8799C227.119 22.9066 227.106 21.8066 227.106 20.5799V1.7999H231.906V20.2999C231.906 21.1666 231.913 21.9266 231.926 22.5799C231.953 23.2332 232.093 23.7666 232.346 24.1799C232.826 24.9799 233.593 25.4266 234.646 25.5199C235.699 25.6132 236.899 25.5599 238.246 25.3599V29.3999ZM223.186 11.5799V7.7999H238.246V11.5799H223.186ZM244.771 29.3999V7.4599C244.771 6.91324 244.791 6.31324 244.831 5.6599C244.871 4.99323 244.984 4.33323 245.171 3.6799C245.357 3.02657 245.697 2.43323 246.191 1.8999C246.804 1.2199 247.464 0.753234 248.171 0.499901C248.891 0.233235 249.597 0.0865677 250.291 0.0598998C250.984 0.0199011 251.591 -9.82285e-05 252.111 -9.82285e-05H254.811V3.9199H252.311C251.391 3.9199 250.704 4.15323 250.251 4.6199C249.811 5.07323 249.591 5.67323 249.591 6.4199V29.3999H244.771ZM241.291 11.5799V7.7999H254.811V11.5799H241.291ZM266.767 29.9999C264.607 29.9999 262.72 29.5132 261.107 28.5399C259.493 27.5666 258.24 26.2266 257.347 24.5199C256.467 22.7999 256.027 20.8266 256.027 18.5999C256.027 16.3332 256.48 14.3466 257.387 12.6399C258.293 10.9332 259.553 9.5999 261.167 8.6399C262.78 7.6799 264.647 7.1999 266.767 7.1999C268.94 7.1999 270.833 7.68657 272.447 8.6599C274.06 9.63323 275.313 10.9799 276.207 12.6999C277.1 14.4066 277.547 16.3732 277.547 18.5999C277.547 20.8399 277.093 22.8199 276.187 24.5399C275.293 26.2466 274.04 27.5866 272.427 28.5599C270.813 29.5199 268.927 29.9999 266.767 29.9999ZM266.767 25.4799C268.687 25.4799 270.113 24.8399 271.047 23.5599C271.98 22.2799 272.447 20.6266 272.447 18.5999C272.447 16.5066 271.973 14.8399 271.027 13.5999C270.08 12.3466 268.66 11.7199 266.767 11.7199C265.473 11.7199 264.407 12.0132 263.567 12.5999C262.74 13.1732 262.127 13.9799 261.727 15.0199C261.327 16.0466 261.127 17.2399 261.127 18.5999C261.127 20.6932 261.6 22.3666 262.547 23.6199C263.507 24.8599 264.913 25.4799 266.767 25.4799ZM281.953 29.3999V7.7999H286.213V13.0599L285.693 12.3799C285.96 11.6599 286.313 11.0066 286.753 10.4199C287.206 9.8199 287.746 9.32657 288.373 8.9399C288.906 8.5799 289.493 8.2999 290.133 8.0999C290.786 7.88657 291.453 7.7599 292.133 7.7199C292.813 7.66657 293.473 7.69323 294.113 7.7999V12.2999C293.473 12.1132 292.733 12.0532 291.893 12.1199C291.066 12.1866 290.32 12.4199 289.653 12.8199C288.986 13.1799 288.44 13.6399 288.013 14.1999C287.6 14.7599 287.293 15.3999 287.093 16.1199C286.893 16.8266 286.793 17.5932 286.793 18.4199V29.3999H281.953ZM323.87 29.3999V16.2799C323.87 14.7999 323.503 13.6466 322.77 12.8199C322.036 11.9799 321.043 11.5599 319.79 11.5599C319.016 11.5599 318.323 11.7399 317.71 12.0999C317.096 12.4466 316.61 12.9666 316.25 13.6599C315.89 14.3399 315.71 15.1532 315.71 16.0999L313.57 14.8399C313.556 13.3466 313.89 12.0332 314.57 10.8999C315.263 9.75323 316.196 8.8599 317.37 8.2199C318.543 7.5799 319.85 7.2599 321.29 7.2599C323.676 7.2599 325.503 7.9799 326.77 9.4199C328.05 10.8466 328.69 12.7266 328.69 15.0599V29.3999H323.87ZM297.89 29.3999V7.7999H302.15V14.4999H302.75V29.3999H297.89ZM310.91 29.3999V16.3399C310.91 14.8332 310.543 13.6599 309.81 12.8199C309.076 11.9799 308.076 11.5599 306.81 11.5599C305.583 11.5599 304.596 11.9799 303.85 12.8199C303.116 13.6599 302.75 14.7532 302.75 16.0999L300.59 14.6599C300.59 13.2599 300.936 11.9999 301.63 10.8799C302.323 9.7599 303.256 8.8799 304.43 8.2399C305.616 7.58657 306.943 7.2599 308.41 7.2599C310.023 7.2599 311.37 7.60657 312.45 8.2999C313.543 8.9799 314.356 9.91323 314.89 11.0999C315.436 12.2732 315.71 13.5999 315.71 15.0799V29.3999H310.91Z" fill="url(#paint0_linear_52_220)"/>
<defs>
<linearGradient id="paint0_linear_52_220" x1="83.7317" y1="14.3999" x2="172.086" y2="132.355" gradientUnits="userSpaceOnUse">
<stop offset="0.091283" stop-color="#88D8FF"/>
<stop offset="1" stop-color="#0179B4"/>
</linearGradient>
</defs>
</svg>
