<svg width="542" height="91" viewBox="0 0 542 91" fill="none" xmlns="http://www.w3.org/2000/svg">
<path d="M72.0312 29.3999V0.599901H76.3712L86.3312 20.9999L96.2912 0.599901H100.631V29.3999H96.1312V10.9399L87.2912 29.3999H85.3712L76.5512 10.9399V29.3999H72.0312ZM112.29 29.9999C110.73 29.9999 109.41 29.7066 108.33 29.1199C107.25 28.5199 106.43 27.7266 105.87 26.7399C105.323 25.7532 105.05 24.6666 105.05 23.4799C105.05 22.4399 105.223 21.5066 105.57 20.6799C105.917 19.8399 106.45 19.1199 107.17 18.5199C107.89 17.9066 108.823 17.4066 109.97 17.0199C110.837 16.7399 111.85 16.4866 113.01 16.2599C114.183 16.0332 115.45 15.8266 116.81 15.6399C118.183 15.4399 119.617 15.2266 121.11 14.9999L119.39 15.9799C119.403 14.4866 119.07 13.3866 118.39 12.6799C117.71 11.9732 116.563 11.6199 114.95 11.6199C113.977 11.6199 113.037 11.8466 112.13 12.2999C111.223 12.7532 110.59 13.5332 110.23 14.6399L105.83 13.2599C106.363 11.4332 107.377 9.96657 108.87 8.8599C110.377 7.75324 112.403 7.1999 114.95 7.1999C116.87 7.1999 118.557 7.51323 120.01 8.1399C121.477 8.76657 122.563 9.79323 123.27 11.2199C123.657 11.9799 123.89 12.7599 123.97 13.5599C124.05 14.3466 124.09 15.2066 124.09 16.1399V29.3999H119.87V24.7199L120.57 25.4799C119.597 27.0399 118.457 28.1866 117.15 28.9199C115.857 29.6399 114.237 29.9999 112.29 29.9999ZM113.25 26.1599C114.343 26.1599 115.277 25.9666 116.05 25.5799C116.823 25.1932 117.437 24.7199 117.89 24.1599C118.357 23.5999 118.67 23.0732 118.83 22.5799C119.083 21.9666 119.223 21.2666 119.25 20.4799C119.29 19.6799 119.31 19.0332 119.31 18.5399L120.79 18.9799C119.337 19.2066 118.09 19.4066 117.05 19.5799C116.01 19.7532 115.117 19.9199 114.37 20.0799C113.623 20.2266 112.963 20.3932 112.39 20.5799C111.83 20.7799 111.357 21.0132 110.97 21.2799C110.583 21.5466 110.283 21.8532 110.07 22.1999C109.87 22.5466 109.77 22.9532 109.77 23.4199C109.77 23.9532 109.903 24.4266 110.17 24.8399C110.437 25.2399 110.823 25.5599 111.33 25.7999C111.85 26.0399 112.49 26.1599 113.25 26.1599ZM137.637 29.9999C134.97 29.9999 132.803 29.3999 131.137 28.1999C129.47 26.9999 128.457 25.3132 128.097 23.1399L133.017 22.3799C133.27 23.4466 133.83 24.2866 134.697 24.8999C135.563 25.5132 136.657 25.8199 137.977 25.8199C139.137 25.8199 140.03 25.5932 140.657 25.1399C141.297 24.6732 141.617 24.0399 141.617 23.2399C141.617 22.7466 141.497 22.3532 141.257 22.0599C141.03 21.7532 140.523 21.4599 139.737 21.1799C138.95 20.8999 137.743 20.5466 136.117 20.1199C134.303 19.6399 132.863 19.1266 131.797 18.5799C130.73 18.0199 129.963 17.3599 129.497 16.5999C129.03 15.8399 128.797 14.9199 128.797 13.8399C128.797 12.4932 129.15 11.3199 129.857 10.3199C130.563 9.3199 131.55 8.55324 132.817 8.0199C134.083 7.47324 135.577 7.1999 137.297 7.1999C138.977 7.1999 140.463 7.4599 141.757 7.9799C143.063 8.4999 144.117 9.2399 144.917 10.1999C145.717 11.1599 146.21 12.2866 146.397 13.5799L141.477 14.4599C141.357 13.5399 140.937 12.8132 140.217 12.2799C139.51 11.7466 138.563 11.4466 137.377 11.3799C136.243 11.3132 135.33 11.4866 134.637 11.8999C133.943 12.2999 133.597 12.8666 133.597 13.5999C133.597 14.0132 133.737 14.3666 134.017 14.6599C134.297 14.9532 134.857 15.2466 135.697 15.5399C136.55 15.8332 137.817 16.1932 139.497 16.6199C141.217 17.0599 142.59 17.5666 143.617 18.1399C144.657 18.6999 145.403 19.3732 145.857 20.1599C146.323 20.9466 146.557 21.8999 146.557 23.0199C146.557 25.1932 145.763 26.8999 144.177 28.1399C142.603 29.3799 140.423 29.9999 137.637 29.9999ZM163.597 29.3999C162.171 29.6666 160.771 29.7799 159.397 29.7399C158.037 29.7132 156.817 29.4666 155.737 28.9999C154.657 28.5199 153.837 27.7666 153.277 26.7399C152.784 25.8066 152.524 24.8532 152.497 23.8799C152.471 22.9066 152.457 21.8066 152.457 20.5799V1.7999H157.257V20.2999C157.257 21.1666 157.264 21.9266 157.277 22.5799C157.304 23.2332 157.444 23.7666 157.697 24.1799C158.177 24.9799 158.944 25.4266 159.997 25.5199C161.051 25.6132 162.251 25.5599 163.597 25.3599V29.3999ZM148.537 11.5799V7.7999H163.597V11.5799H148.537ZM176.968 29.9999C174.782 29.9999 172.862 29.5266 171.208 28.5799C169.555 27.6332 168.262 26.3199 167.328 24.6399C166.408 22.9599 165.948 21.0266 165.948 18.8399C165.948 16.4799 166.402 14.4332 167.308 12.6999C168.215 10.9532 169.475 9.5999 171.088 8.6399C172.702 7.6799 174.568 7.1999 176.688 7.1999C178.928 7.1999 180.828 7.72657 182.388 8.7799C183.962 9.8199 185.128 11.2932 185.888 13.1999C186.648 15.1066 186.935 17.3532 186.748 19.9399H181.968V18.1799C181.955 15.8332 181.542 14.1199 180.728 13.0399C179.915 11.9599 178.635 11.4199 176.888 11.4199C174.915 11.4199 173.448 12.0332 172.488 13.2599C171.528 14.4732 171.048 16.2532 171.048 18.5999C171.048 20.7866 171.528 22.4799 172.488 23.6799C173.448 24.8799 174.848 25.4799 176.688 25.4799C177.875 25.4799 178.895 25.2199 179.748 24.6999C180.615 24.1666 181.282 23.3999 181.748 22.3999L186.508 23.8399C185.682 25.7866 184.402 27.2999 182.668 28.3799C180.948 29.4599 179.048 29.9999 176.968 29.9999ZM169.528 19.9399V16.2999H184.388V19.9399H169.528ZM191.211 29.3999V7.7999H195.471V13.0599L194.951 12.3799C195.218 11.6599 195.571 11.0066 196.011 10.4199C196.464 9.8199 197.004 9.32657 197.631 8.9399C198.164 8.5799 198.751 8.2999 199.391 8.0999C200.044 7.88657 200.711 7.7599 201.391 7.7199C202.071 7.66657 202.731 7.69323 203.371 7.7999V12.2999C202.731 12.1132 201.991 12.0532 201.151 12.1199C200.324 12.1866 199.578 12.4199 198.911 12.8199C198.244 13.1799 197.698 13.6399 197.271 14.1999C196.858 14.7599 196.551 15.3999 196.351 16.1199C196.151 16.8266 196.051 17.5932 196.051 18.4199V29.3999H191.211ZM214.746 29.9999C212.08 29.9999 209.913 29.3999 208.246 28.1999C206.58 26.9999 205.566 25.3132 205.206 23.1399L210.126 22.3799C210.38 23.4466 210.94 24.2866 211.806 24.8999C212.673 25.5132 213.766 25.8199 215.086 25.8199C216.246 25.8199 217.14 25.5932 217.766 25.1399C218.406 24.6732 218.726 24.0399 218.726 23.2399C218.726 22.7466 218.606 22.3532 218.366 22.0599C218.14 21.7532 217.633 21.4599 216.846 21.1799C216.06 20.8999 214.853 20.5466 213.226 20.1199C211.413 19.6399 209.973 19.1266 208.906 18.5799C207.84 18.0199 207.073 17.3599 206.606 16.5999C206.14 15.8399 205.906 14.9199 205.906 13.8399C205.906 12.4932 206.26 11.3199 206.966 10.3199C207.673 9.3199 208.66 8.55324 209.926 8.0199C211.193 7.47324 212.686 7.1999 214.406 7.1999C216.086 7.1999 217.573 7.4599 218.866 7.9799C220.173 8.4999 221.226 9.2399 222.026 10.1999C222.826 11.1599 223.32 12.2866 223.506 13.5799L218.586 14.4599C218.466 13.5399 218.046 12.8132 217.326 12.2799C216.62 11.7466 215.673 11.4466 214.486 11.3799C213.353 11.3132 212.44 11.4866 211.746 11.8999C211.053 12.2999 210.706 12.8666 210.706 13.5999C210.706 14.0132 210.846 14.3666 211.126 14.6599C211.406 14.9532 211.966 15.2466 212.806 15.5399C213.66 15.8332 214.926 16.1932 216.606 16.6199C218.326 17.0599 219.7 17.5666 220.726 18.1399C221.766 18.6999 222.513 19.3732 222.966 20.1599C223.433 20.9466 223.666 21.8999 223.666 23.0199C223.666 25.1932 222.873 26.8999 221.286 28.1399C219.713 29.3799 217.533 29.9999 214.746 29.9999ZM245.595 29.9999C243.435 29.9999 241.548 29.5132 239.935 28.5399C238.321 27.5666 237.068 26.2266 236.175 24.5199C235.295 22.7999 234.855 20.8266 234.855 18.5999C234.855 16.3332 235.308 14.3466 236.215 12.6399C237.121 10.9332 238.381 9.5999 239.995 8.6399C241.608 7.6799 243.475 7.1999 245.595 7.1999C247.768 7.1999 249.661 7.68657 251.275 8.6599C252.888 9.63323 254.141 10.9799 255.035 12.6999C255.928 14.4066 256.375 16.3732 256.375 18.5999C256.375 20.8399 255.921 22.8199 255.015 24.5399C254.121 26.2466 252.868 27.5866 251.255 28.5599C249.641 29.5199 247.755 29.9999 245.595 29.9999ZM245.595 25.4799C247.515 25.4799 248.941 24.8399 249.875 23.5599C250.808 22.2799 251.275 20.6266 251.275 18.5999C251.275 16.5066 250.801 14.8399 249.855 13.5999C248.908 12.3466 247.488 11.7199 245.595 11.7199C244.301 11.7199 243.235 12.0132 242.395 12.5999C241.568 13.1732 240.955 13.9799 240.555 15.0199C240.155 16.0466 239.955 17.2399 239.955 18.5999C239.955 20.6932 240.428 22.3666 241.375 23.6199C242.335 24.8599 243.741 25.4799 245.595 25.4799ZM262.661 29.3999V7.4599C262.661 6.91324 262.681 6.31324 262.721 5.6599C262.761 4.99323 262.875 4.33323 263.061 3.6799C263.248 3.02657 263.588 2.43323 264.081 1.8999C264.695 1.2199 265.355 0.753234 266.061 0.499901C266.781 0.233235 267.488 0.0865677 268.181 0.0598998C268.875 0.0199011 269.481 -9.82285e-05 270.001 -9.82285e-05H272.701V3.9199H270.201C269.281 3.9199 268.595 4.15323 268.141 4.6199C267.701 5.07323 267.481 5.67323 267.481 6.4199V29.3999H262.661ZM259.181 11.5799V7.7999H272.701V11.5799H259.181ZM283.906 29.3999V0.599901H288.246L298.206 20.9999L308.166 0.599901H312.506V29.3999H308.006V10.9399L299.166 29.3999H297.246L288.426 10.9399V29.3999H283.906ZM327.945 29.9999C325.758 29.9999 323.838 29.5266 322.185 28.5799C320.532 27.6332 319.238 26.3199 318.305 24.6399C317.385 22.9599 316.925 21.0266 316.925 18.8399C316.925 16.4799 317.378 14.4332 318.285 12.6999C319.192 10.9532 320.452 9.5999 322.065 8.6399C323.678 7.6799 325.545 7.1999 327.665 7.1999C329.905 7.1999 331.805 7.72657 333.365 8.7799C334.938 9.8199 336.105 11.2932 336.865 13.1999C337.625 15.1066 337.912 17.3532 337.725 19.9399H332.945V18.1799C332.932 15.8332 332.518 14.1199 331.705 13.0399C330.892 11.9599 329.612 11.4199 327.865 11.4199C325.892 11.4199 324.425 12.0332 323.465 13.2599C322.505 14.4732 322.025 16.2532 322.025 18.5999C322.025 20.7866 322.505 22.4799 323.465 23.6799C324.425 24.8799 325.825 25.4799 327.665 25.4799C328.852 25.4799 329.872 25.2199 330.725 24.6999C331.592 24.1666 332.258 23.3999 332.725 22.3999L337.485 23.8399C336.658 25.7866 335.378 27.2999 333.645 28.3799C331.925 29.4599 330.025 29.9999 327.945 29.9999ZM320.505 19.9399V16.2999H335.365V19.9399H320.505ZM350.847 29.9999C348.861 29.9999 347.127 29.4999 345.647 28.4999C344.167 27.4999 343.021 26.1399 342.207 24.4199C341.394 22.6999 340.987 20.7599 340.987 18.5999C340.987 16.4132 341.394 14.4666 342.207 12.7599C343.034 11.0399 344.201 9.68657 345.707 8.6999C347.214 7.6999 348.987 7.1999 351.027 7.1999C353.081 7.1999 354.801 7.6999 356.187 8.6999C357.587 9.68657 358.647 11.0399 359.367 12.7599C360.087 14.4799 360.447 16.4266 360.447 18.5999C360.447 20.7466 360.087 22.6866 359.367 24.4199C358.647 26.1399 357.574 27.4999 356.147 28.4999C354.721 29.4999 352.954 29.9999 350.847 29.9999ZM351.587 25.6799C352.881 25.6799 353.921 25.3866 354.707 24.7999C355.507 24.1999 356.087 23.3666 356.447 22.2999C356.821 21.2332 357.007 19.9999 357.007 18.5999C357.007 17.1866 356.821 15.9532 356.447 14.8999C356.087 13.8332 355.521 13.0066 354.747 12.4199C353.974 11.8199 352.974 11.5199 351.747 11.5199C350.454 11.5199 349.387 11.8399 348.547 12.4799C347.707 13.1066 347.087 13.9599 346.687 15.0399C346.287 16.1066 346.087 17.2932 346.087 18.5999C346.087 19.9199 346.281 21.1199 346.667 22.1999C347.067 23.2666 347.674 24.1132 348.487 24.7399C349.301 25.3666 350.334 25.6799 351.587 25.6799ZM357.007 29.3999V14.2399H356.407V0.599901H361.267V29.3999H357.007ZM367.275 4.5199V0.0999017H372.095V4.5199H367.275ZM367.275 29.3999V7.7999H372.095V29.3999H367.275ZM387.466 29.9999C385.239 29.9999 383.339 29.5066 381.766 28.5199C380.193 27.5199 378.986 26.1599 378.146 24.4399C377.319 22.7199 376.899 20.7732 376.886 18.5999C376.899 16.3866 377.333 14.4266 378.186 12.7199C379.053 10.9999 380.279 9.65323 381.866 8.6799C383.453 7.69324 385.339 7.1999 387.526 7.1999C389.979 7.1999 392.053 7.8199 393.746 9.0599C395.453 10.2866 396.566 11.9666 397.086 14.0999L392.286 15.3999C391.913 14.2399 391.293 13.3399 390.426 12.6999C389.559 12.0466 388.573 11.7199 387.466 11.7199C386.213 11.7199 385.179 12.0199 384.366 12.6199C383.553 13.2066 382.953 14.0199 382.566 15.0599C382.179 16.0999 381.986 17.2799 381.986 18.5999C381.986 20.6532 382.446 22.3132 383.366 23.5799C384.286 24.8466 385.653 25.4799 387.466 25.4799C388.746 25.4799 389.753 25.1866 390.486 24.5999C391.233 24.0132 391.793 23.1666 392.166 22.0599L397.086 23.1599C396.419 25.3599 395.253 27.0532 393.586 28.2399C391.919 29.4132 389.879 29.9999 387.466 29.9999ZM400.908 4.5199V0.0999017H405.728V4.5199H400.908ZM400.908 29.3999V7.7999H405.728V29.3999H400.908ZM426.659 29.3999V18.9999C426.659 18.3199 426.612 17.5666 426.519 16.7399C426.425 15.9132 426.205 15.1199 425.859 14.3599C425.525 13.5866 425.019 12.9532 424.339 12.4599C423.672 11.9666 422.765 11.7199 421.619 11.7199C421.005 11.7199 420.399 11.8199 419.799 12.0199C419.199 12.2199 418.652 12.5666 418.159 13.0599C417.679 13.5399 417.292 14.2066 416.999 15.0599C416.705 15.8999 416.559 16.9799 416.559 18.2999L413.699 17.0799C413.699 15.2399 414.052 13.5732 414.759 12.0799C415.479 10.5866 416.532 9.3999 417.919 8.5199C419.305 7.62657 421.012 7.1799 423.039 7.1799C424.639 7.1799 425.959 7.44657 426.999 7.9799C428.039 8.51323 428.865 9.19324 429.479 10.0199C430.092 10.8466 430.545 11.7266 430.839 12.6599C431.132 13.5932 431.319 14.4799 431.399 15.3199C431.492 16.1466 431.539 16.8199 431.539 17.3399V29.3999H426.659ZM411.679 29.3999V7.7999H415.979V14.4999H416.559V29.3999H411.679ZM446.226 29.9999C444.04 29.9999 442.12 29.5266 440.466 28.5799C438.813 27.6332 437.52 26.3199 436.586 24.6399C435.666 22.9599 435.206 21.0266 435.206 18.8399C435.206 16.4799 435.66 14.4332 436.566 12.6999C437.473 10.9532 438.733 9.5999 440.346 8.6399C441.96 7.6799 443.826 7.1999 445.946 7.1999C448.186 7.1999 450.086 7.72657 451.646 8.7799C453.22 9.8199 454.386 11.2932 455.146 13.1999C455.906 15.1066 456.193 17.3532 456.006 19.9399H451.226V18.1799C451.213 15.8332 450.8 14.1199 449.986 13.0399C449.173 11.9599 447.893 11.4199 446.146 11.4199C444.173 11.4199 442.706 12.0332 441.746 13.2599C440.786 14.4732 440.306 16.2532 440.306 18.5999C440.306 20.7866 440.786 22.4799 441.746 23.6799C442.706 24.8799 444.106 25.4799 445.946 25.4799C447.133 25.4799 448.153 25.2199 449.006 24.6999C449.873 24.1666 450.54 23.3999 451.006 22.3999L455.766 23.8399C454.94 25.7866 453.66 27.2999 451.926 28.3799C450.206 29.4599 448.306 29.9999 446.226 29.9999ZM438.786 19.9399V16.2999H453.646V19.9399H438.786ZM462.069 26.7999V21.8599H467.009V26.7999H462.069ZM462.109 15.3399V10.3999H467.049V15.3399H462.109Z" fill="url(#paint0_linear_69_54)"/>
<path d="M-4.88162e-05 81.3999V52.5999H4.33995L14.3 72.9999L24.26 52.5999H28.6V81.3999H24.1V62.9399L15.26 81.3999H13.34L4.51995 62.9399V81.3999H-4.88162e-05ZM44.0387 81.9999C41.852 81.9999 39.932 81.5266 38.2787 80.5799C36.6254 79.6332 35.332 78.3199 34.3987 76.6399C33.4787 74.9599 33.0187 73.0266 33.0187 70.8399C33.0187 68.4799 33.472 66.4332 34.3787 64.6999C35.2854 62.9532 36.5454 61.5999 38.1587 60.6399C39.772 59.6799 41.6387 59.1999 43.7587 59.1999C45.9987 59.1999 47.8987 59.7266 49.4587 60.7799C51.032 61.8199 52.1987 63.2932 52.9587 65.1999C53.7187 67.1066 54.0054 69.3532 53.8187 71.9399H49.0387V70.1799C49.0254 67.8332 48.612 66.1199 47.7987 65.0399C46.9854 63.9599 45.7054 63.4199 43.9587 63.4199C41.9854 63.4199 40.5187 64.0332 39.5587 65.2599C38.5987 66.4732 38.1187 68.2532 38.1187 70.5999C38.1187 72.7866 38.5987 74.4799 39.5587 75.6799C40.5187 76.8799 41.9187 77.4799 43.7587 77.4799C44.9454 77.4799 45.9654 77.2199 46.8187 76.6999C47.6854 76.1666 48.352 75.3999 48.8187 74.3999L53.5787 75.8399C52.752 77.7866 51.472 79.2999 49.7387 80.3799C48.0187 81.4599 46.1187 81.9999 44.0387 81.9999ZM36.5987 71.9399V68.2999H51.4587V71.9399H36.5987ZM68.1012 81.9999C65.9145 81.9999 63.9945 81.5266 62.3412 80.5799C60.6879 79.6332 59.3945 78.3199 58.4612 76.6399C57.5412 74.9599 57.0812 73.0266 57.0812 70.8399C57.0812 68.4799 57.5345 66.4332 58.4412 64.6999C59.3479 62.9532 60.6079 61.5999 62.2212 60.6399C63.8345 59.6799 65.7012 59.1999 67.8212 59.1999C70.0612 59.1999 71.9612 59.7266 73.5212 60.7799C75.0945 61.8199 76.2612 63.2932 77.0212 65.1999C77.7812 67.1066 78.0679 69.3532 77.8812 71.9399H73.1012V70.1799C73.0879 67.8332 72.6745 66.1199 71.8612 65.0399C71.0479 63.9599 69.7679 63.4199 68.0212 63.4199C66.0479 63.4199 64.5812 64.0332 63.6212 65.2599C62.6612 66.4732 62.1812 68.2532 62.1812 70.5999C62.1812 72.7866 62.6612 74.4799 63.6212 75.6799C64.5812 76.8799 65.9812 77.4799 67.8212 77.4799C69.0079 77.4799 70.0279 77.2199 70.8812 76.6999C71.7479 76.1666 72.4145 75.3999 72.8812 74.3999L77.6412 75.8399C76.8145 77.7866 75.5345 79.2999 73.8012 80.3799C72.0812 81.4599 70.1812 81.9999 68.1012 81.9999ZM60.6612 71.9399V68.2999H75.5212V71.9399H60.6612ZM95.0037 81.3999C93.577 81.6666 92.177 81.7799 90.8037 81.7399C89.4437 81.7132 88.2237 81.4666 87.1437 80.9999C86.0637 80.5199 85.2437 79.7666 84.6837 78.7399C84.1904 77.8066 83.9304 76.8532 83.9037 75.8799C83.877 74.9066 83.8637 73.8066 83.8637 72.5799V53.7999H88.6637V72.2999C88.6637 73.1666 88.6704 73.9266 88.6837 74.5799C88.7104 75.2332 88.8504 75.7666 89.1037 76.1799C89.5837 76.9799 90.3504 77.4266 91.4037 77.5199C92.457 77.6132 93.657 77.5599 95.0037 77.3599V81.3999ZM79.9437 63.5799V59.7999H95.0037V63.5799H79.9437ZM117.196 81.9999C115.036 81.9999 113.15 81.5132 111.536 80.5399C109.923 79.5666 108.67 78.2266 107.776 76.5199C106.896 74.7999 106.456 72.8266 106.456 70.5999C106.456 68.3332 106.91 66.3466 107.816 64.6399C108.723 62.9332 109.983 61.5999 111.596 60.6399C113.21 59.6799 115.076 59.1999 117.196 59.1999C119.37 59.1999 121.263 59.6866 122.876 60.6599C124.49 61.6332 125.743 62.9799 126.636 64.6999C127.53 66.4066 127.976 68.3732 127.976 70.5999C127.976 72.8399 127.523 74.8199 126.616 76.5399C125.723 78.2466 124.47 79.5866 122.856 80.5599C121.243 81.5199 119.356 81.9999 117.196 81.9999ZM117.196 77.4799C119.116 77.4799 120.543 76.8399 121.476 75.5599C122.41 74.2799 122.876 72.6266 122.876 70.5999C122.876 68.5066 122.403 66.8399 121.456 65.5999C120.51 64.3466 119.09 63.7199 117.196 63.7199C115.903 63.7199 114.836 64.0132 113.996 64.5999C113.17 65.1732 112.556 65.9799 112.156 67.0199C111.756 68.0466 111.556 69.2399 111.556 70.5999C111.556 72.6932 112.03 74.3666 112.976 75.6199C113.936 76.8599 115.343 77.4799 117.196 77.4799ZM140.483 82.0199C138.883 82.0199 137.563 81.7532 136.523 81.2199C135.483 80.6866 134.656 80.0066 134.043 79.1799C133.429 78.3532 132.976 77.4732 132.683 76.5399C132.389 75.6066 132.196 74.7266 132.103 73.8999C132.023 73.0599 131.983 72.3799 131.983 71.8599V59.7999H136.863V70.1999C136.863 70.8666 136.909 71.6199 137.003 72.4599C137.096 73.2866 137.309 74.0866 137.643 74.8599C137.989 75.6199 138.496 76.2466 139.163 76.7399C139.843 77.2332 140.756 77.4799 141.903 77.4799C142.516 77.4799 143.123 77.3799 143.723 77.1799C144.323 76.9799 144.863 76.6399 145.343 76.1599C145.836 75.6666 146.229 74.9932 146.523 74.1399C146.816 73.2866 146.963 72.2066 146.963 70.8999L149.823 72.1199C149.823 73.9599 149.463 75.6266 148.743 77.1199C148.036 78.6132 146.989 79.8066 145.603 80.6999C144.216 81.5799 142.509 82.0199 140.483 82.0199ZM147.543 81.3999V74.6999H146.963V59.7999H151.803V81.3999H147.543ZM157.422 81.3999V59.7999H161.682V65.0599L161.162 64.3799C161.428 63.6599 161.782 63.0066 162.222 62.4199C162.675 61.8199 163.215 61.3266 163.842 60.9399C164.375 60.5799 164.962 60.2999 165.602 60.0999C166.255 59.8866 166.922 59.7599 167.602 59.7199C168.282 59.6666 168.942 59.6932 169.582 59.7999V64.2999C168.942 64.1132 168.202 64.0532 167.362 64.1199C166.535 64.1866 165.788 64.4199 165.122 64.8199C164.455 65.1799 163.908 65.6399 163.482 66.1999C163.068 66.7599 162.762 67.3999 162.562 68.1199C162.362 68.8266 162.262 69.5932 162.262 70.4199V81.3999H157.422ZM194.066 81.3999C192.64 81.6666 191.24 81.7799 189.866 81.7399C188.506 81.7132 187.286 81.4666 186.206 80.9999C185.126 80.5199 184.306 79.7666 183.746 78.7399C183.253 77.8066 182.993 76.8532 182.966 75.8799C182.94 74.9066 182.926 73.8066 182.926 72.5799V53.7999H187.726V72.2999C187.726 73.1666 187.733 73.9266 187.746 74.5799C187.773 75.2332 187.913 75.7666 188.166 76.1799C188.646 76.9799 189.413 77.4266 190.466 77.5199C191.52 77.6132 192.72 77.5599 194.066 77.3599V81.3999ZM179.006 63.5799V59.7999H194.066V63.5799H179.006ZM207.437 81.9999C205.25 81.9999 203.33 81.5266 201.677 80.5799C200.024 79.6332 198.73 78.3199 197.797 76.6399C196.877 74.9599 196.417 73.0266 196.417 70.8399C196.417 68.4799 196.87 66.4332 197.777 64.6999C198.684 62.9532 199.944 61.5999 201.557 60.6399C203.17 59.6799 205.037 59.1999 207.157 59.1999C209.397 59.1999 211.297 59.7266 212.857 60.7799C214.43 61.8199 215.597 63.2932 216.357 65.1999C217.117 67.1066 217.404 69.3532 217.217 71.9399H212.437V70.1799C212.424 67.8332 212.01 66.1199 211.197 65.0399C210.384 63.9599 209.104 63.4199 207.357 63.4199C205.384 63.4199 203.917 64.0332 202.957 65.2599C201.997 66.4732 201.517 68.2532 201.517 70.5999C201.517 72.7866 201.997 74.4799 202.957 75.6799C203.917 76.8799 205.317 77.4799 207.157 77.4799C208.344 77.4799 209.364 77.2199 210.217 76.6999C211.084 76.1666 211.75 75.3999 212.217 74.3999L216.977 75.8399C216.15 77.7866 214.87 79.2999 213.137 80.3799C211.417 81.4599 209.517 81.9999 207.437 81.9999ZM199.997 71.9399V68.2999H214.857V71.9399H199.997ZM227.329 81.9999C225.769 81.9999 224.449 81.7066 223.369 81.1199C222.289 80.5199 221.469 79.7266 220.909 78.7399C220.362 77.7532 220.089 76.6666 220.089 75.4799C220.089 74.4399 220.262 73.5066 220.609 72.6799C220.956 71.8399 221.489 71.1199 222.209 70.5199C222.929 69.9066 223.862 69.4066 225.009 69.0199C225.876 68.7399 226.889 68.4866 228.049 68.2599C229.222 68.0332 230.489 67.8266 231.849 67.6399C233.222 67.4399 234.656 67.2266 236.149 66.9999L234.429 67.9799C234.442 66.4866 234.109 65.3866 233.429 64.6799C232.749 63.9732 231.602 63.6199 229.989 63.6199C229.016 63.6199 228.076 63.8466 227.169 64.2999C226.262 64.7532 225.629 65.5332 225.269 66.6399L220.869 65.2599C221.402 63.4332 222.416 61.9666 223.909 60.8599C225.416 59.7532 227.442 59.1999 229.989 59.1999C231.909 59.1999 233.596 59.5132 235.049 60.1399C236.516 60.7666 237.602 61.7932 238.309 63.2199C238.696 63.9799 238.929 64.7599 239.009 65.5599C239.089 66.3466 239.129 67.2066 239.129 68.1399V81.3999H234.909V76.7199L235.609 77.4799C234.636 79.0399 233.496 80.1866 232.189 80.9199C230.896 81.6399 229.276 81.9999 227.329 81.9999ZM228.289 78.1599C229.382 78.1599 230.316 77.9666 231.089 77.5799C231.862 77.1932 232.476 76.7199 232.929 76.1599C233.396 75.5999 233.709 75.0732 233.869 74.5799C234.122 73.9666 234.262 73.2666 234.289 72.4799C234.329 71.6799 234.349 71.0332 234.349 70.5399L235.829 70.9799C234.376 71.2066 233.129 71.4066 232.089 71.5799C231.049 71.7532 230.156 71.9199 229.409 72.0799C228.662 72.2266 228.002 72.3932 227.429 72.5799C226.869 72.7799 226.396 73.0132 226.009 73.2799C225.622 73.5466 225.322 73.8532 225.109 74.1999C224.909 74.5466 224.809 74.9532 224.809 75.4199C224.809 75.9532 224.942 76.4266 225.209 76.8399C225.476 77.2399 225.862 77.5599 226.369 77.7999C226.889 78.0399 227.529 78.1599 228.289 78.1599ZM270.276 81.3999V68.2799C270.276 66.7999 269.909 65.6466 269.176 64.8199C268.443 63.9799 267.449 63.5599 266.196 63.5599C265.423 63.5599 264.729 63.7399 264.116 64.0999C263.503 64.4466 263.016 64.9666 262.656 65.6599C262.296 66.3399 262.116 67.1532 262.116 68.0999L259.976 66.8399C259.963 65.3466 260.296 64.0332 260.976 62.8999C261.669 61.7532 262.603 60.8599 263.776 60.2199C264.949 59.5799 266.256 59.2599 267.696 59.2599C270.083 59.2599 271.909 59.9799 273.176 61.4199C274.456 62.8466 275.096 64.7266 275.096 67.0599V81.3999H270.276ZM244.296 81.3999V59.7999H248.556V66.4999H249.156V81.3999H244.296ZM257.316 81.3999V68.3399C257.316 66.8332 256.949 65.6599 256.216 64.8199C255.483 63.9799 254.483 63.5599 253.216 63.5599C251.989 63.5599 251.003 63.9799 250.256 64.8199C249.523 65.6599 249.156 66.7532 249.156 68.0999L246.996 66.6599C246.996 65.2599 247.343 63.9999 248.036 62.8799C248.729 61.7599 249.663 60.8799 250.836 60.2399C252.023 59.5866 253.349 59.2599 254.816 59.2599C256.429 59.2599 257.776 59.6066 258.856 60.2999C259.949 60.9799 260.763 61.9132 261.296 63.0999C261.843 64.2732 262.116 65.5999 262.116 67.0799V81.3999H257.316ZM297.86 81.9999C295.7 81.9999 293.814 81.5132 292.2 80.5399C290.587 79.5666 289.334 78.2266 288.44 76.5199C287.56 74.7999 287.12 72.8266 287.12 70.5999C287.12 68.3332 287.574 66.3466 288.48 64.6399C289.387 62.9332 290.647 61.5999 292.26 60.6399C293.874 59.6799 295.74 59.1999 297.86 59.1999C300.034 59.1999 301.927 59.6866 303.54 60.6599C305.154 61.6332 306.407 62.9799 307.3 64.6999C308.194 66.4066 308.64 68.3732 308.64 70.5999C308.64 72.8399 308.187 74.8199 307.28 76.5399C306.387 78.2466 305.134 79.5866 303.52 80.5599C301.907 81.5199 300.02 81.9999 297.86 81.9999ZM297.86 77.4799C299.78 77.4799 301.207 76.8399 302.14 75.5599C303.074 74.2799 303.54 72.6266 303.54 70.5999C303.54 68.5066 303.067 66.8399 302.12 65.5999C301.174 64.3466 299.754 63.7199 297.86 63.7199C296.567 63.7199 295.5 64.0132 294.66 64.5999C293.834 65.1732 293.22 65.9799 292.82 67.0199C292.42 68.0466 292.22 69.2399 292.22 70.5999C292.22 72.6932 292.694 74.3666 293.64 75.6199C294.6 76.8599 296.007 77.4799 297.86 77.4799ZM314.927 81.3999V59.4599C314.927 58.9132 314.947 58.3132 314.987 57.6599C315.027 56.9932 315.14 56.3332 315.327 55.6799C315.513 55.0266 315.853 54.4332 316.347 53.8999C316.96 53.2199 317.62 52.7532 318.327 52.4999C319.047 52.2332 319.753 52.0866 320.447 52.0599C321.14 52.0199 321.747 51.9999 322.267 51.9999H324.967V55.9199H322.467C321.547 55.9199 320.86 56.1532 320.407 56.6199C319.967 57.0732 319.747 57.6732 319.747 58.4199V81.3999H314.927ZM311.447 63.5799V59.7999H324.967V63.5799H311.447ZM344.512 81.9999C341.845 81.9999 339.678 81.3999 338.012 80.1999C336.345 78.9999 335.332 77.3132 334.972 75.1399L339.892 74.3799C340.145 75.4466 340.705 76.2866 341.572 76.8999C342.438 77.5132 343.532 77.8199 344.852 77.8199C346.012 77.8199 346.905 77.5932 347.532 77.1399C348.172 76.6732 348.492 76.0399 348.492 75.2399C348.492 74.7466 348.372 74.3532 348.132 74.0599C347.905 73.7532 347.398 73.4599 346.612 73.1799C345.825 72.8999 344.618 72.5466 342.992 72.1199C341.178 71.6399 339.738 71.1266 338.672 70.5799C337.605 70.0199 336.838 69.3599 336.372 68.5999C335.905 67.8399 335.672 66.9199 335.672 65.8399C335.672 64.4932 336.025 63.3199 336.732 62.3199C337.438 61.3199 338.425 60.5532 339.692 60.0199C340.958 59.4732 342.452 59.1999 344.172 59.1999C345.852 59.1999 347.338 59.4599 348.632 59.9799C349.938 60.4999 350.992 61.2399 351.792 62.1999C352.592 63.1599 353.085 64.2866 353.272 65.5799L348.352 66.4599C348.232 65.5399 347.812 64.8132 347.092 64.2799C346.385 63.7466 345.438 63.4466 344.252 63.3799C343.118 63.3132 342.205 63.4866 341.512 63.8999C340.818 64.2999 340.472 64.8666 340.472 65.5999C340.472 66.0132 340.612 66.3666 340.892 66.6599C341.172 66.9532 341.732 67.2466 342.572 67.5399C343.425 67.8332 344.692 68.1932 346.372 68.6199C348.092 69.0599 349.465 69.5666 350.492 70.1399C351.532 70.6999 352.278 71.3732 352.732 72.1599C353.198 72.9466 353.432 73.8999 353.432 75.0199C353.432 77.1932 352.638 78.8999 351.052 80.1399C349.478 81.3799 347.298 81.9999 344.512 81.9999ZM368.192 81.9999C366.086 81.9999 364.319 81.4999 362.892 80.4999C361.466 79.4999 360.392 78.1399 359.672 76.4199C358.952 74.6866 358.592 72.7466 358.592 70.5999C358.592 68.4266 358.952 66.4799 359.672 64.7599C360.392 63.0399 361.446 61.6866 362.832 60.6999C364.232 59.6999 365.959 59.1999 368.012 59.1999C370.052 59.1999 371.819 59.6999 373.312 60.6999C374.819 61.6866 375.986 63.0399 376.812 64.7599C377.639 66.4666 378.052 68.4132 378.052 70.5999C378.052 72.7599 377.646 74.6999 376.832 76.4199C376.019 78.1399 374.872 79.4999 373.392 80.4999C371.912 81.4999 370.179 81.9999 368.192 81.9999ZM357.772 90.9999V59.7999H362.032V74.9599H362.632V90.9999H357.772ZM367.452 77.6799C368.706 77.6799 369.739 77.3666 370.552 76.7399C371.366 76.1132 371.966 75.2666 372.352 74.1999C372.752 73.1199 372.952 71.9199 372.952 70.5999C372.952 69.2932 372.752 68.1066 372.352 67.0399C371.952 65.9599 371.332 65.1066 370.492 64.4799C369.652 63.8399 368.586 63.5199 367.292 63.5199C366.066 63.5199 365.066 63.8199 364.292 64.4199C363.519 65.0066 362.946 65.8332 362.572 66.8999C362.212 67.9532 362.032 69.1866 362.032 70.5999C362.032 71.9999 362.212 73.2332 362.572 74.2999C362.946 75.3666 363.526 76.1999 364.312 76.7999C365.112 77.3866 366.159 77.6799 367.452 77.6799ZM392.281 81.9999C390.094 81.9999 388.174 81.5266 386.521 80.5799C384.868 79.6332 383.574 78.3199 382.641 76.6399C381.721 74.9599 381.261 73.0266 381.261 70.8399C381.261 68.4799 381.714 66.4332 382.621 64.6999C383.528 62.9532 384.788 61.5999 386.401 60.6399C388.014 59.6799 389.881 59.1999 392.001 59.1999C394.241 59.1999 396.141 59.7266 397.701 60.7799C399.274 61.8199 400.441 63.2932 401.201 65.1999C401.961 67.1066 402.248 69.3532 402.061 71.9399H397.281V70.1799C397.268 67.8332 396.854 66.1199 396.041 65.0399C395.228 63.9599 393.948 63.4199 392.201 63.4199C390.228 63.4199 388.761 64.0332 387.801 65.2599C386.841 66.4732 386.361 68.2532 386.361 70.5999C386.361 72.7866 386.841 74.4799 387.801 75.6799C388.761 76.8799 390.161 77.4799 392.001 77.4799C393.188 77.4799 394.208 77.2199 395.061 76.6999C395.928 76.1666 396.594 75.3999 397.061 74.3999L401.821 75.8399C400.994 77.7866 399.714 79.2999 397.981 80.3799C396.261 81.4599 394.361 81.9999 392.281 81.9999ZM384.841 71.9399V68.2999H399.701V71.9399H384.841ZM415.903 81.9999C413.677 81.9999 411.777 81.5066 410.203 80.5199C408.63 79.5199 407.423 78.1599 406.583 76.4399C405.757 74.7199 405.337 72.7732 405.323 70.5999C405.337 68.3866 405.77 66.4266 406.623 64.7199C407.49 62.9999 408.717 61.6532 410.303 60.6799C411.89 59.6932 413.777 59.1999 415.963 59.1999C418.417 59.1999 420.49 59.8199 422.183 61.0599C423.89 62.2866 425.003 63.9666 425.523 66.0999L420.723 67.3999C420.35 66.2399 419.73 65.3399 418.863 64.6999C417.997 64.0466 417.01 63.7199 415.903 63.7199C414.65 63.7199 413.617 64.0199 412.803 64.6199C411.99 65.2066 411.39 66.0199 411.003 67.0599C410.617 68.0999 410.423 69.2799 410.423 70.5999C410.423 72.6532 410.883 74.3132 411.803 75.5799C412.723 76.8466 414.09 77.4799 415.903 77.4799C417.183 77.4799 418.19 77.1866 418.923 76.5999C419.67 76.0132 420.23 75.1666 420.603 74.0599L425.523 75.1599C424.857 77.3599 423.69 79.0532 422.023 80.2399C420.357 81.4132 418.317 81.9999 415.903 81.9999ZM429.345 56.5199V52.0999H434.165V56.5199H429.345ZM429.345 81.3999V59.7999H434.165V81.3999H429.345ZM446.196 81.9999C444.636 81.9999 443.316 81.7066 442.236 81.1199C441.156 80.5199 440.336 79.7266 439.776 78.7399C439.23 77.7532 438.956 76.6666 438.956 75.4799C438.956 74.4399 439.13 73.5066 439.476 72.6799C439.823 71.8399 440.356 71.1199 441.076 70.5199C441.796 69.9066 442.73 69.4066 443.876 69.0199C444.743 68.7399 445.756 68.4866 446.916 68.2599C448.09 68.0332 449.356 67.8266 450.716 67.6399C452.09 67.4399 453.523 67.2266 455.016 66.9999L453.296 67.9799C453.31 66.4866 452.976 65.3866 452.296 64.6799C451.616 63.9732 450.47 63.6199 448.856 63.6199C447.883 63.6199 446.943 63.8466 446.036 64.2999C445.13 64.7532 444.496 65.5332 444.136 66.6399L439.736 65.2599C440.27 63.4332 441.283 61.9666 442.776 60.8599C444.283 59.7532 446.31 59.1999 448.856 59.1999C450.776 59.1999 452.463 59.5132 453.916 60.1399C455.383 60.7666 456.47 61.7932 457.176 63.2199C457.563 63.9799 457.796 64.7599 457.876 65.5599C457.956 66.3466 457.996 67.2066 457.996 68.1399V81.3999H453.776V76.7199L454.476 77.4799C453.503 79.0399 452.363 80.1866 451.056 80.9199C449.763 81.6399 448.143 81.9999 446.196 81.9999ZM447.156 78.1599C448.25 78.1599 449.183 77.9666 449.956 77.5799C450.73 77.1932 451.343 76.7199 451.796 76.1599C452.263 75.5999 452.576 75.0732 452.736 74.5799C452.99 73.9666 453.13 73.2666 453.156 72.4799C453.196 71.6799 453.216 71.0332 453.216 70.5399L454.696 70.9799C453.243 71.2066 451.996 71.4066 450.956 71.5799C449.916 71.7532 449.023 71.9199 448.276 72.0799C447.53 72.2266 446.87 72.3932 446.296 72.5799C445.736 72.7799 445.263 73.0132 444.876 73.2799C444.49 73.5466 444.19 73.8532 443.976 74.1999C443.776 74.5466 443.676 74.9532 443.676 75.4199C443.676 75.9532 443.81 76.4266 444.076 76.8399C444.343 77.2399 444.73 77.5599 445.236 77.7999C445.756 78.0399 446.396 78.1599 447.156 78.1599ZM463.603 81.3999V51.9999H468.423V81.3999H463.603ZM474.814 56.5199V52.0999H479.634V56.5199H474.814ZM474.814 81.3999V59.7999H479.634V81.3999H474.814ZM493.965 81.9999C491.298 81.9999 489.132 81.3999 487.465 80.1999C485.798 78.9999 484.785 77.3132 484.425 75.1399L489.345 74.3799C489.598 75.4466 490.158 76.2866 491.025 76.8999C491.892 77.5132 492.985 77.8199 494.305 77.8199C495.465 77.8199 496.358 77.5932 496.985 77.1399C497.625 76.6732 497.945 76.0399 497.945 75.2399C497.945 74.7466 497.825 74.3532 497.585 74.0599C497.358 73.7532 496.852 73.4599 496.065 73.1799C495.278 72.8999 494.072 72.5466 492.445 72.1199C490.632 71.6399 489.192 71.1266 488.125 70.5799C487.058 70.0199 486.292 69.3599 485.825 68.5999C485.358 67.8399 485.125 66.9199 485.125 65.8399C485.125 64.4932 485.478 63.3199 486.185 62.3199C486.892 61.3199 487.878 60.5532 489.145 60.0199C490.412 59.4732 491.905 59.1999 493.625 59.1999C495.305 59.1999 496.792 59.4599 498.085 59.9799C499.392 60.4999 500.445 61.2399 501.245 62.1999C502.045 63.1599 502.538 64.2866 502.725 65.5799L497.805 66.4599C497.685 65.5399 497.265 64.8132 496.545 64.2799C495.838 63.7466 494.892 63.4466 493.705 63.3799C492.572 63.3132 491.658 63.4866 490.965 63.8999C490.272 64.2999 489.925 64.8666 489.925 65.5999C489.925 66.0132 490.065 66.3666 490.345 66.6599C490.625 66.9532 491.185 67.2466 492.025 67.5399C492.878 67.8332 494.145 68.1932 495.825 68.6199C497.545 69.0599 498.918 69.5666 499.945 70.1399C500.985 70.6999 501.732 71.3732 502.185 72.1599C502.652 72.9466 502.885 73.8999 502.885 75.0199C502.885 77.1932 502.092 78.8999 500.505 80.1399C498.932 81.3799 496.752 81.9999 493.965 81.9999ZM519.926 81.3999C518.499 81.6666 517.099 81.7799 515.726 81.7399C514.366 81.7132 513.146 81.4666 512.066 80.9999C510.986 80.5199 510.166 79.7666 509.606 78.7399C509.112 77.8066 508.852 76.8532 508.826 75.8799C508.799 74.9066 508.786 73.8066 508.786 72.5799V53.7999H513.586V72.2999C513.586 73.1666 513.592 73.9266 513.606 74.5799C513.632 75.2332 513.772 75.7666 514.026 76.1799C514.506 76.9799 515.272 77.4266 516.326 77.5199C517.379 77.6132 518.579 77.5599 519.926 77.3599V81.3999ZM504.866 63.5799V59.7999H519.926V63.5799H504.866ZM532.91 81.9999C530.244 81.9999 528.077 81.3999 526.41 80.1999C524.744 78.9999 523.73 77.3132 523.37 75.1399L528.29 74.3799C528.544 75.4466 529.104 76.2866 529.97 76.8999C530.837 77.5132 531.93 77.8199 533.25 77.8199C534.41 77.8199 535.304 77.5932 535.93 77.1399C536.57 76.6732 536.89 76.0399 536.89 75.2399C536.89 74.7466 536.77 74.3532 536.53 74.0599C536.304 73.7532 535.797 73.4599 535.01 73.1799C534.224 72.8999 533.017 72.5466 531.39 72.1199C529.577 71.6399 528.137 71.1266 527.07 70.5799C526.004 70.0199 525.237 69.3599 524.77 68.5999C524.304 67.8399 524.07 66.9199 524.07 65.8399C524.07 64.4932 524.424 63.3199 525.13 62.3199C525.837 61.3199 526.824 60.5532 528.09 60.0199C529.357 59.4732 530.85 59.1999 532.57 59.1999C534.25 59.1999 535.737 59.4599 537.03 59.9799C538.337 60.4999 539.39 61.2399 540.19 62.1999C540.99 63.1599 541.484 64.2866 541.67 65.5799L536.75 66.4599C536.63 65.5399 536.21 64.8132 535.49 64.2799C534.784 63.7466 533.837 63.4466 532.65 63.3799C531.517 63.3132 530.604 63.4866 529.91 63.8999C529.217 64.2999 528.87 64.8666 528.87 65.5999C528.87 66.0132 529.01 66.3666 529.29 66.6599C529.57 66.9532 530.13 67.2466 530.97 67.5399C531.824 67.8332 533.09 68.1932 534.77 68.6199C536.49 69.0599 537.864 69.5666 538.89 70.1399C539.93 70.6999 540.677 71.3732 541.13 72.1599C541.597 72.9466 541.83 73.8999 541.83 75.0199C541.83 77.1932 541.037 78.8999 539.45 80.1399C537.877 81.3799 535.697 81.9999 532.91 81.9999Z" fill="#3D3D3D"/>
<defs>
<linearGradient id="paint0_linear_69_54" x1="172.421" y1="40.3999" x2="399.103" y2="221.512" gradientUnits="userSpaceOnUse">
<stop offset="0.00972659" stop-color="#88D8FF"/>
<stop offset="1" stop-color="#0179B4"/>
</linearGradient>
</defs>
</svg>
