<svg width="634" height="82" viewBox="0 0 634 82" fill="none" xmlns="http://www.w3.org/2000/svg">
<path d="M112.891 29.3999V0.599901H124.791C125.071 0.599901 125.431 0.613234 125.871 0.639901C126.311 0.653235 126.717 0.693235 127.091 0.759902C128.757 1.01323 130.131 1.56657 131.211 2.4199C132.304 3.27323 133.111 4.35323 133.631 5.6599C134.164 6.95323 134.431 8.39323 134.431 9.9799C134.431 11.5532 134.164 12.9932 133.631 14.2999C133.097 15.5932 132.284 16.6666 131.191 17.5199C130.111 18.3732 128.744 18.9266 127.091 19.1799C126.717 19.2332 126.304 19.2732 125.851 19.2999C125.411 19.3266 125.057 19.3399 124.791 19.3399H117.711V29.3999H112.891ZM117.711 14.8399H124.591C124.857 14.8399 125.157 14.8266 125.491 14.7999C125.824 14.7732 126.131 14.7199 126.411 14.6399C127.211 14.4399 127.837 14.0866 128.291 13.5799C128.757 13.0732 129.084 12.4999 129.271 11.8599C129.471 11.2199 129.571 10.5932 129.571 9.9799C129.571 9.36657 129.471 8.7399 129.271 8.0999C129.084 7.44657 128.757 6.86657 128.291 6.3599C127.837 5.85323 127.211 5.4999 126.411 5.2999C126.131 5.2199 125.824 5.17323 125.491 5.1599C125.157 5.13323 124.857 5.1199 124.591 5.1199H117.711V14.8399ZM143.931 29.9999C142.371 29.9999 141.051 29.7066 139.971 29.1199C138.891 28.5199 138.071 27.7266 137.511 26.7399C136.964 25.7532 136.691 24.6666 136.691 23.4799C136.691 22.4399 136.864 21.5066 137.211 20.6799C137.557 19.8399 138.091 19.1199 138.811 18.5199C139.531 17.9066 140.464 17.4066 141.611 17.0199C142.477 16.7399 143.491 16.4866 144.651 16.2599C145.824 16.0332 147.091 15.8266 148.451 15.6399C149.824 15.4399 151.257 15.2266 152.751 14.9999L151.031 15.9799C151.044 14.4866 150.711 13.3866 150.031 12.6799C149.351 11.9732 148.204 11.6199 146.591 11.6199C145.617 11.6199 144.677 11.8466 143.771 12.2999C142.864 12.7532 142.231 13.5332 141.871 14.6399L137.471 13.2599C138.004 11.4332 139.017 9.96657 140.511 8.8599C142.017 7.75324 144.044 7.1999 146.591 7.1999C148.511 7.1999 150.197 7.51323 151.651 8.1399C153.117 8.76657 154.204 9.79323 154.911 11.2199C155.297 11.9799 155.531 12.7599 155.611 13.5599C155.691 14.3466 155.731 15.2066 155.731 16.1399V29.3999H151.511V24.7199L152.211 25.4799C151.237 27.0399 150.097 28.1866 148.791 28.9199C147.497 29.6399 145.877 29.9999 143.931 29.9999ZM144.891 26.1599C145.984 26.1599 146.917 25.9666 147.691 25.5799C148.464 25.1932 149.077 24.7199 149.531 24.1599C149.997 23.5999 150.311 23.0732 150.471 22.5799C150.724 21.9666 150.864 21.2666 150.891 20.4799C150.931 19.6799 150.951 19.0332 150.951 18.5399L152.431 18.9799C150.977 19.2066 149.731 19.4066 148.691 19.5799C147.651 19.7532 146.757 19.9199 146.011 20.0799C145.264 20.2266 144.604 20.3932 144.031 20.5799C143.471 20.7799 142.997 21.0132 142.611 21.2799C142.224 21.5466 141.924 21.8532 141.711 22.1999C141.511 22.5466 141.411 22.9532 141.411 23.4199C141.411 23.9532 141.544 24.4266 141.811 24.8399C142.077 25.2399 142.464 25.5599 142.971 25.7999C143.491 26.0399 144.131 26.1599 144.891 26.1599ZM173.597 29.3999C172.171 29.6666 170.771 29.7799 169.397 29.7399C168.037 29.7132 166.817 29.4666 165.737 28.9999C164.657 28.5199 163.837 27.7666 163.277 26.7399C162.784 25.8066 162.524 24.8532 162.497 23.8799C162.471 22.9066 162.457 21.8066 162.457 20.5799V1.7999H167.257V20.2999C167.257 21.1666 167.264 21.9266 167.277 22.5799C167.304 23.2332 167.444 23.7666 167.697 24.1799C168.177 24.9799 168.944 25.4266 169.997 25.5199C171.051 25.6132 172.251 25.5599 173.597 25.3599V29.3999ZM158.537 11.5799V7.7999H173.597V11.5799H158.537ZM178.642 4.5199V0.0999017H183.462V4.5199H178.642ZM178.642 29.3999V7.7999H183.462V29.3999H178.642ZM199.273 29.9999C197.086 29.9999 195.166 29.5266 193.513 28.5799C191.86 27.6332 190.566 26.3199 189.633 24.6399C188.713 22.9599 188.253 21.0266 188.253 18.8399C188.253 16.4799 188.706 14.4332 189.613 12.6999C190.52 10.9532 191.78 9.5999 193.393 8.6399C195.006 7.6799 196.873 7.1999 198.993 7.1999C201.233 7.1999 203.133 7.72657 204.693 8.7799C206.266 9.8199 207.433 11.2932 208.193 13.1999C208.953 15.1066 209.24 17.3532 209.053 19.9399H204.273V18.1799C204.26 15.8332 203.846 14.1199 203.033 13.0399C202.22 11.9599 200.94 11.4199 199.193 11.4199C197.22 11.4199 195.753 12.0332 194.793 13.2599C193.833 14.4732 193.353 16.2532 193.353 18.5999C193.353 20.7866 193.833 22.4799 194.793 23.6799C195.753 24.8799 197.153 25.4799 198.993 25.4799C200.18 25.4799 201.2 25.2199 202.053 24.6999C202.92 24.1666 203.586 23.3999 204.053 22.3999L208.813 23.8399C207.986 25.7866 206.706 27.2999 204.973 28.3799C203.253 29.4599 201.353 29.9999 199.273 29.9999ZM191.833 19.9399V16.2999H206.693V19.9399H191.833ZM227.87 29.3999V18.9999C227.87 18.3199 227.823 17.5666 227.73 16.7399C227.636 15.9132 227.416 15.1199 227.07 14.3599C226.736 13.5866 226.23 12.9532 225.55 12.4599C224.883 11.9666 223.976 11.7199 222.83 11.7199C222.216 11.7199 221.61 11.8199 221.01 12.0199C220.41 12.2199 219.863 12.5666 219.37 13.0599C218.89 13.5399 218.503 14.2066 218.21 15.0599C217.916 15.8999 217.77 16.9799 217.77 18.2999L214.91 17.0799C214.91 15.2399 215.263 13.5732 215.97 12.0799C216.69 10.5866 217.743 9.3999 219.13 8.5199C220.516 7.62657 222.223 7.1799 224.25 7.1799C225.85 7.1799 227.17 7.44657 228.21 7.9799C229.25 8.51323 230.076 9.19324 230.69 10.0199C231.303 10.8466 231.756 11.7266 232.05 12.6599C232.343 13.5932 232.53 14.4799 232.61 15.3199C232.703 16.1466 232.75 16.8199 232.75 17.3399V29.3999H227.87ZM212.89 29.3999V7.7999H217.19V14.4999H217.77V29.3999H212.89ZM250.629 29.3999C249.202 29.6666 247.802 29.7799 246.429 29.7399C245.069 29.7132 243.849 29.4666 242.769 28.9999C241.689 28.5199 240.869 27.7666 240.309 26.7399C239.815 25.8066 239.555 24.8532 239.529 23.8799C239.502 22.9066 239.489 21.8066 239.489 20.5799V1.7999H244.289V20.2999C244.289 21.1666 244.295 21.9266 244.309 22.5799C244.335 23.2332 244.475 23.7666 244.729 24.1799C245.209 24.9799 245.975 25.4266 247.029 25.5199C248.082 25.6132 249.282 25.5599 250.629 25.3599V29.3999ZM235.569 11.5799V7.7999H250.629V11.5799H235.569ZM270.201 29.3999V5.1199H260.881V0.599901H284.341V5.1199H275.021V29.3999H270.201ZM294.156 29.9999C291.969 29.9999 290.049 29.5266 288.396 28.5799C286.743 27.6332 285.449 26.3199 284.516 24.6399C283.596 22.9599 283.136 21.0266 283.136 18.8399C283.136 16.4799 283.589 14.4332 284.496 12.6999C285.403 10.9532 286.663 9.5999 288.276 8.6399C289.889 7.6799 291.756 7.1999 293.876 7.1999C296.116 7.1999 298.016 7.72657 299.576 8.7799C301.149 9.8199 302.316 11.2932 303.076 13.1999C303.836 15.1066 304.123 17.3532 303.936 19.9399H299.156V18.1799C299.143 15.8332 298.729 14.1199 297.916 13.0399C297.103 11.9599 295.823 11.4199 294.076 11.4199C292.103 11.4199 290.636 12.0332 289.676 13.2599C288.716 14.4732 288.236 16.2532 288.236 18.5999C288.236 20.7866 288.716 22.4799 289.676 23.6799C290.636 24.8799 292.036 25.4799 293.876 25.4799C295.063 25.4799 296.083 25.2199 296.936 24.6999C297.803 24.1666 298.469 23.3999 298.936 22.3999L303.696 23.8399C302.869 25.7866 301.589 27.2999 299.856 28.3799C298.136 29.4599 296.236 29.9999 294.156 29.9999ZM286.716 19.9399V16.2999H301.576V19.9399H286.716ZM316.738 29.9999C314.072 29.9999 311.905 29.3999 310.238 28.1999C308.572 26.9999 307.558 25.3132 307.198 23.1399L312.118 22.3799C312.372 23.4466 312.932 24.2866 313.798 24.8999C314.665 25.5132 315.758 25.8199 317.078 25.8199C318.238 25.8199 319.132 25.5932 319.758 25.1399C320.398 24.6732 320.718 24.0399 320.718 23.2399C320.718 22.7466 320.598 22.3532 320.358 22.0599C320.132 21.7532 319.625 21.4599 318.838 21.1799C318.052 20.8999 316.845 20.5466 315.218 20.1199C313.405 19.6399 311.965 19.1266 310.898 18.5799C309.832 18.0199 309.065 17.3599 308.598 16.5999C308.132 15.8399 307.898 14.9199 307.898 13.8399C307.898 12.4932 308.252 11.3199 308.958 10.3199C309.665 9.3199 310.652 8.55324 311.918 8.0199C313.185 7.47324 314.678 7.1999 316.398 7.1999C318.078 7.1999 319.565 7.4599 320.858 7.9799C322.165 8.4999 323.218 9.2399 324.018 10.1999C324.818 11.1599 325.312 12.2866 325.498 13.5799L320.578 14.4599C320.458 13.5399 320.038 12.8132 319.318 12.2799C318.612 11.7466 317.665 11.4466 316.478 11.3799C315.345 11.3132 314.432 11.4866 313.738 11.8999C313.045 12.2999 312.698 12.8666 312.698 13.5999C312.698 14.0132 312.838 14.3666 313.118 14.6599C313.398 14.9532 313.958 15.2466 314.798 15.5399C315.652 15.8332 316.918 16.1932 318.598 16.6199C320.318 17.0599 321.692 17.5666 322.718 18.1399C323.758 18.6999 324.505 19.3732 324.958 20.1599C325.425 20.9466 325.658 21.8999 325.658 23.0199C325.658 25.1932 324.865 26.8999 323.278 28.1399C321.705 29.3799 319.525 29.9999 316.738 29.9999ZM342.699 29.3999C341.272 29.6666 339.872 29.7799 338.499 29.7399C337.139 29.7132 335.919 29.4666 334.839 28.9999C333.759 28.5199 332.939 27.7666 332.379 26.7399C331.886 25.8066 331.626 24.8532 331.599 23.8799C331.572 22.9066 331.559 21.8066 331.559 20.5799V1.7999H336.359V20.2999C336.359 21.1666 336.366 21.9266 336.379 22.5799C336.406 23.2332 336.546 23.7666 336.799 24.1799C337.279 24.9799 338.046 25.4266 339.099 25.5199C340.152 25.6132 341.352 25.5599 342.699 25.3599V29.3999ZM327.639 11.5799V7.7999H342.699V11.5799H327.639ZM347.744 4.5199V0.0999017H352.564V4.5199H347.744ZM347.744 29.3999V7.7999H352.564V29.3999H347.744ZM384.495 29.3999V16.2799C384.495 14.7999 384.128 13.6466 383.395 12.8199C382.661 11.9799 381.668 11.5599 380.415 11.5599C379.641 11.5599 378.948 11.7399 378.335 12.0999C377.721 12.4466 377.235 12.9666 376.875 13.6599C376.515 14.3399 376.335 15.1532 376.335 16.0999L374.195 14.8399C374.181 13.3466 374.515 12.0332 375.195 10.8999C375.888 9.75323 376.821 8.8599 377.995 8.2199C379.168 7.5799 380.475 7.2599 381.915 7.2599C384.301 7.2599 386.128 7.9799 387.395 9.4199C388.675 10.8466 389.315 12.7266 389.315 15.0599V29.3999H384.495ZM358.515 29.3999V7.7999H362.775V14.4999H363.375V29.3999H358.515ZM371.535 29.3999V16.3399C371.535 14.8332 371.168 13.6599 370.435 12.8199C369.701 11.9799 368.701 11.5599 367.435 11.5599C366.208 11.5599 365.221 11.9799 364.475 12.8199C363.741 13.6599 363.375 14.7532 363.375 16.0999L361.215 14.6599C361.215 13.2599 361.561 11.9999 362.255 10.8799C362.948 9.7599 363.881 8.8799 365.055 8.2399C366.241 7.58657 367.568 7.2599 369.035 7.2599C370.648 7.2599 371.995 7.60657 373.075 8.2999C374.168 8.9799 374.981 9.91323 375.515 11.0999C376.061 12.2732 376.335 13.5999 376.335 15.0799V29.3999H371.535ZM403.72 29.9999C401.56 29.9999 399.673 29.5132 398.06 28.5399C396.446 27.5666 395.193 26.2266 394.3 24.5199C393.42 22.7999 392.98 20.8266 392.98 18.5999C392.98 16.3332 393.433 14.3466 394.34 12.6399C395.246 10.9332 396.506 9.5999 398.12 8.6399C399.733 7.6799 401.6 7.1999 403.72 7.1999C405.893 7.1999 407.786 7.68657 409.4 8.6599C411.013 9.63323 412.266 10.9799 413.16 12.6999C414.053 14.4066 414.5 16.3732 414.5 18.5999C414.5 20.8399 414.046 22.8199 413.14 24.5399C412.246 26.2466 410.993 27.5866 409.38 28.5599C407.766 29.5199 405.88 29.9999 403.72 29.9999ZM403.72 25.4799C405.64 25.4799 407.066 24.8399 408 23.5599C408.933 22.2799 409.4 20.6266 409.4 18.5999C409.4 16.5066 408.926 14.8399 407.98 13.5999C407.033 12.3466 405.613 11.7199 403.72 11.7199C402.426 11.7199 401.36 12.0132 400.52 12.5999C399.693 13.1732 399.08 13.9799 398.68 15.0199C398.28 16.0466 398.08 17.2399 398.08 18.5999C398.08 20.6932 398.553 22.3666 399.5 23.6199C400.46 24.8599 401.866 25.4799 403.72 25.4799ZM433.846 29.3999V18.9999C433.846 18.3199 433.8 17.5666 433.706 16.7399C433.613 15.9132 433.393 15.1199 433.046 14.3599C432.713 13.5866 432.206 12.9532 431.526 12.4599C430.86 11.9666 429.953 11.7199 428.806 11.7199C428.193 11.7199 427.586 11.8199 426.986 12.0199C426.386 12.2199 425.84 12.5666 425.346 13.0599C424.866 13.5399 424.48 14.2066 424.186 15.0599C423.893 15.8999 423.746 16.9799 423.746 18.2999L420.886 17.0799C420.886 15.2399 421.24 13.5732 421.946 12.0799C422.666 10.5866 423.72 9.3999 425.106 8.5199C426.493 7.62657 428.2 7.1799 430.226 7.1799C431.826 7.1799 433.146 7.44657 434.186 7.9799C435.226 8.51323 436.053 9.19324 436.666 10.0199C437.28 10.8466 437.733 11.7266 438.026 12.6599C438.32 13.5932 438.506 14.4799 438.586 15.3199C438.68 16.1466 438.726 16.8199 438.726 17.3399V29.3999H433.846ZM418.866 29.3999V7.7999H423.166V14.4999H423.746V29.3999H418.866ZM444.345 4.5199V0.0999017H449.165V4.5199H444.345ZM444.345 29.3999V7.7999H449.165V29.3999H444.345ZM461.196 29.9999C459.636 29.9999 458.316 29.7066 457.236 29.1199C456.156 28.5199 455.336 27.7266 454.776 26.7399C454.23 25.7532 453.956 24.6666 453.956 23.4799C453.956 22.4399 454.13 21.5066 454.476 20.6799C454.823 19.8399 455.356 19.1199 456.076 18.5199C456.796 17.9066 457.73 17.4066 458.876 17.0199C459.743 16.7399 460.756 16.4866 461.916 16.2599C463.09 16.0332 464.356 15.8266 465.716 15.6399C467.09 15.4399 468.523 15.2266 470.016 14.9999L468.296 15.9799C468.31 14.4866 467.976 13.3866 467.296 12.6799C466.616 11.9732 465.47 11.6199 463.856 11.6199C462.883 11.6199 461.943 11.8466 461.036 12.2999C460.13 12.7532 459.496 13.5332 459.136 14.6399L454.736 13.2599C455.27 11.4332 456.283 9.96657 457.776 8.8599C459.283 7.75324 461.31 7.1999 463.856 7.1999C465.776 7.1999 467.463 7.51323 468.916 8.1399C470.383 8.76657 471.47 9.79323 472.176 11.2199C472.563 11.9799 472.796 12.7599 472.876 13.5599C472.956 14.3466 472.996 15.2066 472.996 16.1399V29.3999H468.776V24.7199L469.476 25.4799C468.503 27.0399 467.363 28.1866 466.056 28.9199C464.763 29.6399 463.143 29.9999 461.196 29.9999ZM462.156 26.1599C463.25 26.1599 464.183 25.9666 464.956 25.5799C465.73 25.1932 466.343 24.7199 466.796 24.1599C467.263 23.5999 467.576 23.0732 467.736 22.5799C467.99 21.9666 468.13 21.2666 468.156 20.4799C468.196 19.6799 468.216 19.0332 468.216 18.5399L469.696 18.9799C468.243 19.2066 466.996 19.4066 465.956 19.5799C464.916 19.7532 464.023 19.9199 463.276 20.0799C462.53 20.2266 461.87 20.3932 461.296 20.5799C460.736 20.7799 460.263 21.0132 459.876 21.2799C459.49 21.5466 459.19 21.8532 458.976 22.1999C458.776 22.5466 458.676 22.9532 458.676 23.4199C458.676 23.9532 458.81 24.4266 459.076 24.8399C459.343 25.2399 459.73 25.5599 460.236 25.7999C460.756 26.0399 461.396 26.1599 462.156 26.1599ZM478.603 29.3999V-9.82285e-05H483.423V29.3999H478.603ZM497.754 29.9999C495.087 29.9999 492.921 29.3999 491.254 28.1999C489.587 26.9999 488.574 25.3132 488.214 23.1399L493.134 22.3799C493.387 23.4466 493.947 24.2866 494.814 24.8999C495.681 25.5132 496.774 25.8199 498.094 25.8199C499.254 25.8199 500.147 25.5932 500.774 25.1399C501.414 24.6732 501.734 24.0399 501.734 23.2399C501.734 22.7466 501.614 22.3532 501.374 22.0599C501.147 21.7532 500.641 21.4599 499.854 21.1799C499.067 20.8999 497.861 20.5466 496.234 20.1199C494.421 19.6399 492.981 19.1266 491.914 18.5799C490.847 18.0199 490.081 17.3599 489.614 16.5999C489.147 15.8399 488.914 14.9199 488.914 13.8399C488.914 12.4932 489.267 11.3199 489.974 10.3199C490.681 9.3199 491.667 8.55324 492.934 8.0199C494.201 7.47324 495.694 7.1999 497.414 7.1999C499.094 7.1999 500.581 7.4599 501.874 7.9799C503.181 8.4999 504.234 9.2399 505.034 10.1999C505.834 11.1599 506.327 12.2866 506.514 13.5799L501.594 14.4599C501.474 13.5399 501.054 12.8132 500.334 12.2799C499.627 11.7466 498.681 11.4466 497.494 11.3799C496.361 11.3132 495.447 11.4866 494.754 11.8999C494.061 12.2999 493.714 12.8666 493.714 13.5999C493.714 14.0132 493.854 14.3666 494.134 14.6599C494.414 14.9532 494.974 15.2466 495.814 15.5399C496.667 15.8332 497.934 16.1932 499.614 16.6199C501.334 17.0599 502.707 17.5666 503.734 18.1399C504.774 18.6999 505.521 19.3732 505.974 20.1599C506.441 20.9466 506.674 21.8999 506.674 23.0199C506.674 25.1932 505.881 26.8999 504.294 28.1399C502.721 29.3799 500.541 29.9999 497.754 29.9999ZM512.655 26.7999V21.8599H517.595V26.7999H512.655ZM512.695 15.3399V10.3999H517.635V15.3399H512.695Z" fill="url(#paint0_linear_53_254)"/>
<path d="M-4.88162e-05 81.3999V52.5999H4.81995V64.7199H18.46V52.5999H23.26V81.3999H18.46V69.2399H4.81995V81.3999H-4.88162e-05ZM38.6871 81.9999C36.5005 81.9999 34.5805 81.5266 32.9271 80.5799C31.2738 79.6332 29.9805 78.3199 29.0471 76.6399C28.1271 74.9599 27.6671 73.0266 27.6671 70.8399C27.6671 68.4799 28.1205 66.4332 29.0271 64.6999C29.9338 62.9532 31.1938 61.5999 32.8071 60.6399C34.4205 59.6799 36.2871 59.1999 38.4071 59.1999C40.6471 59.1999 42.5471 59.7266 44.1071 60.7799C45.6805 61.8199 46.8471 63.2932 47.6071 65.1999C48.3671 67.1066 48.6538 69.3532 48.4671 71.9399H43.6871V70.1799C43.6738 67.8332 43.2605 66.1199 42.4471 65.0399C41.6338 63.9599 40.3538 63.4199 38.6071 63.4199C36.6338 63.4199 35.1671 64.0332 34.2071 65.2599C33.2471 66.4732 32.7671 68.2532 32.7671 70.5999C32.7671 72.7866 33.2471 74.4799 34.2071 75.6799C35.1671 76.8799 36.5671 77.4799 38.4071 77.4799C39.5938 77.4799 40.6138 77.2199 41.4671 76.6999C42.3338 76.1666 43.0005 75.3999 43.4671 74.3999L48.2271 75.8399C47.4005 77.7866 46.1205 79.2999 44.3871 80.3799C42.6671 81.4599 40.7671 81.9999 38.6871 81.9999ZM31.2471 71.9399V68.2999H46.1071V71.9399H31.2471ZM58.579 81.9999C57.019 81.9999 55.699 81.7066 54.619 81.1199C53.539 80.5199 52.719 79.7266 52.159 78.7399C51.6123 77.7532 51.339 76.6666 51.339 75.4799C51.339 74.4399 51.5123 73.5066 51.859 72.6799C52.2057 71.8399 52.739 71.1199 53.459 70.5199C54.179 69.9066 55.1123 69.4066 56.259 69.0199C57.1257 68.7399 58.139 68.4866 59.299 68.2599C60.4723 68.0332 61.739 67.8266 63.099 67.6399C64.4723 67.4399 65.9057 67.2266 67.399 66.9999L65.679 67.9799C65.6923 66.4866 65.359 65.3866 64.679 64.6799C63.999 63.9732 62.8523 63.6199 61.239 63.6199C60.2657 63.6199 59.3257 63.8466 58.419 64.2999C57.5123 64.7532 56.879 65.5332 56.519 66.6399L52.119 65.2599C52.6523 63.4332 53.6657 61.9666 55.159 60.8599C56.6657 59.7532 58.6923 59.1999 61.239 59.1999C63.159 59.1999 64.8457 59.5132 66.299 60.1399C67.7657 60.7666 68.8523 61.7932 69.559 63.2199C69.9457 63.9799 70.179 64.7599 70.259 65.5599C70.339 66.3466 70.379 67.2066 70.379 68.1399V81.3999H66.159V76.7199L66.859 77.4799C65.8857 79.0399 64.7457 80.1866 63.439 80.9199C62.1457 81.6399 60.5257 81.9999 58.579 81.9999ZM59.539 78.1599C60.6323 78.1599 61.5657 77.9666 62.339 77.5799C63.1123 77.1932 63.7257 76.7199 64.179 76.1599C64.6457 75.5999 64.959 75.0732 65.119 74.5799C65.3723 73.9666 65.5123 73.2666 65.539 72.4799C65.579 71.6799 65.599 71.0332 65.599 70.5399L67.079 70.9799C65.6257 71.2066 64.379 71.4066 63.339 71.5799C62.299 71.7532 61.4057 71.9199 60.659 72.0799C59.9123 72.2266 59.2523 72.3932 58.679 72.5799C58.119 72.7799 57.6457 73.0132 57.259 73.2799C56.8723 73.5466 56.5723 73.8532 56.359 74.1999C56.159 74.5466 56.059 74.9532 56.059 75.4199C56.059 75.9532 56.1923 76.4266 56.459 76.8399C56.7257 77.2399 57.1123 77.5599 57.619 77.7999C58.139 78.0399 58.779 78.1599 59.539 78.1599ZM75.5859 81.3999V59.7999H79.8459V65.0599L79.3259 64.3799C79.5926 63.6599 79.9459 63.0066 80.3859 62.4199C80.8392 61.8199 81.3792 61.3266 82.0059 60.9399C82.5392 60.5799 83.1259 60.2999 83.7659 60.0999C84.4192 59.8866 85.0859 59.7599 85.7659 59.7199C86.4459 59.6666 87.1059 59.6932 87.7459 59.7999V64.2999C87.1059 64.1132 86.3659 64.0532 85.5259 64.1199C84.6992 64.1866 83.9526 64.4199 83.2859 64.8199C82.6192 65.1799 82.0726 65.6399 81.6459 66.1999C81.2326 66.7599 80.9259 67.3999 80.7259 68.1199C80.5259 68.8266 80.4259 69.5932 80.4259 70.4199V81.3999H75.5859ZM101.45 81.3999V59.4599C101.45 58.9132 101.47 58.3132 101.51 57.6599C101.55 56.9932 101.664 56.3332 101.85 55.6799C102.037 55.0266 102.377 54.4332 102.87 53.8999C103.484 53.2199 104.144 52.7532 104.85 52.4999C105.57 52.2332 106.277 52.0866 106.97 52.0599C107.664 52.0199 108.27 51.9999 108.79 51.9999H111.49V55.9199H108.99C108.07 55.9199 107.384 56.1532 106.93 56.6199C106.49 57.0732 106.27 57.6732 106.27 58.4199V81.3999H101.45ZM97.9703 63.5799V59.7999H111.49V63.5799H97.9703ZM114.687 81.3999V59.7999H118.947V65.0599L118.427 64.3799C118.694 63.6599 119.047 63.0066 119.487 62.4199C119.941 61.8199 120.481 61.3266 121.107 60.9399C121.641 60.5799 122.227 60.2999 122.867 60.0999C123.521 59.8866 124.187 59.7599 124.867 59.7199C125.547 59.6666 126.207 59.6932 126.847 59.7999V64.2999C126.207 64.1132 125.467 64.0532 124.627 64.1199C123.801 64.1866 123.054 64.4199 122.387 64.8199C121.721 65.1799 121.174 65.6399 120.747 66.1999C120.334 66.7599 120.027 67.3999 119.827 68.1199C119.627 68.8266 119.527 69.5932 119.527 70.4199V81.3999H114.687ZM139.813 81.9999C137.653 81.9999 135.767 81.5132 134.153 80.5399C132.54 79.5666 131.287 78.2266 130.393 76.5199C129.513 74.7999 129.073 72.8266 129.073 70.5999C129.073 68.3332 129.527 66.3466 130.433 64.6399C131.34 62.9332 132.6 61.5999 134.213 60.6399C135.827 59.6799 137.693 59.1999 139.813 59.1999C141.987 59.1999 143.88 59.6866 145.493 60.6599C147.107 61.6332 148.36 62.9799 149.253 64.6999C150.147 66.4066 150.593 68.3732 150.593 70.5999C150.593 72.8399 150.14 74.8199 149.233 76.5399C148.34 78.2466 147.087 79.5866 145.473 80.5599C143.86 81.5199 141.973 81.9999 139.813 81.9999ZM139.813 77.4799C141.733 77.4799 143.16 76.8399 144.093 75.5599C145.027 74.2799 145.493 72.6266 145.493 70.5999C145.493 68.5066 145.02 66.8399 144.073 65.5999C143.127 64.3466 141.707 63.7199 139.813 63.7199C138.52 63.7199 137.453 64.0132 136.613 64.5999C135.787 65.1732 135.173 65.9799 134.773 67.0199C134.373 68.0466 134.173 69.2399 134.173 70.5999C134.173 72.6932 134.647 74.3666 135.593 75.6199C136.553 76.8599 137.96 77.4799 139.813 77.4799ZM180.94 81.3999V68.2799C180.94 66.7999 180.573 65.6466 179.84 64.8199C179.107 63.9799 178.113 63.5599 176.86 63.5599C176.087 63.5599 175.393 63.7399 174.78 64.0999C174.167 64.4466 173.68 64.9666 173.32 65.6599C172.96 66.3399 172.78 67.1532 172.78 68.0999L170.64 66.8399C170.627 65.3466 170.96 64.0332 171.64 62.8999C172.333 61.7532 173.267 60.8599 174.44 60.2199C175.613 59.5799 176.92 59.2599 178.36 59.2599C180.747 59.2599 182.573 59.9799 183.84 61.4199C185.12 62.8466 185.76 64.7266 185.76 67.0599V81.3999H180.94ZM154.96 81.3999V59.7999H159.22V66.4999H159.82V81.3999H154.96ZM167.98 81.3999V68.3399C167.98 66.8332 167.613 65.6599 166.88 64.8199C166.147 63.9799 165.147 63.5599 163.88 63.5599C162.653 63.5599 161.667 63.9799 160.92 64.8199C160.187 65.6599 159.82 66.7532 159.82 68.0999L157.66 66.6599C157.66 65.2599 158.007 63.9999 158.7 62.8799C159.393 61.7599 160.327 60.8799 161.5 60.2399C162.687 59.5866 164.013 59.2599 165.48 59.2599C167.093 59.2599 168.44 59.6066 169.52 60.2999C170.613 60.9799 171.427 61.9132 171.96 63.0999C172.507 64.2732 172.78 65.5999 172.78 67.0799V81.3999H167.98ZM205.904 81.3999V57.1199H196.584V52.5999H220.044V57.1199H210.724V81.3999H205.904ZM238.182 81.3999V70.9999C238.182 70.3199 238.135 69.5666 238.042 68.7399C237.949 67.9132 237.729 67.1199 237.382 66.3599C237.049 65.5866 236.542 64.9532 235.862 64.4599C235.195 63.9666 234.289 63.7199 233.142 63.7199C232.529 63.7199 231.922 63.8199 231.322 64.0199C230.722 64.2199 230.175 64.5666 229.682 65.0599C229.202 65.5399 228.815 66.2066 228.522 67.0599C228.229 67.8999 228.082 68.9799 228.082 70.2999L225.222 69.0799C225.222 67.2399 225.575 65.5732 226.282 64.0799C227.002 62.5866 228.055 61.3999 229.442 60.5199C230.829 59.6266 232.535 59.1799 234.562 59.1799C236.162 59.1799 237.482 59.4466 238.522 59.9799C239.562 60.5132 240.389 61.1932 241.002 62.0199C241.615 62.8466 242.069 63.7266 242.362 64.6599C242.655 65.5932 242.842 66.4799 242.922 67.3199C243.015 68.1466 243.062 68.8199 243.062 69.3399V81.3999H238.182ZM223.202 81.3999V52.5999H227.502V67.7599H228.082V81.3999H223.202ZM257.821 81.9999C255.661 81.9999 253.775 81.5132 252.161 80.5399C250.548 79.5666 249.295 78.2266 248.401 76.5199C247.521 74.7999 247.081 72.8266 247.081 70.5999C247.081 68.3332 247.535 66.3466 248.441 64.6399C249.348 62.9332 250.608 61.5999 252.221 60.6399C253.835 59.6799 255.701 59.1999 257.821 59.1999C259.995 59.1999 261.888 59.6866 263.501 60.6599C265.115 61.6332 266.368 62.9799 267.261 64.6999C268.155 66.4066 268.601 68.3732 268.601 70.5999C268.601 72.8399 268.148 74.8199 267.241 76.5399C266.348 78.2466 265.095 79.5866 263.481 80.5599C261.868 81.5199 259.981 81.9999 257.821 81.9999ZM257.821 77.4799C259.741 77.4799 261.168 76.8399 262.101 75.5599C263.035 74.2799 263.501 72.6266 263.501 70.5999C263.501 68.5066 263.028 66.8399 262.081 65.5999C261.135 64.3466 259.715 63.7199 257.821 63.7199C256.528 63.7199 255.461 64.0132 254.621 64.5999C253.795 65.1732 253.181 65.9799 252.781 67.0199C252.381 68.0466 252.181 69.2399 252.181 70.5999C252.181 72.6932 252.655 74.3666 253.601 75.6199C254.561 76.8599 255.968 77.4799 257.821 77.4799ZM280.84 81.9999C278.173 81.9999 276.007 81.3999 274.34 80.1999C272.673 78.9999 271.66 77.3132 271.3 75.1399L276.22 74.3799C276.473 75.4466 277.033 76.2866 277.9 76.8999C278.767 77.5132 279.86 77.8199 281.18 77.8199C282.34 77.8199 283.233 77.5932 283.86 77.1399C284.5 76.6732 284.82 76.0399 284.82 75.2399C284.82 74.7466 284.7 74.3532 284.46 74.0599C284.233 73.7532 283.727 73.4599 282.94 73.1799C282.153 72.8999 280.947 72.5466 279.32 72.1199C277.507 71.6399 276.067 71.1266 275 70.5799C273.933 70.0199 273.167 69.3599 272.7 68.5999C272.233 67.8399 272 66.9199 272 65.8399C272 64.4932 272.353 63.3199 273.06 62.3199C273.767 61.3199 274.753 60.5532 276.02 60.0199C277.287 59.4732 278.78 59.1999 280.5 59.1999C282.18 59.1999 283.667 59.4599 284.96 59.9799C286.267 60.4999 287.32 61.2399 288.12 62.1999C288.92 63.1599 289.413 64.2866 289.6 65.5799L284.68 66.4599C284.56 65.5399 284.14 64.8132 283.42 64.2799C282.713 63.7466 281.767 63.4466 280.58 63.3799C279.447 63.3132 278.533 63.4866 277.84 63.8999C277.147 64.2999 276.8 64.8666 276.8 65.5999C276.8 66.0132 276.94 66.3666 277.22 66.6599C277.5 66.9532 278.06 67.2466 278.9 67.5399C279.753 67.8332 281.02 68.1932 282.7 68.6199C284.42 69.0599 285.793 69.5666 286.82 70.1399C287.86 70.6999 288.607 71.3732 289.06 72.1599C289.527 72.9466 289.76 73.8999 289.76 75.0199C289.76 77.1932 288.967 78.8999 287.38 80.1399C285.807 81.3799 283.627 81.9999 280.84 81.9999ZM303.961 81.9999C301.774 81.9999 299.854 81.5266 298.201 80.5799C296.547 79.6332 295.254 78.3199 294.321 76.6399C293.401 74.9599 292.941 73.0266 292.941 70.8399C292.941 68.4799 293.394 66.4332 294.301 64.6999C295.207 62.9532 296.467 61.5999 298.081 60.6399C299.694 59.6799 301.561 59.1999 303.681 59.1999C305.921 59.1999 307.821 59.7266 309.381 60.7799C310.954 61.8199 312.121 63.2932 312.881 65.1999C313.641 67.1066 313.927 69.3532 313.741 71.9399H308.961V70.1799C308.947 67.8332 308.534 66.1199 307.721 65.0399C306.907 63.9599 305.627 63.4199 303.881 63.4199C301.907 63.4199 300.441 64.0332 299.481 65.2599C298.521 66.4732 298.041 68.2532 298.041 70.5999C298.041 72.7866 298.521 74.4799 299.481 75.6799C300.441 76.8799 301.841 77.4799 303.681 77.4799C304.867 77.4799 305.887 77.2199 306.741 76.6999C307.607 76.1666 308.274 75.3999 308.741 74.3999L313.501 75.8399C312.674 77.7866 311.394 79.2999 309.661 80.3799C307.941 81.4599 306.041 81.9999 303.961 81.9999ZM296.521 71.9399V68.2999H311.381V71.9399H296.521ZM332.291 81.3999L323.871 52.5999H328.931L334.671 73.3999L340.391 52.6399L345.451 52.5999L351.191 73.3999L356.911 52.5999H361.971L353.571 81.3999H348.811L342.911 60.9199L337.051 81.3999H332.291ZM372.672 81.9999C370.485 81.9999 368.565 81.5266 366.912 80.5799C365.258 79.6332 363.965 78.3199 363.032 76.6399C362.112 74.9599 361.652 73.0266 361.652 70.8399C361.652 68.4799 362.105 66.4332 363.012 64.6999C363.918 62.9532 365.178 61.5999 366.792 60.6399C368.405 59.6799 370.272 59.1999 372.392 59.1999C374.632 59.1999 376.532 59.7266 378.092 60.7799C379.665 61.8199 380.832 63.2932 381.592 65.1999C382.352 67.1066 382.638 69.3532 382.452 71.9399H377.672V70.1799C377.658 67.8332 377.245 66.1199 376.432 65.0399C375.618 63.9599 374.338 63.4199 372.592 63.4199C370.618 63.4199 369.152 64.0332 368.192 65.2599C367.232 66.4732 366.752 68.2532 366.752 70.5999C366.752 72.7866 367.232 74.4799 368.192 75.6799C369.152 76.8799 370.552 77.4799 372.392 77.4799C373.578 77.4799 374.598 77.2199 375.452 76.6999C376.318 76.1666 376.985 75.3999 377.452 74.3999L382.212 75.8399C381.385 77.7866 380.105 79.2999 378.372 80.3799C376.652 81.4599 374.752 81.9999 372.672 81.9999ZM365.232 71.9399V68.2999H380.092V71.9399H365.232ZM387.514 62.8399L387.794 60.7599C388.407 60.8132 388.894 60.7132 389.254 60.4599C389.614 60.1932 389.854 59.8266 389.974 59.3599C390.107 58.8799 390.141 58.3399 390.074 57.7399H387.514V52.5999H392.454V57.9399C392.454 59.6866 392.041 61.0066 391.214 61.8999C390.387 62.7932 389.154 63.1066 387.514 62.8399ZM404.121 81.3999L396.281 59.7999H401.101L406.541 75.4599L411.961 59.7999H416.801L408.961 81.3999H404.121ZM429.429 81.9999C427.243 81.9999 425.323 81.5266 423.669 80.5799C422.016 79.6332 420.723 78.3199 419.789 76.6399C418.869 74.9599 418.409 73.0266 418.409 70.8399C418.409 68.4799 418.863 66.4332 419.769 64.6999C420.676 62.9532 421.936 61.5999 423.549 60.6399C425.163 59.6799 427.029 59.1999 429.149 59.1999C431.389 59.1999 433.289 59.7266 434.849 60.7799C436.423 61.8199 437.589 63.2932 438.349 65.1999C439.109 67.1066 439.396 69.3532 439.209 71.9399H434.429V70.1799C434.416 67.8332 434.003 66.1199 433.189 65.0399C432.376 63.9599 431.096 63.4199 429.349 63.4199C427.376 63.4199 425.909 64.0332 424.949 65.2599C423.989 66.4732 423.509 68.2532 423.509 70.5999C423.509 72.7866 423.989 74.4799 424.949 75.6799C425.909 76.8799 427.309 77.4799 429.149 77.4799C430.336 77.4799 431.356 77.2199 432.209 76.6999C433.076 76.1666 433.743 75.3999 434.209 74.3999L438.969 75.8399C438.143 77.7866 436.863 79.2999 435.129 80.3799C433.409 81.4599 431.509 81.9999 429.429 81.9999ZM421.989 71.9399V68.2999H436.849V71.9399H421.989ZM463.86 81.9999C460.98 81.9999 458.513 81.3732 456.46 80.1199C454.406 78.8532 452.826 77.0932 451.72 74.8399C450.626 72.5866 450.08 69.9732 450.08 66.9999C450.08 64.0266 450.626 61.4132 451.72 59.1599C452.826 56.9066 454.406 55.1532 456.46 53.8999C458.513 52.6332 460.98 51.9999 463.86 51.9999C467.18 51.9999 469.946 52.8332 472.16 54.4999C474.373 56.1532 475.926 58.3866 476.82 61.1999L471.96 62.5399C471.4 60.6599 470.446 59.1932 469.1 58.1399C467.753 57.0732 466.006 56.5399 463.86 56.5399C461.926 56.5399 460.313 56.9732 459.02 57.8399C457.74 58.7066 456.773 59.9266 456.12 61.4999C455.48 63.0599 455.153 64.8932 455.14 66.9999C455.14 69.1066 455.46 70.9466 456.1 72.5199C456.753 74.0799 457.726 75.2932 459.02 76.1599C460.313 77.0266 461.926 77.4599 463.86 77.4599C466.006 77.4599 467.753 76.9266 469.1 75.8599C470.446 74.7932 471.4 73.3266 471.96 71.4599L476.82 72.7999C475.926 75.6132 474.373 77.8532 472.16 79.5199C469.946 81.1732 467.18 81.9999 463.86 81.9999ZM487.251 81.9999C485.691 81.9999 484.371 81.7066 483.291 81.1199C482.211 80.5199 481.391 79.7266 480.831 78.7399C480.284 77.7532 480.011 76.6666 480.011 75.4799C480.011 74.4399 480.184 73.5066 480.531 72.6799C480.878 71.8399 481.411 71.1199 482.131 70.5199C482.851 69.9066 483.784 69.4066 484.931 69.0199C485.798 68.7399 486.811 68.4866 487.971 68.2599C489.144 68.0332 490.411 67.8266 491.771 67.6399C493.144 67.4399 494.578 67.2266 496.071 66.9999L494.351 67.9799C494.364 66.4866 494.031 65.3866 493.351 64.6799C492.671 63.9732 491.524 63.6199 489.911 63.6199C488.938 63.6199 487.998 63.8466 487.091 64.2999C486.184 64.7532 485.551 65.5332 485.191 66.6399L480.791 65.2599C481.324 63.4332 482.338 61.9666 483.831 60.8599C485.338 59.7532 487.364 59.1999 489.911 59.1999C491.831 59.1999 493.518 59.5132 494.971 60.1399C496.438 60.7666 497.524 61.7932 498.231 63.2199C498.618 63.9799 498.851 64.7599 498.931 65.5599C499.011 66.3466 499.051 67.2066 499.051 68.1399V81.3999H494.831V76.7199L495.531 77.4799C494.558 79.0399 493.418 80.1866 492.111 80.9199C490.818 81.6399 489.198 81.9999 487.251 81.9999ZM488.211 78.1599C489.304 78.1599 490.238 77.9666 491.011 77.5799C491.784 77.1932 492.398 76.7199 492.851 76.1599C493.318 75.5999 493.631 75.0732 493.791 74.5799C494.044 73.9666 494.184 73.2666 494.211 72.4799C494.251 71.6799 494.271 71.0332 494.271 70.5399L495.751 70.9799C494.298 71.2066 493.051 71.4066 492.011 71.5799C490.971 71.7532 490.078 71.9199 489.331 72.0799C488.584 72.2266 487.924 72.3932 487.351 72.5799C486.791 72.7799 486.318 73.0132 485.931 73.2799C485.544 73.5466 485.244 73.8532 485.031 74.1999C484.831 74.5466 484.731 74.9532 484.731 75.4199C484.731 75.9532 484.864 76.4266 485.131 76.8399C485.398 77.2399 485.784 77.5599 486.291 77.7999C486.811 78.0399 487.451 78.1599 488.211 78.1599ZM504.258 81.3999V59.7999H508.518V65.0599L507.998 64.3799C508.264 63.6599 508.618 63.0066 509.058 62.4199C509.511 61.8199 510.051 61.3266 510.678 60.9399C511.211 60.5799 511.798 60.2999 512.438 60.0999C513.091 59.8866 513.758 59.7599 514.438 59.7199C515.118 59.6666 515.778 59.6932 516.418 59.7999V64.2999C515.778 64.1132 515.038 64.0532 514.198 64.1199C513.371 64.1866 512.624 64.4199 511.958 64.8199C511.291 65.1799 510.744 65.6399 510.318 66.1999C509.904 66.7599 509.598 67.3999 509.398 68.1199C509.198 68.8266 509.098 69.5932 509.098 70.4199V81.3999H504.258ZM529.664 81.9999C527.477 81.9999 525.557 81.5266 523.904 80.5799C522.25 79.6332 520.957 78.3199 520.024 76.6399C519.104 74.9599 518.644 73.0266 518.644 70.8399C518.644 68.4799 519.097 66.4332 520.004 64.6999C520.91 62.9532 522.17 61.5999 523.784 60.6399C525.397 59.6799 527.264 59.1999 529.384 59.1999C531.624 59.1999 533.524 59.7266 535.084 60.7799C536.657 61.8199 537.824 63.2932 538.584 65.1999C539.344 67.1066 539.63 69.3532 539.444 71.9399H534.664V70.1799C534.65 67.8332 534.237 66.1199 533.424 65.0399C532.61 63.9599 531.33 63.4199 529.584 63.4199C527.61 63.4199 526.144 64.0332 525.184 65.2599C524.224 66.4732 523.744 68.2532 523.744 70.5999C523.744 72.7866 524.224 74.4799 525.184 75.6799C526.144 76.8799 527.544 77.4799 529.384 77.4799C530.57 77.4799 531.59 77.2199 532.444 76.6999C533.31 76.1666 533.977 75.3999 534.444 74.3999L539.204 75.8399C538.377 77.7866 537.097 79.2999 535.364 80.3799C533.644 81.4599 531.744 81.9999 529.664 81.9999ZM522.224 71.9399V68.2999H537.084V71.9399H522.224ZM552.566 81.9999C550.58 81.9999 548.846 81.4999 547.366 80.4999C545.886 79.4999 544.74 78.1399 543.926 76.4199C543.113 74.6999 542.706 72.7599 542.706 70.5999C542.706 68.4132 543.113 66.4666 543.926 64.7599C544.753 63.0399 545.92 61.6866 547.426 60.6999C548.933 59.6999 550.706 59.1999 552.746 59.1999C554.8 59.1999 556.52 59.6999 557.906 60.6999C559.306 61.6866 560.366 63.0399 561.086 64.7599C561.806 66.4799 562.166 68.4266 562.166 70.5999C562.166 72.7466 561.806 74.6866 561.086 76.4199C560.366 78.1399 559.293 79.4999 557.866 80.4999C556.44 81.4999 554.673 81.9999 552.566 81.9999ZM553.306 77.6799C554.6 77.6799 555.64 77.3866 556.426 76.7999C557.226 76.1999 557.806 75.3666 558.166 74.2999C558.54 73.2332 558.726 71.9999 558.726 70.5999C558.726 69.1866 558.54 67.9532 558.166 66.8999C557.806 65.8332 557.24 65.0066 556.466 64.4199C555.693 63.8199 554.693 63.5199 553.466 63.5199C552.173 63.5199 551.106 63.8399 550.266 64.4799C549.426 65.1066 548.806 65.9599 548.406 67.0399C548.006 68.1066 547.806 69.2932 547.806 70.5999C547.806 71.9199 548 73.1199 548.386 74.1999C548.786 75.2666 549.393 76.1132 550.206 76.7399C551.02 77.3666 552.053 77.6799 553.306 77.6799ZM558.726 81.3999V66.2399H558.126V52.5999H562.986V81.3999H558.726ZM576.602 81.3999V52.5999H593.942V57.4199H581.422V64.5999H591.542V69.3999H581.422V81.3999H576.602ZM606.493 81.9999C604.333 81.9999 602.446 81.5132 600.833 80.5399C599.22 79.5666 597.966 78.2266 597.073 76.5199C596.193 74.7999 595.753 72.8266 595.753 70.5999C595.753 68.3332 596.206 66.3466 597.113 64.6399C598.02 62.9332 599.28 61.5999 600.893 60.6399C602.506 59.6799 604.373 59.1999 606.493 59.1999C608.666 59.1999 610.56 59.6866 612.173 60.6599C613.786 61.6332 615.04 62.9799 615.933 64.6999C616.826 66.4066 617.273 68.3732 617.273 70.5999C617.273 72.8399 616.82 74.8199 615.913 76.5399C615.02 78.2466 613.766 79.5866 612.153 80.5599C610.54 81.5199 608.653 81.9999 606.493 81.9999ZM606.493 77.4799C608.413 77.4799 609.84 76.8399 610.773 75.5599C611.706 74.2799 612.173 72.6266 612.173 70.5999C612.173 68.5066 611.7 66.8399 610.753 65.5999C609.806 64.3466 608.386 63.7199 606.493 63.7199C605.2 63.7199 604.133 64.0132 603.293 64.5999C602.466 65.1732 601.853 65.9799 601.453 67.0199C601.053 68.0466 600.853 69.2399 600.853 70.5999C600.853 72.6932 601.326 74.3666 602.273 75.6199C603.233 76.8599 604.64 77.4799 606.493 77.4799ZM621.68 81.3999V59.7999H625.94V65.0599L625.42 64.3799C625.686 63.6599 626.04 63.0066 626.48 62.4199C626.933 61.8199 627.473 61.3266 628.1 60.9399C628.633 60.5799 629.22 60.2999 629.86 60.0999C630.513 59.8866 631.18 59.7599 631.86 59.7199C632.54 59.6666 633.2 59.6932 633.84 59.7999V64.2999C633.2 64.1132 632.46 64.0532 631.62 64.1199C630.793 64.1866 630.046 64.4199 629.38 64.8199C628.713 65.1799 628.166 65.6399 627.74 66.1999C627.326 66.7599 627.02 67.3999 626.82 68.1199C626.62 68.8266 626.52 69.5932 626.52 70.4199V81.3999H621.68Z" fill="#3D3D3D"/>
<defs>
<linearGradient id="paint0_linear_53_254" x1="114.028" y1="14.3999" x2="334.59" y2="221.439" gradientUnits="userSpaceOnUse">
<stop stop-color="#0179B4"/>
<stop offset="0.954688" stop-color="#88D8FF"/>
</linearGradient>
</defs>
</svg>
