<svg width="616" height="39" viewBox="0 0 616 39" fill="none" xmlns="http://www.w3.org/2000/svg">
<path d="M-4.88162e-05 29.3999V0.599901H11.9C12.18 0.599901 12.54 0.613234 12.98 0.639901C13.42 0.653235 13.8266 0.693235 14.2 0.759902C15.8666 1.01323 17.24 1.56657 18.32 2.4199C19.4133 3.27323 20.22 4.35323 20.74 5.6599C21.2733 6.95323 21.54 8.39323 21.54 9.9799C21.54 12.3266 20.9466 14.3466 19.76 16.0399C18.5733 17.7199 16.7533 18.7599 14.3 19.1599L12.24 19.3399H4.81995V29.3999H-4.88162e-05ZM16.54 29.3999L10.86 17.6799L15.76 16.5999L22 29.3999H16.54ZM4.81995 14.8399H11.7C11.9666 14.8399 12.2666 14.8266 12.6 14.7999C12.9333 14.7732 13.24 14.7199 13.52 14.6399C14.32 14.4399 14.9466 14.0866 15.4 13.5799C15.8666 13.0732 16.1933 12.4999 16.38 11.8599C16.58 11.2199 16.68 10.5932 16.68 9.9799C16.68 9.36657 16.58 8.7399 16.38 8.0999C16.1933 7.44657 15.8666 6.86657 15.4 6.3599C14.9466 5.85323 14.32 5.4999 13.52 5.2999C13.24 5.2199 12.9333 5.17323 12.6 5.1599C12.2666 5.13323 11.9666 5.1199 11.7 5.1199H4.81995V14.8399ZM36.2262 29.9999C34.0395 29.9999 32.1195 29.5266 30.4662 28.5799C28.8129 27.6332 27.5195 26.3199 26.5862 24.6399C25.6662 22.9599 25.2062 21.0266 25.2062 18.8399C25.2062 16.4799 25.6595 14.4332 26.5662 12.6999C27.4729 10.9532 28.7329 9.5999 30.3462 8.6399C31.9595 7.6799 33.8262 7.1999 35.9462 7.1999C38.1862 7.1999 40.0862 7.72657 41.6462 8.7799C43.2195 9.8199 44.3862 11.2932 45.1462 13.1999C45.9062 15.1066 46.1929 17.3532 46.0062 19.9399H41.2262V18.1799C41.2129 15.8332 40.7995 14.1199 39.9862 13.0399C39.1729 11.9599 37.8929 11.4199 36.1462 11.4199C34.1729 11.4199 32.7062 12.0332 31.7462 13.2599C30.7862 14.4732 30.3062 16.2532 30.3062 18.5999C30.3062 20.7866 30.7862 22.4799 31.7462 23.6799C32.7062 24.8799 34.1062 25.4799 35.9462 25.4799C37.1329 25.4799 38.1529 25.2199 39.0062 24.6999C39.8729 24.1666 40.5395 23.3999 41.0062 22.3999L45.7662 23.8399C44.9395 25.7866 43.6595 27.2999 41.9262 28.3799C40.2062 29.4599 38.3062 29.9999 36.2262 29.9999ZM28.7862 19.9399V16.2999H43.6462V19.9399H28.7862ZM56.1181 29.9999C54.5581 29.9999 53.2381 29.7066 52.1581 29.1199C51.0781 28.5199 50.2581 27.7266 49.6981 26.7399C49.1514 25.7532 48.8781 24.6666 48.8781 23.4799C48.8781 22.4399 49.0514 21.5066 49.3981 20.6799C49.7447 19.8399 50.2781 19.1199 50.9981 18.5199C51.7181 17.9066 52.6514 17.4066 53.7981 17.0199C54.6647 16.7399 55.6781 16.4866 56.8381 16.2599C58.0114 16.0332 59.2781 15.8266 60.6381 15.6399C62.0114 15.4399 63.4447 15.2266 64.9381 14.9999L63.2181 15.9799C63.2314 14.4866 62.8981 13.3866 62.2181 12.6799C61.5381 11.9732 60.3914 11.6199 58.7781 11.6199C57.8047 11.6199 56.8647 11.8466 55.9581 12.2999C55.0514 12.7532 54.4181 13.5332 54.0581 14.6399L49.6581 13.2599C50.1914 11.4332 51.2047 9.96657 52.6981 8.8599C54.2047 7.75324 56.2314 7.1999 58.7781 7.1999C60.6981 7.1999 62.3847 7.51323 63.8381 8.1399C65.3047 8.76657 66.3914 9.79323 67.0981 11.2199C67.4847 11.9799 67.7181 12.7599 67.7981 13.5599C67.8781 14.3466 67.9181 15.2066 67.9181 16.1399V29.3999H63.6981V24.7199L64.3981 25.4799C63.4247 27.0399 62.2847 28.1866 60.9781 28.9199C59.6847 29.6399 58.0647 29.9999 56.1181 29.9999ZM57.0781 26.1599C58.1714 26.1599 59.1047 25.9666 59.8781 25.5799C60.6514 25.1932 61.2647 24.7199 61.7181 24.1599C62.1847 23.5999 62.4981 23.0732 62.6581 22.5799C62.9114 21.9666 63.0514 21.2666 63.0781 20.4799C63.1181 19.6799 63.1381 19.0332 63.1381 18.5399L64.6181 18.9799C63.1647 19.2066 61.9181 19.4066 60.8781 19.5799C59.8381 19.7532 58.9447 19.9199 58.1981 20.0799C57.4514 20.2266 56.7914 20.3932 56.2181 20.5799C55.6581 20.7799 55.1847 21.0132 54.7981 21.2799C54.4114 21.5466 54.1114 21.8532 53.8981 22.1999C53.6981 22.5466 53.5981 22.9532 53.5981 23.4199C53.5981 23.9532 53.7314 24.4266 53.9981 24.8399C54.2647 25.2399 54.6514 25.5599 55.1581 25.7999C55.6781 26.0399 56.3181 26.1599 57.0781 26.1599ZM82.505 29.9999C80.2783 29.9999 78.3783 29.5066 76.805 28.5199C75.2316 27.5199 74.025 26.1599 73.185 24.4399C72.3583 22.7199 71.9383 20.7732 71.925 18.5999C71.9383 16.3866 72.3716 14.4266 73.225 12.7199C74.0916 10.9999 75.3183 9.65323 76.905 8.6799C78.4916 7.69324 80.3783 7.1999 82.565 7.1999C85.0183 7.1999 87.0916 7.8199 88.785 9.0599C90.4916 10.2866 91.605 11.9666 92.125 14.0999L87.325 15.3999C86.9516 14.2399 86.3316 13.3399 85.465 12.6999C84.5983 12.0466 83.6116 11.7199 82.505 11.7199C81.2516 11.7199 80.2183 12.0199 79.405 12.6199C78.5916 13.2066 77.9916 14.0199 77.605 15.0599C77.2183 16.0999 77.025 17.2799 77.025 18.5999C77.025 20.6532 77.485 22.3132 78.405 23.5799C79.325 24.8466 80.6916 25.4799 82.505 25.4799C83.785 25.4799 84.7916 25.1866 85.525 24.5999C86.2716 24.0132 86.8316 23.1666 87.205 22.0599L92.125 23.1599C91.4583 25.3599 90.2916 27.0532 88.625 28.2399C86.9583 29.4132 84.9183 29.9999 82.505 29.9999ZM111.073 29.3999V18.9999C111.073 18.3199 111.026 17.5666 110.933 16.7399C110.839 15.9132 110.619 15.1199 110.273 14.3599C109.939 13.5866 109.433 12.9532 108.753 12.4599C108.086 11.9666 107.179 11.7199 106.033 11.7199C105.419 11.7199 104.813 11.8199 104.213 12.0199C103.613 12.2199 103.066 12.5666 102.573 13.0599C102.093 13.5399 101.706 14.2066 101.413 15.0599C101.119 15.8999 100.973 16.9799 100.973 18.2999L98.1128 17.0799C98.1128 15.2399 98.4661 13.5732 99.1728 12.0799C99.8928 10.5866 100.946 9.3999 102.333 8.5199C103.719 7.62657 105.426 7.1799 107.453 7.1799C109.053 7.1799 110.373 7.44657 111.413 7.9799C112.453 8.51323 113.279 9.19324 113.893 10.0199C114.506 10.8466 114.959 11.7266 115.253 12.6599C115.546 13.5932 115.733 14.4799 115.813 15.3199C115.906 16.1466 115.953 16.8199 115.953 17.3399V29.3999H111.073ZM96.0928 29.3999V0.599901H100.393V15.7599H100.973V29.3999H96.0928ZM138.72 29.9999C136.56 29.9999 134.673 29.5132 133.06 28.5399C131.446 27.5666 130.193 26.2266 129.3 24.5199C128.42 22.7999 127.98 20.8266 127.98 18.5999C127.98 16.3332 128.433 14.3466 129.34 12.6399C130.246 10.9332 131.506 9.5999 133.12 8.6399C134.733 7.6799 136.6 7.1999 138.72 7.1999C140.893 7.1999 142.786 7.68657 144.4 8.6599C146.013 9.63323 147.266 10.9799 148.16 12.6999C149.053 14.4066 149.5 16.3732 149.5 18.5999C149.5 20.8399 149.046 22.8199 148.14 24.5399C147.246 26.2466 145.993 27.5866 144.38 28.5599C142.766 29.5199 140.88 29.9999 138.72 29.9999ZM138.72 25.4799C140.64 25.4799 142.066 24.8399 143 23.5599C143.933 22.2799 144.4 20.6266 144.4 18.5999C144.4 16.5066 143.926 14.8399 142.98 13.5999C142.033 12.3466 140.613 11.7199 138.72 11.7199C137.426 11.7199 136.36 12.0132 135.52 12.5999C134.693 13.1732 134.08 13.9799 133.68 15.0199C133.28 16.0466 133.08 17.2399 133.08 18.5999C133.08 20.6932 133.553 22.3666 134.5 23.6199C135.46 24.8599 136.866 25.4799 138.72 25.4799ZM162.006 30.0199C160.406 30.0199 159.086 29.7532 158.046 29.2199C157.006 28.6866 156.18 28.0066 155.566 27.1799C154.953 26.3532 154.5 25.4732 154.206 24.5399C153.913 23.6066 153.72 22.7266 153.626 21.8999C153.546 21.0599 153.506 20.3799 153.506 19.8599V7.7999H158.386V18.1999C158.386 18.8666 158.433 19.6199 158.526 20.4599C158.62 21.2866 158.833 22.0866 159.166 22.8599C159.513 23.6199 160.02 24.2466 160.686 24.7399C161.366 25.2332 162.28 25.4799 163.426 25.4799C164.04 25.4799 164.646 25.3799 165.246 25.1799C165.846 24.9799 166.386 24.6399 166.866 24.1599C167.36 23.6666 167.753 22.9932 168.046 22.1399C168.34 21.2866 168.486 20.2066 168.486 18.8999L171.346 20.1199C171.346 21.9599 170.986 23.6266 170.266 25.1199C169.56 26.6132 168.513 27.8066 167.126 28.6999C165.74 29.5799 164.033 30.0199 162.006 30.0199ZM169.066 29.3999V22.6999H168.486V7.7999H173.326V29.3999H169.066ZM178.945 29.3999V7.7999H183.205V13.0599L182.685 12.3799C182.952 11.6599 183.305 11.0066 183.745 10.4199C184.199 9.8199 184.739 9.32657 185.365 8.9399C185.899 8.5799 186.485 8.2999 187.125 8.0999C187.779 7.88657 188.445 7.7599 189.125 7.7199C189.805 7.66657 190.465 7.69323 191.105 7.7999V12.2999C190.465 12.1132 189.725 12.0532 188.885 12.1199C188.059 12.1866 187.312 12.4199 186.645 12.8199C185.979 13.1799 185.432 13.6399 185.005 14.1999C184.592 14.7599 184.285 15.3999 184.085 16.1199C183.885 16.8266 183.785 17.5932 183.785 18.4199V29.3999H178.945ZM404.849 29.3999V7.4599C404.849 6.91324 404.869 6.31324 404.909 5.6599C404.949 4.99323 405.062 4.33323 405.249 3.6799C405.435 3.02657 405.775 2.43323 406.269 1.8999C406.882 1.2199 407.542 0.753234 408.249 0.499901C408.969 0.233235 409.675 0.0865677 410.369 0.0598998C411.062 0.0199011 411.669 -9.82285e-05 412.189 -9.82285e-05H414.889V3.9199H412.389C411.469 3.9199 410.782 4.15323 410.329 4.6199C409.889 5.07323 409.669 5.67323 409.669 6.4199V29.3999H404.849ZM401.369 11.5799V7.7999H414.889V11.5799H401.369ZM426.845 29.9999C424.685 29.9999 422.798 29.5132 421.185 28.5399C419.571 27.5666 418.318 26.2266 417.425 24.5199C416.545 22.7999 416.105 20.8266 416.105 18.5999C416.105 16.3332 416.558 14.3466 417.465 12.6399C418.371 10.9332 419.631 9.5999 421.245 8.6399C422.858 7.6799 424.725 7.1999 426.845 7.1999C429.018 7.1999 430.911 7.68657 432.525 8.6599C434.138 9.63323 435.391 10.9799 436.285 12.6999C437.178 14.4066 437.625 16.3732 437.625 18.5999C437.625 20.8399 437.171 22.8199 436.265 24.5399C435.371 26.2466 434.118 27.5866 432.505 28.5599C430.891 29.5199 429.005 29.9999 426.845 29.9999ZM426.845 25.4799C428.765 25.4799 430.191 24.8399 431.125 23.5599C432.058 22.2799 432.525 20.6266 432.525 18.5999C432.525 16.5066 432.051 14.8399 431.105 13.5999C430.158 12.3466 428.738 11.7199 426.845 11.7199C425.551 11.7199 424.485 12.0132 423.645 12.5999C422.818 13.1732 422.205 13.9799 421.805 15.0199C421.405 16.0466 421.205 17.2399 421.205 18.5999C421.205 20.6932 421.678 22.3666 422.625 23.6199C423.585 24.8599 424.991 25.4799 426.845 25.4799ZM442.031 29.3999V7.7999H446.291V13.0599L445.771 12.3799C446.038 11.6599 446.391 11.0066 446.831 10.4199C447.285 9.8199 447.825 9.32657 448.451 8.9399C448.985 8.5799 449.571 8.2999 450.211 8.0999C450.865 7.88657 451.531 7.7599 452.211 7.7199C452.891 7.66657 453.551 7.69323 454.191 7.7999V12.2999C453.551 12.1132 452.811 12.0532 451.971 12.1199C451.145 12.1866 450.398 12.4199 449.731 12.8199C449.065 13.1799 448.518 13.6399 448.091 14.1999C447.678 14.7599 447.371 15.3999 447.171 16.1199C446.971 16.8266 446.871 17.5932 446.871 18.4199V29.3999H442.031ZM474.356 29.9999C471.689 29.9999 469.522 29.3999 467.856 28.1999C466.189 26.9999 465.176 25.3132 464.816 23.1399L469.736 22.3799C469.989 23.4466 470.549 24.2866 471.416 24.8999C472.282 25.5132 473.376 25.8199 474.696 25.8199C475.856 25.8199 476.749 25.5932 477.376 25.1399C478.016 24.6732 478.336 24.0399 478.336 23.2399C478.336 22.7466 478.216 22.3532 477.976 22.0599C477.749 21.7532 477.242 21.4599 476.456 21.1799C475.669 20.8999 474.462 20.5466 472.836 20.1199C471.022 19.6399 469.582 19.1266 468.516 18.5799C467.449 18.0199 466.682 17.3599 466.216 16.5999C465.749 15.8399 465.516 14.9199 465.516 13.8399C465.516 12.4932 465.869 11.3199 466.576 10.3199C467.282 9.3199 468.269 8.55324 469.536 8.0199C470.802 7.47324 472.296 7.1999 474.016 7.1999C475.696 7.1999 477.182 7.4599 478.476 7.9799C479.782 8.4999 480.836 9.2399 481.636 10.1999C482.436 11.1599 482.929 12.2866 483.116 13.5799L478.196 14.4599C478.076 13.5399 477.656 12.8132 476.936 12.2799C476.229 11.7466 475.282 11.4466 474.096 11.3799C472.962 11.3132 472.049 11.4866 471.356 11.8999C470.662 12.2999 470.316 12.8666 470.316 13.5999C470.316 14.0132 470.456 14.3666 470.736 14.6599C471.016 14.9532 471.576 15.2466 472.416 15.5399C473.269 15.8332 474.536 16.1932 476.216 16.6199C477.936 17.0599 479.309 17.5666 480.336 18.1399C481.376 18.6999 482.122 19.3732 482.576 20.1599C483.042 20.9466 483.276 21.8999 483.276 23.0199C483.276 25.1932 482.482 26.8999 480.896 28.1399C479.322 29.3799 477.142 29.9999 474.356 29.9999ZM495.756 30.0199C494.156 30.0199 492.836 29.7532 491.796 29.2199C490.756 28.6866 489.93 28.0066 489.316 27.1799C488.703 26.3532 488.25 25.4732 487.956 24.5399C487.663 23.6066 487.47 22.7266 487.376 21.8999C487.296 21.0599 487.256 20.3799 487.256 19.8599V7.7999H492.136V18.1999C492.136 18.8666 492.183 19.6199 492.276 20.4599C492.37 21.2866 492.583 22.0866 492.916 22.8599C493.263 23.6199 493.77 24.2466 494.436 24.7399C495.116 25.2332 496.03 25.4799 497.176 25.4799C497.79 25.4799 498.396 25.3799 498.996 25.1799C499.596 24.9799 500.136 24.6399 500.616 24.1599C501.11 23.6666 501.503 22.9932 501.796 22.1399C502.09 21.2866 502.236 20.2066 502.236 18.8999L505.096 20.1199C505.096 21.9599 504.736 23.6266 504.016 25.1199C503.31 26.6132 502.263 27.8066 500.876 28.6999C499.49 29.5799 497.783 30.0199 495.756 30.0199ZM502.816 29.3999V22.6999H502.236V7.7999H507.076V29.3999H502.816ZM523.075 29.9999C520.969 29.9999 519.202 29.4999 517.775 28.4999C516.349 27.4999 515.275 26.1399 514.555 24.4199C513.835 22.6866 513.475 20.7466 513.475 18.5999C513.475 16.4266 513.835 14.4799 514.555 12.7599C515.275 11.0399 516.329 9.68657 517.715 8.6999C519.115 7.6999 520.842 7.1999 522.895 7.1999C524.935 7.1999 526.702 7.6999 528.195 8.6999C529.702 9.68657 530.869 11.0399 531.695 12.7599C532.522 14.4666 532.935 16.4132 532.935 18.5999C532.935 20.7599 532.529 22.6999 531.715 24.4199C530.902 26.1399 529.755 27.4999 528.275 28.4999C526.795 29.4999 525.062 29.9999 523.075 29.9999ZM512.655 38.9999V7.7999H516.915V22.9599H517.515V38.9999H512.655ZM522.335 25.6799C523.589 25.6799 524.622 25.3666 525.435 24.7399C526.249 24.1132 526.849 23.2666 527.235 22.1999C527.635 21.1199 527.835 19.9199 527.835 18.5999C527.835 17.2932 527.635 16.1066 527.235 15.0399C526.835 13.9599 526.215 13.1066 525.375 12.4799C524.535 11.8399 523.469 11.5199 522.175 11.5199C520.949 11.5199 519.949 11.8199 519.175 12.4199C518.402 13.0066 517.829 13.8332 517.455 14.8999C517.095 15.9532 516.915 17.1866 516.915 18.5999C516.915 19.9999 517.095 21.2332 517.455 22.2999C517.829 23.3666 518.409 24.1999 519.195 24.7999C519.995 25.3866 521.042 25.6799 522.335 25.6799ZM547.724 29.9999C545.617 29.9999 543.85 29.4999 542.424 28.4999C540.997 27.4999 539.924 26.1399 539.204 24.4199C538.484 22.6866 538.124 20.7466 538.124 18.5999C538.124 16.4266 538.484 14.4799 539.204 12.7599C539.924 11.0399 540.977 9.68657 542.364 8.6999C543.764 7.6999 545.49 7.1999 547.544 7.1999C549.584 7.1999 551.35 7.6999 552.844 8.6999C554.35 9.68657 555.517 11.0399 556.344 12.7599C557.17 14.4666 557.584 16.4132 557.584 18.5999C557.584 20.7599 557.177 22.6999 556.364 24.4199C555.55 26.1399 554.404 27.4999 552.924 28.4999C551.444 29.4999 549.71 29.9999 547.724 29.9999ZM537.304 38.9999V7.7999H541.564V22.9599H542.164V38.9999H537.304ZM546.984 25.6799C548.237 25.6799 549.27 25.3666 550.084 24.7399C550.897 24.1132 551.497 23.2666 551.884 22.1999C552.284 21.1199 552.484 19.9199 552.484 18.5999C552.484 17.2932 552.284 16.1066 551.884 15.0399C551.484 13.9599 550.864 13.1066 550.024 12.4799C549.184 11.8399 548.117 11.5199 546.824 11.5199C545.597 11.5199 544.597 11.8199 543.824 12.4199C543.05 13.0066 542.477 13.8332 542.104 14.8999C541.744 15.9532 541.564 17.1866 541.564 18.5999C541.564 19.9999 541.744 21.2332 542.104 22.2999C542.477 23.3666 543.057 24.1999 543.844 24.7999C544.644 25.3866 545.69 25.6799 546.984 25.6799ZM571.532 29.9999C569.372 29.9999 567.485 29.5132 565.872 28.5399C564.259 27.5666 563.005 26.2266 562.112 24.5199C561.232 22.7999 560.792 20.8266 560.792 18.5999C560.792 16.3332 561.245 14.3466 562.152 12.6399C563.059 10.9332 564.319 9.5999 565.932 8.6399C567.545 7.6799 569.412 7.1999 571.532 7.1999C573.705 7.1999 575.599 7.68657 577.212 8.6599C578.825 9.63323 580.079 10.9799 580.972 12.6999C581.865 14.4066 582.312 16.3732 582.312 18.5999C582.312 20.8399 581.859 22.8199 580.952 24.5399C580.059 26.2466 578.805 27.5866 577.192 28.5599C575.579 29.5199 573.692 29.9999 571.532 29.9999ZM571.532 25.4799C573.452 25.4799 574.879 24.8399 575.812 23.5599C576.745 22.2799 577.212 20.6266 577.212 18.5999C577.212 16.5066 576.739 14.8399 575.792 13.5999C574.845 12.3466 573.425 11.7199 571.532 11.7199C570.239 11.7199 569.172 12.0132 568.332 12.5999C567.505 13.1732 566.892 13.9799 566.492 15.0199C566.092 16.0466 565.892 17.2399 565.892 18.5999C565.892 20.6932 566.365 22.3666 567.312 23.6199C568.272 24.8599 569.679 25.4799 571.532 25.4799ZM586.719 29.3999V7.7999H590.979V13.0599L590.459 12.3799C590.725 11.6599 591.079 11.0066 591.519 10.4199C591.972 9.8199 592.512 9.32657 593.139 8.9399C593.672 8.5799 594.259 8.2999 594.899 8.0999C595.552 7.88657 596.219 7.7599 596.899 7.7199C597.579 7.66657 598.239 7.69323 598.879 7.7999V12.2999C598.239 12.1132 597.499 12.0532 596.659 12.1199C595.832 12.1866 595.085 12.4199 594.419 12.8199C593.752 13.1799 593.205 13.6399 592.779 14.1999C592.365 14.7599 592.059 15.3999 591.859 16.1199C591.659 16.8266 591.559 17.5932 591.559 18.4199V29.3999H586.719ZM615.355 29.3999C613.929 29.6666 612.529 29.7799 611.155 29.7399C609.795 29.7132 608.575 29.4666 607.495 28.9999C606.415 28.5199 605.595 27.7666 605.035 26.7399C604.542 25.8066 604.282 24.8532 604.255 23.8799C604.229 22.9066 604.215 21.8066 604.215 20.5799V1.7999H609.015V20.2999C609.015 21.1666 609.022 21.9266 609.035 22.5799C609.062 23.2332 609.202 23.7666 609.455 24.1799C609.935 24.9799 610.702 25.4266 611.755 25.5199C612.809 25.6132 614.009 25.5599 615.355 25.3599V29.3999ZM600.295 11.5799V7.7999H615.355V11.5799H600.295Z" fill="#3D3D3D"/>
<path d="M202.93 29.3999V0.599901H207.75V12.7199H221.39V0.599901H226.19V29.3999H221.39V17.2399H207.75V29.3999H202.93ZM241.617 29.9999C239.43 29.9999 237.51 29.5266 235.857 28.5799C234.203 27.6332 232.91 26.3199 231.977 24.6399C231.057 22.9599 230.597 21.0266 230.597 18.8399C230.597 16.4799 231.05 14.4332 231.957 12.6999C232.863 10.9532 234.123 9.5999 235.737 8.6399C237.35 7.6799 239.217 7.1999 241.337 7.1999C243.577 7.1999 245.477 7.72657 247.037 8.7799C248.61 9.8199 249.777 11.2932 250.537 13.1999C251.297 15.1066 251.583 17.3532 251.397 19.9399H246.617V18.1799C246.603 15.8332 246.19 14.1199 245.377 13.0399C244.563 11.9599 243.283 11.4199 241.537 11.4199C239.563 11.4199 238.097 12.0332 237.137 13.2599C236.177 14.4732 235.697 16.2532 235.697 18.5999C235.697 20.7866 236.177 22.4799 237.137 23.6799C238.097 24.8799 239.497 25.4799 241.337 25.4799C242.523 25.4799 243.543 25.2199 244.397 24.6999C245.263 24.1666 245.93 23.3999 246.397 22.3999L251.157 23.8399C250.33 25.7866 249.05 27.2999 247.317 28.3799C245.597 29.4599 243.697 29.9999 241.617 29.9999ZM234.177 19.9399V16.2999H249.037V19.9399H234.177ZM256.259 29.3999V-9.82285e-05H261.079V29.3999H256.259ZM277.45 29.9999C275.344 29.9999 273.577 29.4999 272.15 28.4999C270.724 27.4999 269.65 26.1399 268.93 24.4199C268.21 22.6866 267.85 20.7466 267.85 18.5999C267.85 16.4266 268.21 14.4799 268.93 12.7599C269.65 11.0399 270.704 9.68657 272.09 8.6999C273.49 7.6999 275.217 7.1999 277.27 7.1999C279.31 7.1999 281.077 7.6999 282.57 8.6999C284.077 9.68657 285.244 11.0399 286.07 12.7599C286.897 14.4666 287.31 16.4132 287.31 18.5999C287.31 20.7599 286.904 22.6999 286.09 24.4199C285.277 26.1399 284.13 27.4999 282.65 28.4999C281.17 29.4999 279.437 29.9999 277.45 29.9999ZM267.03 38.9999V7.7999H271.29V22.9599H271.89V38.9999H267.03ZM276.71 25.6799C277.964 25.6799 278.997 25.3666 279.81 24.7399C280.624 24.1132 281.224 23.2666 281.61 22.1999C282.01 21.1199 282.21 19.9199 282.21 18.5999C282.21 17.2932 282.01 16.1066 281.61 15.0399C281.21 13.9599 280.59 13.1066 279.75 12.4799C278.91 11.8399 277.844 11.5199 276.55 11.5199C275.324 11.5199 274.324 11.8199 273.55 12.4199C272.777 13.0066 272.204 13.8332 271.83 14.8999C271.47 15.9532 271.29 17.1866 271.29 18.5999C271.29 19.9999 271.47 21.2332 271.83 22.2999C272.204 23.3666 272.784 24.1999 273.57 24.7999C274.37 25.3866 275.417 25.6799 276.71 25.6799ZM299.727 29.3999V0.599901H308.907C309.147 0.599901 309.62 0.606568 310.327 0.619902C311.047 0.633235 311.74 0.679901 312.407 0.759902C314.687 1.05323 316.613 1.86657 318.187 3.1999C319.773 4.5199 320.973 6.20657 321.787 8.2599C322.6 10.3132 323.007 12.5599 323.007 14.9999C323.007 17.4399 322.6 19.6866 321.787 21.7399C320.973 23.7932 319.773 25.4866 318.187 26.8199C316.613 28.1399 314.687 28.9466 312.407 29.2399C311.753 29.3199 311.067 29.3666 310.347 29.3799C309.627 29.3932 309.147 29.3999 308.907 29.3999H299.727ZM304.627 24.8599H308.907C309.307 24.8599 309.813 24.8466 310.427 24.8199C311.053 24.7932 311.607 24.7332 312.087 24.6399C313.447 24.3866 314.553 23.7799 315.407 22.8199C316.26 21.8599 316.887 20.6932 317.287 19.3199C317.7 17.9466 317.907 16.5066 317.907 14.9999C317.907 13.4399 317.7 11.9732 317.287 10.5999C316.873 9.22657 316.233 8.07323 315.367 7.1399C314.513 6.20657 313.42 5.61323 312.087 5.3599C311.607 5.25324 311.053 5.19323 310.427 5.1799C309.813 5.15323 309.307 5.1399 308.907 5.1399H304.627V24.8599ZM337.554 29.9999C335.368 29.9999 333.448 29.5266 331.794 28.5799C330.141 27.6332 328.848 26.3199 327.914 24.6399C326.994 22.9599 326.534 21.0266 326.534 18.8399C326.534 16.4799 326.988 14.4332 327.894 12.6999C328.801 10.9532 330.061 9.5999 331.674 8.6399C333.288 7.6799 335.154 7.1999 337.274 7.1999C339.514 7.1999 341.414 7.72657 342.974 8.7799C344.548 9.8199 345.714 11.2932 346.474 13.1999C347.234 15.1066 347.521 17.3532 347.334 19.9399H342.554V18.1799C342.541 15.8332 342.128 14.1199 341.314 13.0399C340.501 11.9599 339.221 11.4199 337.474 11.4199C335.501 11.4199 334.034 12.0332 333.074 13.2599C332.114 14.4732 331.634 16.2532 331.634 18.5999C331.634 20.7866 332.114 22.4799 333.074 23.6799C334.034 24.8799 335.434 25.4799 337.274 25.4799C338.461 25.4799 339.481 25.2199 340.334 24.6999C341.201 24.1666 341.868 23.3999 342.334 22.3999L347.094 23.8399C346.268 25.7866 344.988 27.2999 343.254 28.3799C341.534 29.4599 339.634 29.9999 337.554 29.9999ZM330.114 19.9399V16.2999H344.974V19.9399H330.114ZM360.137 29.9999C357.47 29.9999 355.303 29.3999 353.637 28.1999C351.97 26.9999 350.957 25.3132 350.597 23.1399L355.517 22.3799C355.77 23.4466 356.33 24.2866 357.197 24.8999C358.063 25.5132 359.157 25.8199 360.477 25.8199C361.637 25.8199 362.53 25.5932 363.157 25.1399C363.797 24.6732 364.117 24.0399 364.117 23.2399C364.117 22.7466 363.997 22.3532 363.757 22.0599C363.53 21.7532 363.023 21.4599 362.237 21.1799C361.45 20.8999 360.243 20.5466 358.617 20.1199C356.803 19.6399 355.363 19.1266 354.297 18.5799C353.23 18.0199 352.463 17.3599 351.997 16.5999C351.53 15.8399 351.297 14.9199 351.297 13.8399C351.297 12.4932 351.65 11.3199 352.357 10.3199C353.063 9.3199 354.05 8.55324 355.317 8.0199C356.583 7.47324 358.077 7.1999 359.797 7.1999C361.477 7.1999 362.963 7.4599 364.257 7.9799C365.563 8.4999 366.617 9.2399 367.417 10.1999C368.217 11.1599 368.71 12.2866 368.897 13.5799L363.977 14.4599C363.857 13.5399 363.437 12.8132 362.717 12.2799C362.01 11.7466 361.063 11.4466 359.877 11.3799C358.743 11.3132 357.83 11.4866 357.137 11.8999C356.443 12.2999 356.097 12.8666 356.097 13.5999C356.097 14.0132 356.237 14.3666 356.517 14.6599C356.797 14.9532 357.357 15.2466 358.197 15.5399C359.05 15.8332 360.317 16.1932 361.997 16.6199C363.717 17.0599 365.09 17.5666 366.117 18.1399C367.157 18.6999 367.903 19.3732 368.357 20.1599C368.823 20.9466 369.057 21.8999 369.057 23.0199C369.057 25.1932 368.263 26.8999 366.677 28.1399C365.103 29.3799 362.923 29.9999 360.137 29.9999ZM373.397 29.3999L373.437 0.599901H378.317V18.1999L386.217 7.7999H392.237L383.857 18.5999L392.957 29.3999H386.577L378.317 18.9999V29.3999H373.397Z" fill="url(#paint0_linear_71_100)"/>
<defs>
<linearGradient id="paint0_linear_71_100" x1="196.253" y1="14.3999" x2="241.436" y2="96.5357" gradientUnits="userSpaceOnUse">
<stop offset="0.220196" stop-color="#0179B4"/>
<stop offset="0.990273" stop-color="#88D8FF"/>
</linearGradient>
</defs>
</svg>
