<svg width="405" height="39" viewBox="0 0 405 39" fill="none" xmlns="http://www.w3.org/2000/svg">
<path d="M9.3201 29.4V5.12002H9.76846e-05V0.600023H23.4601V5.12002H14.1401V29.4H9.3201ZM32.9948 30C30.8348 30 28.9481 29.5134 27.3348 28.54C25.7215 27.5667 24.4681 26.2267 23.5748 24.52C22.6948 22.8 22.2548 20.8267 22.2548 18.6C22.2548 16.3334 22.7081 14.3467 23.6148 12.64C24.5215 10.9334 25.7815 9.60002 27.3948 8.64002C29.0081 7.68002 30.8748 7.20002 32.9948 7.20002C35.1681 7.20002 37.0615 7.68669 38.6748 8.66002C40.2881 9.63336 41.5415 10.98 42.4348 12.7C43.3281 14.4067 43.7748 16.3734 43.7748 18.6C43.7748 20.84 43.3215 22.82 42.4148 24.54C41.5215 26.2467 40.2681 27.5867 38.6548 28.56C37.0415 29.52 35.1548 30 32.9948 30ZM32.9948 25.48C34.9148 25.48 36.3415 24.84 37.2748 23.56C38.2081 22.28 38.6748 20.6267 38.6748 18.6C38.6748 16.5067 38.2015 14.84 37.2548 13.6C36.3081 12.3467 34.8881 11.72 32.9948 11.72C31.7015 11.72 30.6348 12.0134 29.7948 12.6C28.9681 13.1734 28.3548 13.98 27.9548 15.02C27.5548 16.0467 27.3548 17.24 27.3548 18.6C27.3548 20.6934 27.8281 22.3667 28.7748 23.62C29.7348 24.86 31.1415 25.48 32.9948 25.48ZM58.5613 30C56.4547 30 54.688 29.5 53.2613 28.5C51.8347 27.5 50.7613 26.14 50.0413 24.42C49.3213 22.6867 48.9613 20.7467 48.9613 18.6C48.9613 16.4267 49.3213 14.48 50.0413 12.76C50.7613 11.04 51.8147 9.68669 53.2013 8.70002C54.6013 7.70002 56.328 7.20002 58.3813 7.20002C60.4213 7.20002 62.188 7.70002 63.6813 8.70002C65.188 9.68669 66.3547 11.04 67.1813 12.76C68.008 14.4667 68.4213 16.4134 68.4213 18.6C68.4213 20.76 68.0147 22.7 67.2013 24.42C66.388 26.14 65.2413 27.5 63.7613 28.5C62.2813 29.5 60.548 30 58.5613 30ZM48.1413 39V7.80002H52.4013V22.96H53.0013V39H48.1413ZM57.8213 25.68C59.0747 25.68 60.108 25.3667 60.9213 24.74C61.7347 24.1134 62.3347 23.2667 62.7213 22.2C63.1213 21.12 63.3213 19.92 63.3213 18.6C63.3213 17.2934 63.1213 16.1067 62.7213 15.04C62.3213 13.96 61.7013 13.1067 60.8613 12.48C60.0213 11.84 58.9547 11.52 57.6613 11.52C56.4347 11.52 55.4347 11.82 54.6613 12.42C53.888 13.0067 53.3147 13.8334 52.9413 14.9C52.5813 15.9534 52.4013 17.1867 52.4013 18.6C52.4013 20 52.5813 21.2334 52.9413 22.3C53.3147 23.3667 53.8947 24.2 54.6813 24.8C55.4813 25.3867 56.528 25.68 57.8213 25.68ZM256.57 29.4L249.97 7.76002L254.69 7.80002L258.91 21.66L263.19 7.80002H267.25L271.51 21.66L275.75 7.80002H280.47L273.87 29.4H270.11L265.21 14.54L260.33 29.4H256.57ZM293.119 30C290.932 30 289.012 29.5267 287.359 28.58C285.705 27.6334 284.412 26.32 283.479 24.64C282.559 22.96 282.099 21.0267 282.099 18.84C282.099 16.48 282.552 14.4334 283.459 12.7C284.365 10.9534 285.625 9.60002 287.239 8.64002C288.852 7.68002 290.719 7.20002 292.839 7.20002C295.079 7.20002 296.979 7.72669 298.539 8.78002C300.112 9.82002 301.279 11.2934 302.039 13.2C302.799 15.1067 303.085 17.3534 302.899 19.94H298.119V18.18C298.105 15.8334 297.692 14.12 296.879 13.04C296.065 11.96 294.785 11.42 293.039 11.42C291.065 11.42 289.599 12.0334 288.639 13.26C287.679 14.4734 287.199 16.2534 287.199 18.6C287.199 20.7867 287.679 22.48 288.639 23.68C289.599 24.88 290.999 25.48 292.839 25.48C294.025 25.48 295.045 25.22 295.899 24.7C296.765 24.1667 297.432 23.4 297.899 22.4L302.659 23.84C301.832 25.7867 300.552 27.3 298.819 28.38C297.099 29.46 295.199 30 293.119 30ZM285.679 19.94V16.3H300.539V19.94H285.679ZM324.909 30C322.749 30 320.862 29.5134 319.249 28.54C317.636 27.5667 316.382 26.2267 315.489 24.52C314.609 22.8 314.169 20.8267 314.169 18.6C314.169 16.3334 314.622 14.3467 315.529 12.64C316.436 10.9334 317.696 9.60002 319.309 8.64002C320.922 7.68002 322.789 7.20002 324.909 7.20002C327.082 7.20002 328.976 7.68669 330.589 8.66002C332.202 9.63336 333.456 10.98 334.349 12.7C335.242 14.4067 335.689 16.3734 335.689 18.6C335.689 20.84 335.236 22.82 334.329 24.54C333.436 26.2467 332.182 27.5867 330.569 28.56C328.956 29.52 327.069 30 324.909 30ZM324.909 25.48C326.829 25.48 328.256 24.84 329.189 23.56C330.122 22.28 330.589 20.6267 330.589 18.6C330.589 16.5067 330.116 14.84 329.169 13.6C328.222 12.3467 326.802 11.72 324.909 11.72C323.616 11.72 322.549 12.0134 321.709 12.6C320.882 13.1734 320.269 13.98 319.869 15.02C319.469 16.0467 319.269 17.24 319.269 18.6C319.269 20.6934 319.742 22.3667 320.689 23.62C321.649 24.86 323.056 25.48 324.909 25.48ZM341.975 29.4V7.46002C341.975 6.91336 341.995 6.31336 342.035 5.66002C342.075 4.99336 342.189 4.33336 342.375 3.68002C342.562 3.02669 342.902 2.43336 343.395 1.90002C344.009 1.22002 344.669 0.753356 345.375 0.500023C346.095 0.233357 346.802 0.0866898 347.495 0.0600219C348.189 0.0200232 348.795 2.38419e-05 349.315 2.38419e-05H352.015V3.92002H349.515C348.595 3.92002 347.909 4.15336 347.455 4.62002C347.015 5.07336 346.795 5.67336 346.795 6.42002V29.4H341.975ZM338.495 11.58V7.80002H352.015V11.58H338.495ZM355.435 29.4V7.46002C355.435 6.91336 355.455 6.31336 355.495 5.66002C355.535 4.99336 355.649 4.33336 355.835 3.68002C356.022 3.02669 356.362 2.43336 356.855 1.90002C357.469 1.22002 358.129 0.753356 358.835 0.500023C359.555 0.233357 360.262 0.0866898 360.955 0.0600219C361.649 0.0200232 362.255 2.38419e-05 362.775 2.38419e-05H365.475V3.92002H362.975C362.055 3.92002 361.369 4.15336 360.915 4.62002C360.475 5.07336 360.255 5.67336 360.255 6.42002V29.4H355.435ZM351.955 11.58V7.80002H365.475V11.58H351.955ZM377.728 30C375.541 30 373.621 29.5267 371.968 28.58C370.315 27.6334 369.021 26.32 368.088 24.64C367.168 22.96 366.708 21.0267 366.708 18.84C366.708 16.48 367.161 14.4334 368.068 12.7C368.975 10.9534 370.235 9.60002 371.848 8.64002C373.461 7.68002 375.328 7.20002 377.448 7.20002C379.688 7.20002 381.588 7.72669 383.148 8.78002C384.721 9.82002 385.888 11.2934 386.648 13.2C387.408 15.1067 387.695 17.3534 387.508 19.94H382.728V18.18C382.715 15.8334 382.301 14.12 381.488 13.04C380.675 11.96 379.395 11.42 377.648 11.42C375.675 11.42 374.208 12.0334 373.248 13.26C372.288 14.4734 371.808 16.2534 371.808 18.6C371.808 20.7867 372.288 22.48 373.248 23.68C374.208 24.88 375.608 25.48 377.448 25.48C378.635 25.48 379.655 25.22 380.508 24.7C381.375 24.1667 382.041 23.4 382.508 22.4L387.268 23.84C386.441 25.7867 385.161 27.3 383.428 28.38C381.708 29.46 379.808 30 377.728 30ZM370.288 19.94V16.3H385.148V19.94H370.288ZM391.97 29.4V7.80002H396.23V13.06L395.71 12.38C395.977 11.66 396.33 11.0067 396.77 10.42C397.224 9.82002 397.764 9.32669 398.39 8.94002C398.924 8.58002 399.51 8.30002 400.15 8.10002C400.804 7.88669 401.47 7.76002 402.15 7.72002C402.83 7.66669 403.49 7.69336 404.13 7.80002V12.3C403.49 12.1134 402.75 12.0534 401.91 12.12C401.084 12.1867 400.337 12.42 399.67 12.82C399.004 13.18 398.457 13.64 398.03 14.2C397.617 14.76 397.31 15.4 397.11 16.12C396.91 16.8267 396.81 17.5934 396.81 18.42V29.4H391.97Z" fill="#3D3D3D"/>
<path d="M89.1776 30C86.5109 30 84.3443 29.4 82.6776 28.2C81.0109 27 79.9976 25.3134 79.6376 23.14L84.5576 22.38C84.8109 23.4467 85.3709 24.2867 86.2376 24.9C87.1043 25.5134 88.1976 25.82 89.5176 25.82C90.6776 25.82 91.5709 25.5934 92.1976 25.14C92.8376 24.6734 93.1576 24.04 93.1576 23.24C93.1576 22.7467 93.0376 22.3534 92.7976 22.06C92.5709 21.7534 92.0643 21.46 91.2776 21.18C90.4909 20.9 89.2843 20.5467 87.6576 20.12C85.8443 19.64 84.4043 19.1267 83.3376 18.58C82.2709 18.02 81.5043 17.36 81.0376 16.6C80.5709 15.84 80.3376 14.92 80.3376 13.84C80.3376 12.4934 80.6909 11.32 81.3976 10.32C82.1043 9.32002 83.0909 8.55336 84.3576 8.02002C85.6243 7.47336 87.1176 7.20002 88.8376 7.20002C90.5176 7.20002 92.0043 7.46002 93.2976 7.98002C94.6043 8.50002 95.6576 9.24002 96.4576 10.2C97.2576 11.16 97.7509 12.2867 97.9376 13.58L93.0176 14.46C92.8976 13.54 92.4776 12.8134 91.7576 12.28C91.0509 11.7467 90.1043 11.4467 88.9176 11.38C87.7843 11.3134 86.8709 11.4867 86.1776 11.9C85.4843 12.3 85.1376 12.8667 85.1376 13.6C85.1376 14.0134 85.2776 14.3667 85.5576 14.66C85.8376 14.9534 86.3976 15.2467 87.2376 15.54C88.0909 15.8334 89.3576 16.1934 91.0376 16.62C92.7576 17.06 94.1309 17.5667 95.1576 18.14C96.1976 18.7 96.9443 19.3734 97.3976 20.16C97.8643 20.9467 98.0976 21.9 98.0976 23.02C98.0976 25.1934 97.3043 26.9 95.7176 28.14C94.1443 29.38 91.9643 30 89.1776 30ZM112.298 30C110.112 30 108.192 29.5267 106.538 28.58C104.885 27.6334 103.592 26.32 102.658 24.64C101.738 22.96 101.278 21.0267 101.278 18.84C101.278 16.48 101.732 14.4334 102.638 12.7C103.545 10.9534 104.805 9.60002 106.418 8.64002C108.032 7.68002 109.898 7.20002 112.018 7.20002C114.258 7.20002 116.158 7.72669 117.718 8.78002C119.292 9.82002 120.458 11.2934 121.218 13.2C121.978 15.1067 122.265 17.3534 122.078 19.94H117.298V18.18C117.285 15.8334 116.872 14.12 116.058 13.04C115.245 11.96 113.965 11.42 112.218 11.42C110.245 11.42 108.778 12.0334 107.818 13.26C106.858 14.4734 106.378 16.2534 106.378 18.6C106.378 20.7867 106.858 22.48 107.818 23.68C108.778 24.88 110.178 25.48 112.018 25.48C113.205 25.48 114.225 25.22 115.078 24.7C115.945 24.1667 116.612 23.4 117.078 22.4L121.838 23.84C121.012 25.7867 119.732 27.3 117.998 28.38C116.278 29.46 114.378 30 112.298 30ZM104.858 19.94V16.3H119.718V19.94H104.858ZM126.541 29.4V7.80002H130.801V13.06L130.281 12.38C130.547 11.66 130.901 11.0067 131.341 10.42C131.794 9.82002 132.334 9.32669 132.961 8.94002C133.494 8.58002 134.081 8.30002 134.721 8.10002C135.374 7.88669 136.041 7.76002 136.721 7.72002C137.401 7.66669 138.061 7.69336 138.701 7.80002V12.3C138.061 12.1134 137.321 12.0534 136.481 12.12C135.654 12.1867 134.907 12.42 134.241 12.82C133.574 13.18 133.027 13.64 132.601 14.2C132.187 14.76 131.881 15.4 131.681 16.12C131.481 16.8267 131.381 17.5934 131.381 18.42V29.4H126.541ZM148.357 29.4L140.517 7.80002H145.337L150.777 23.46L156.197 7.80002H161.037L153.197 29.4H148.357ZM165.027 4.52002V0.100024H169.847V4.52002H165.027ZM165.027 29.4V7.80002H169.847V29.4H165.027ZM185.218 30C182.991 30 181.091 29.5067 179.518 28.52C177.944 27.52 176.738 26.16 175.898 24.44C175.071 22.72 174.651 20.7734 174.638 18.6C174.651 16.3867 175.084 14.4267 175.938 12.72C176.804 11 178.031 9.65336 179.618 8.68002C181.204 7.69336 183.091 7.20002 185.278 7.20002C187.731 7.20002 189.804 7.82002 191.498 9.06002C193.204 10.2867 194.318 11.9667 194.838 14.1L190.038 15.4C189.664 14.24 189.044 13.34 188.178 12.7C187.311 12.0467 186.324 11.72 185.218 11.72C183.964 11.72 182.931 12.02 182.118 12.62C181.304 13.2067 180.704 14.02 180.318 15.06C179.931 16.1 179.738 17.28 179.738 18.6C179.738 20.6534 180.198 22.3134 181.118 23.58C182.038 24.8467 183.404 25.48 185.218 25.48C186.498 25.48 187.504 25.1867 188.238 24.6C188.984 24.0134 189.544 23.1667 189.918 22.06L194.838 23.16C194.171 25.36 193.004 27.0534 191.338 28.24C189.671 29.4134 187.631 30 185.218 30ZM208.079 30C205.893 30 203.973 29.5267 202.319 28.58C200.666 27.6334 199.373 26.32 198.439 24.64C197.519 22.96 197.059 21.0267 197.059 18.84C197.059 16.48 197.513 14.4334 198.419 12.7C199.326 10.9534 200.586 9.60002 202.199 8.64002C203.813 7.68002 205.679 7.20002 207.799 7.20002C210.039 7.20002 211.939 7.72669 213.499 8.78002C215.073 9.82002 216.239 11.2934 216.999 13.2C217.759 15.1067 218.046 17.3534 217.859 19.94H213.079V18.18C213.066 15.8334 212.653 14.12 211.839 13.04C211.026 11.96 209.746 11.42 207.999 11.42C206.026 11.42 204.559 12.0334 203.599 13.26C202.639 14.4734 202.159 16.2534 202.159 18.6C202.159 20.7867 202.639 22.48 203.599 23.68C204.559 24.88 205.959 25.48 207.799 25.48C208.986 25.48 210.006 25.22 210.859 24.7C211.726 24.1667 212.393 23.4 212.859 22.4L217.619 23.84C216.793 25.7867 215.513 27.3 213.779 28.38C212.059 29.46 210.159 30 208.079 30ZM200.639 19.94V16.3H215.499V19.94H200.639ZM230.662 30C227.995 30 225.829 29.4 224.162 28.2C222.495 27 221.482 25.3134 221.122 23.14L226.042 22.38C226.295 23.4467 226.855 24.2867 227.722 24.9C228.589 25.5134 229.682 25.82 231.002 25.82C232.162 25.82 233.055 25.5934 233.682 25.14C234.322 24.6734 234.642 24.04 234.642 23.24C234.642 22.7467 234.522 22.3534 234.282 22.06C234.055 21.7534 233.549 21.46 232.762 21.18C231.975 20.9 230.769 20.5467 229.142 20.12C227.329 19.64 225.889 19.1267 224.822 18.58C223.755 18.02 222.989 17.36 222.522 16.6C222.055 15.84 221.822 14.92 221.822 13.84C221.822 12.4934 222.175 11.32 222.882 10.32C223.589 9.32002 224.575 8.55336 225.842 8.02002C227.109 7.47336 228.602 7.20002 230.322 7.20002C232.002 7.20002 233.489 7.46002 234.782 7.98002C236.089 8.50002 237.142 9.24002 237.942 10.2C238.742 11.16 239.235 12.2867 239.422 13.58L234.502 14.46C234.382 13.54 233.962 12.8134 233.242 12.28C232.535 11.7467 231.589 11.4467 230.402 11.38C229.269 11.3134 228.355 11.4867 227.662 11.9C226.969 12.3 226.622 12.8667 226.622 13.6C226.622 14.0134 226.762 14.3667 227.042 14.66C227.322 14.9534 227.882 15.2467 228.722 15.54C229.575 15.8334 230.842 16.1934 232.522 16.62C234.242 17.06 235.615 17.5667 236.642 18.14C237.682 18.7 238.429 19.3734 238.882 20.16C239.349 20.9467 239.582 21.9 239.582 23.02C239.582 25.1934 238.789 26.9 237.202 28.14C235.629 29.38 233.449 30 230.662 30Z" fill="url(#paint0_linear_51_83)"/>
<defs>
<linearGradient id="paint0_linear_51_83" x1="76.3735" y1="14.4" x2="147.633" y2="98.9168" gradientUnits="userSpaceOnUse">
<stop offset="0.123666" stop-color="#88D8FF"/>
<stop offset="1" stop-color="#0179B4"/>
</linearGradient>
</defs>
</svg>
