<svg width="458" height="99" viewBox="0 0 458 99" fill="none" xmlns="http://www.w3.org/2000/svg">
<path d="M11.2813 33.1531V19.5696L0 1.43194e-06H6.46947L14.0901 13.2152L21.6877 1.43194e-06H28.1571L16.8989 19.5696V33.1531H11.2813ZM38.6671 33.8438C36.1807 33.8438 34.0088 33.2836 32.1516 32.1631C30.2944 31.0427 28.8517 29.5002 27.8233 27.5355C26.8103 25.5555 26.3038 23.2839 26.3038 20.7207C26.3038 18.1114 26.8256 15.8245 27.8694 13.8599C28.9131 11.8952 30.3635 10.3604 32.2207 9.25525C34.0779 8.15015 36.2267 7.5976 38.6671 7.5976C41.169 7.5976 43.3485 8.15782 45.2057 9.27827C47.0629 10.3987 48.5056 11.9489 49.534 13.9289C50.5624 15.8936 51.0766 18.1575 51.0766 20.7207C51.0766 23.2993 50.5547 25.5786 49.511 27.5585C48.4826 29.5232 47.0398 31.0657 45.1827 32.1862C43.3255 33.2913 41.1536 33.8438 38.6671 33.8438ZM38.6671 28.6406C40.8774 28.6406 42.5197 27.9039 43.5941 26.4304C44.6685 24.9569 45.2057 23.0537 45.2057 20.7207C45.2057 18.311 44.6608 16.3924 43.571 14.965C42.4813 13.5222 40.8467 12.8008 38.6671 12.8008C37.1783 12.8008 35.9504 13.1385 34.9835 13.8138C34.0318 14.4738 33.3258 15.4024 32.8653 16.5996C32.4049 17.7814 32.1747 19.1551 32.1747 20.7207C32.1747 23.1305 32.7195 25.0567 33.8093 26.4995C34.9144 27.9269 36.5337 28.6406 38.6671 28.6406ZM65.4735 33.8669C63.6316 33.8669 62.1121 33.5599 60.9149 32.9459C59.7177 32.332 58.7661 31.5492 58.0601 30.5976C57.354 29.646 56.8322 28.633 56.4945 27.5585C56.1568 26.4841 55.9343 25.4711 55.8268 24.5195C55.7348 23.5525 55.6887 22.7698 55.6887 22.1712V8.28829H61.3063V20.2603C61.3063 21.0277 61.36 21.8949 61.4675 22.8619C61.5749 23.8135 61.8205 24.7344 62.2042 25.6246C62.6033 26.4995 63.1865 27.2209 63.954 27.7888C64.7368 28.3567 65.7881 28.6406 67.1081 28.6406C67.8142 28.6406 68.5125 28.5255 69.2032 28.2953C69.8939 28.0651 70.5155 27.6737 71.0681 27.1211C71.636 26.5532 72.0888 25.7781 72.4264 24.7958C72.7641 23.8135 72.9329 22.5702 72.9329 21.0661L76.2252 22.4705C76.2252 24.5886 75.8108 26.5072 74.982 28.2262C74.1685 29.9453 72.9636 31.319 71.3674 32.3473C69.7711 33.3603 67.8065 33.8669 65.4735 33.8669ZM73.6006 33.1531V25.4404H72.9329V8.28829H78.5045V33.1531H73.6006ZM84.9729 33.1531V8.28829H89.8768V14.3433L89.2782 13.5606C89.5852 12.7317 89.9919 11.9796 90.4984 11.3043C91.0203 10.6136 91.6419 10.0457 92.3633 9.6006C92.9772 9.18618 93.6526 8.86386 94.3893 8.63363C95.1414 8.38805 95.9088 8.24224 96.6916 8.19619C97.4744 8.1348 98.2342 8.1655 98.9709 8.28829V13.4685C98.2342 13.2536 97.3823 13.1845 96.4153 13.2613C95.4637 13.338 94.6042 13.6066 93.8368 14.0671C93.0693 14.4815 92.44 15.011 91.9489 15.6556C91.4731 16.3003 91.12 17.037 90.8898 17.8659C90.6596 18.6793 90.5445 19.5619 90.5445 20.5135V33.1531H84.9729ZM3.68368 58.5665V53.4785H9.23223V58.5665H3.68368ZM3.68368 87.2072V62.3423H9.23223V87.2072H3.68368ZM33.3269 87.2072V75.2352C33.3269 74.4524 33.2732 73.5852 33.1657 72.6336C33.0583 71.682 32.805 70.7687 32.406 69.8939C32.0223 69.0036 31.439 68.2746 30.6562 67.7067C29.8888 67.1388 28.8451 66.8548 27.5251 66.8548C26.8191 66.8548 26.1207 66.9699 25.43 67.2002C24.7393 67.4304 24.11 67.8295 23.5421 68.3974C22.9896 68.9499 22.5444 69.7174 22.2068 70.6997C21.8691 71.6666 21.7003 72.9099 21.7003 74.4294L18.408 73.025C18.408 70.9069 18.8147 68.9883 19.6282 67.2692C20.457 65.5502 21.6696 64.1842 23.2658 63.1711C24.8621 62.1428 26.8267 61.6286 29.1597 61.6286C31.0016 61.6286 32.5211 61.9356 33.7183 62.5495C34.9155 63.1635 35.8671 63.9462 36.5731 64.8979C37.2792 65.8495 37.801 66.8625 38.1387 67.9369C38.4764 69.0113 38.6913 70.032 38.7833 70.999C38.8908 71.9506 38.9445 72.7257 38.9445 73.3243V87.2072H33.3269ZM16.0827 87.2072V62.3423H21.0326V70.055H21.7003V87.2072H16.0827ZM64.1396 87.8979C61.8526 87.8979 59.8573 87.3223 58.1536 86.1711C56.4499 85.02 55.1299 83.4544 54.1937 81.4744C53.2574 79.4945 52.7892 77.2612 52.7892 74.7747C52.7892 72.2576 53.2574 70.0166 54.1937 68.052C55.1453 66.072 56.4883 64.5141 58.2227 63.3783C59.9571 62.2272 61.9985 61.6516 64.3468 61.6516C66.7105 61.6516 68.6905 62.2272 70.2867 63.3783C71.8983 64.5141 73.1186 66.072 73.9474 68.052C74.7762 70.032 75.1906 72.2729 75.1906 74.7747C75.1906 77.2459 74.7762 79.4791 73.9474 81.4744C73.1186 83.4544 71.883 85.02 70.2407 86.1711C68.5984 87.3223 66.5647 87.8979 64.1396 87.8979ZM64.9914 82.9249C66.4803 82.9249 67.6775 82.5872 68.583 81.9119C69.504 81.2212 70.1716 80.2619 70.586 79.034C71.0158 77.8061 71.2307 76.3863 71.2307 74.7747C71.2307 73.1478 71.0158 71.728 70.586 70.5155C70.1716 69.2876 69.5193 68.336 68.6291 67.6606C67.7389 66.9699 66.5877 66.6246 65.1756 66.6246C63.6868 66.6246 62.4589 66.993 61.4919 67.7297C60.525 68.4511 59.8113 69.4334 59.3508 70.6766C58.8903 71.9045 58.6601 73.2706 58.6601 74.7747C58.6601 76.2943 58.8827 77.6756 59.3278 78.9189C59.7882 80.1468 60.4866 81.1214 61.4229 81.8428C62.3591 82.5642 63.5487 82.9249 64.9914 82.9249ZM71.2307 87.2072V69.7557H70.54V54.054H76.1346V87.2072H71.2307ZM83.0501 58.5665V53.4785H88.5987V58.5665H83.0501ZM83.0501 87.2072V62.3423H88.5987V87.2072H83.0501ZM105.948 98.9489C104.566 98.9489 103.239 98.734 101.965 98.3043C100.706 97.8745 99.5702 97.2529 98.5572 96.4394C97.5442 95.6413 96.7154 94.6743 96.0707 93.5385L101.182 91.006C101.658 91.9115 102.325 92.5792 103.185 93.009C104.06 93.4541 104.988 93.6766 105.971 93.6766C107.122 93.6766 108.15 93.4694 109.056 93.055C109.961 92.6559 110.66 92.0573 111.151 91.2592C111.657 90.4764 111.895 89.4941 111.864 88.3123V81.2442H112.555V62.3423H117.413V88.4044C117.413 89.0337 117.382 89.6323 117.321 90.2002C117.275 90.7834 117.19 91.3513 117.068 91.9039C116.699 93.5155 115.993 94.8355 114.95 95.8638C113.906 96.9075 112.609 97.6826 111.059 98.1891C109.524 98.6956 107.82 98.9489 105.948 98.9489ZM105.464 87.8979C103.177 87.8979 101.182 87.3223 99.4781 86.1711C97.7744 85.02 96.4544 83.4544 95.5182 81.4744C94.5819 79.4945 94.1138 77.2612 94.1138 74.7747C94.1138 72.2576 94.5819 70.0166 95.5182 68.052C96.4698 66.072 97.8128 64.5141 99.5472 63.3783C101.282 62.2272 103.323 61.6516 105.671 61.6516C108.035 61.6516 110.015 62.2272 111.611 63.3783C113.223 64.5141 114.443 66.072 115.272 68.052C116.101 70.032 116.515 72.2729 116.515 74.7747C116.515 77.2459 116.101 79.4791 115.272 81.4744C114.443 83.4544 113.208 85.02 111.565 86.1711C109.923 87.3223 107.889 87.8979 105.464 87.8979ZM106.316 82.9249C107.805 82.9249 109.002 82.5872 109.908 81.9119C110.828 81.2212 111.496 80.2619 111.911 79.034C112.34 77.8061 112.555 76.3863 112.555 74.7747C112.555 73.1478 112.34 71.728 111.911 70.5155C111.496 69.2876 110.844 68.336 109.954 67.6606C109.063 66.9699 107.912 66.6246 106.5 66.6246C105.011 66.6246 103.783 66.993 102.816 67.7297C101.849 68.4511 101.136 69.4334 100.675 70.6766C100.215 71.9045 99.9846 73.2706 99.9846 74.7747C99.9846 76.2943 100.207 77.6756 100.652 78.9189C101.113 80.1468 101.811 81.1214 102.747 81.8428C103.684 82.5642 104.873 82.9249 106.316 82.9249ZM124.33 58.5665V53.4785H129.878V58.5665H124.33ZM124.33 87.2072V62.3423H129.878V87.2072H124.33ZM151.348 87.2072C149.706 87.5141 148.094 87.6446 146.513 87.5986C144.948 87.5679 143.543 87.2839 142.3 86.7467C141.057 86.1942 140.113 85.327 139.468 84.1451C138.9 83.0707 138.601 81.9733 138.57 80.8528C138.54 79.7324 138.524 78.4661 138.524 77.054V55.4354H144.05V76.7317C144.05 77.7294 144.058 78.6042 144.073 79.3563C144.104 80.1084 144.265 80.7223 144.556 81.1982C145.109 82.1191 145.992 82.6333 147.204 82.7407C148.417 82.8481 149.798 82.7867 151.348 82.5565V87.2072ZM134.012 66.6937V62.3423H151.348V66.6937H134.012ZM163.648 87.8979C161.852 87.8979 160.333 87.5602 159.089 86.8848C157.846 86.1942 156.902 85.2809 156.258 84.1451C155.628 83.0093 155.314 81.7584 155.314 80.3924C155.314 79.1952 155.513 78.1207 155.912 77.1691C156.311 76.2022 156.925 75.3733 157.754 74.6826C158.583 73.9766 159.657 73.401 160.977 72.9559C161.975 72.6336 163.141 72.342 164.477 72.081C165.827 71.8201 167.286 71.5822 168.851 71.3673C170.432 71.1371 172.082 70.8915 173.801 70.6306L171.821 71.7587C171.836 70.0397 171.453 68.7734 170.67 67.9599C169.887 67.1464 168.567 66.7397 166.71 66.7397C165.59 66.7397 164.507 67.0006 163.464 67.5225C162.42 68.0443 161.691 68.9422 161.277 70.2162L156.211 68.6276C156.825 66.5248 157.992 64.8365 159.711 63.5625C161.445 62.2886 163.778 61.6516 166.71 61.6516C168.92 61.6516 170.862 62.0123 172.535 62.7337C174.223 63.4551 175.474 64.6369 176.288 66.2792C176.733 67.1541 177.001 68.052 177.093 68.9729C177.185 69.8785 177.232 70.8685 177.232 71.9429V87.2072H172.374V81.8198L173.179 82.6947C172.059 84.4904 170.747 85.8104 169.243 86.6546C167.754 87.4834 165.889 87.8979 163.648 87.8979ZM164.753 83.4774C166.012 83.4774 167.086 83.2549 167.976 82.8098C168.866 82.3647 169.573 81.8198 170.094 81.1751C170.632 80.5305 170.992 79.9242 171.176 79.3563C171.468 78.6503 171.629 77.8445 171.66 76.9389C171.706 76.018 171.729 75.2736 171.729 74.7057L173.433 75.2122C171.76 75.4731 170.325 75.7033 169.127 75.9029C167.93 76.1024 166.902 76.2943 166.042 76.4784C165.183 76.6473 164.423 76.8391 163.763 77.054C163.118 77.2842 162.574 77.5528 162.128 77.8598C161.683 78.1668 161.338 78.5198 161.092 78.9189C160.862 79.3179 160.747 79.7861 160.747 80.3233C160.747 80.9372 160.901 81.4821 161.207 81.9579C161.514 82.4184 161.96 82.7867 162.543 83.063C163.141 83.3393 163.878 83.4774 164.753 83.4774ZM183.686 87.2072V53.3633H189.234V87.2072H183.686ZM222.547 87.2072V75.2352C222.547 74.4524 222.494 73.5852 222.386 72.6336C222.279 71.682 222.025 70.7687 221.626 69.8939C221.243 69.0036 220.659 68.2746 219.877 67.7067C219.109 67.1388 218.065 66.8548 216.745 66.8548C216.039 66.8548 215.341 66.9699 214.65 67.2002C213.96 67.4304 213.33 67.8295 212.762 68.3974C212.21 68.9499 211.765 69.7174 211.427 70.6997C211.089 71.6666 210.921 72.9099 210.921 74.4294L207.628 73.025C207.628 70.9069 208.035 68.9883 208.849 67.2692C209.677 65.5502 210.89 64.1842 212.486 63.1711C214.082 62.1428 216.047 61.6286 218.38 61.6286C220.222 61.6286 221.741 61.9356 222.939 62.5495C224.136 63.1635 225.087 63.9462 225.794 64.8979C226.5 65.8495 227.021 66.8625 227.359 67.9369C227.697 69.0113 227.912 70.032 228.004 70.999C228.111 71.9506 228.165 72.7257 228.165 73.3243V87.2072H222.547ZM205.303 87.2072V54.054H210.253V71.5055H210.921V87.2072H205.303ZM245.477 87.8979C242.96 87.8979 240.75 87.353 238.846 86.2632C236.943 85.1735 235.454 83.6616 234.38 81.7277C233.321 79.7938 232.791 77.5682 232.791 75.051C232.791 72.3343 233.313 69.9783 234.357 67.9829C235.401 65.9723 236.851 64.4144 238.708 63.3093C240.566 62.2042 242.714 61.6516 245.155 61.6516C247.733 61.6516 249.921 62.2579 251.716 63.4704C253.527 64.6676 254.87 66.3637 255.745 68.5585C256.62 70.7534 256.95 73.3396 256.735 76.3173H251.233V74.2913C251.218 71.5899 250.742 69.6176 249.805 68.3743C248.869 67.1311 247.396 66.5095 245.385 66.5095C243.113 66.5095 241.425 67.2155 240.32 68.6276C239.215 70.0243 238.662 72.0734 238.662 74.7747C238.662 77.2919 239.215 79.2412 240.32 80.6226C241.425 82.004 243.037 82.6947 245.155 82.6947C246.521 82.6947 247.695 82.3954 248.677 81.7968C249.675 81.1828 250.442 80.3003 250.98 79.1491L256.459 80.8068C255.507 83.0477 254.034 84.7897 252.039 86.033C250.059 87.2762 247.871 87.8979 245.477 87.8979ZM236.913 76.3173V72.1271H254.019V76.3173H236.913ZM268.376 87.8979C266.58 87.8979 265.06 87.5602 263.817 86.8848C262.574 86.1942 261.63 85.2809 260.985 84.1451C260.356 83.0093 260.041 81.7584 260.041 80.3924C260.041 79.1952 260.241 78.1207 260.64 77.1691C261.039 76.2022 261.653 75.3733 262.482 74.6826C263.311 73.9766 264.385 73.401 265.705 72.9559C266.703 72.6336 267.869 72.342 269.204 72.081C270.555 71.8201 272.013 71.5822 273.579 71.3673C275.16 71.1371 276.81 70.8915 278.529 70.6306L276.549 71.7587C276.564 70.0397 276.18 68.7734 275.398 67.9599C274.615 67.1464 273.295 66.7397 271.438 66.7397C270.317 66.7397 269.235 67.0006 268.191 67.5225C267.148 68.0443 266.419 68.9422 266.004 70.2162L260.939 68.6276C261.553 66.5248 262.72 64.8365 264.439 63.5625C266.173 62.2886 268.506 61.6516 271.438 61.6516C273.648 61.6516 275.59 62.0123 277.263 62.7337C278.951 63.4551 280.202 64.6369 281.015 66.2792C281.46 67.1541 281.729 68.052 281.821 68.9729C281.913 69.8785 281.959 70.8685 281.959 71.9429V87.2072H277.101V81.8198L277.907 82.6947C276.787 84.4904 275.474 85.8104 273.97 86.6546C272.481 87.4834 270.617 87.8979 268.376 87.8979ZM269.481 83.4774C270.739 83.4774 271.814 83.2549 272.704 82.8098C273.594 82.3647 274.3 81.8198 274.822 81.1751C275.359 80.5305 275.72 79.9242 275.904 79.3563C276.196 78.6503 276.357 77.8445 276.388 76.9389C276.434 76.018 276.457 75.2736 276.457 74.7057L278.16 75.2122C276.487 75.4731 275.052 75.7033 273.855 75.9029C272.658 76.1024 271.63 76.2943 270.77 76.4784C269.911 76.6473 269.151 76.8391 268.491 77.054C267.846 77.2842 267.301 77.5528 266.856 77.8598C266.411 78.1668 266.066 78.5198 265.82 78.9189C265.59 79.3179 265.475 79.7861 265.475 80.3233C265.475 80.9372 265.628 81.4821 265.935 81.9579C266.242 82.4184 266.687 82.7867 267.271 83.063C267.869 83.3393 268.606 83.4774 269.481 83.4774ZM288.414 87.2072V53.3633H293.962V87.2072H288.414ZM315.432 87.2072C313.79 87.5141 312.178 87.6446 310.597 87.5986C309.032 87.5679 307.627 87.2839 306.384 86.7467C305.141 86.1942 304.197 85.327 303.552 84.1451C302.984 83.0707 302.685 81.9733 302.654 80.8528C302.624 79.7324 302.608 78.4661 302.608 77.054V55.4354H308.134V76.7317C308.134 77.7294 308.142 78.6042 308.157 79.3563C308.188 80.1084 308.349 80.7223 308.64 81.1982C309.193 82.1191 310.075 82.6333 311.288 82.7407C312.501 82.8481 313.882 82.7867 315.432 82.5565V87.2072ZM298.096 66.6937V62.3423H315.432V66.6937H298.096ZM337.977 87.2072V75.2352C337.977 74.4524 337.923 73.5852 337.816 72.6336C337.708 71.682 337.455 70.7687 337.056 69.8939C336.672 69.0036 336.089 68.2746 335.306 67.7067C334.539 67.1388 333.495 66.8548 332.175 66.8548C331.469 66.8548 330.771 66.9699 330.08 67.2002C329.39 67.4304 328.76 67.8295 328.192 68.3974C327.64 68.9499 327.195 69.7174 326.857 70.6997C326.519 71.6666 326.35 72.9099 326.35 74.4294L323.058 73.025C323.058 70.9069 323.465 68.9883 324.278 67.2692C325.107 65.5502 326.32 64.1842 327.916 63.1711C329.512 62.1428 331.477 61.6286 333.81 61.6286C335.652 61.6286 337.171 61.9356 338.368 62.5495C339.566 63.1635 340.517 63.9462 341.223 64.8979C341.929 65.8495 342.451 66.8625 342.789 67.9369C343.127 69.0113 343.341 70.032 343.434 70.999C343.541 71.9506 343.595 72.7257 343.595 73.3243V87.2072H337.977ZM320.733 87.2072V54.054H325.683V71.5055H326.35V87.2072H320.733ZM360.4 87.8979C357.837 87.8979 355.65 87.33 353.839 86.1942C352.028 85.043 350.639 83.4774 349.672 81.4975C348.72 79.5175 348.237 77.2766 348.221 74.7747C348.237 72.2269 348.735 69.9706 349.718 68.006C350.715 66.026 352.127 64.4758 353.954 63.3553C355.78 62.2195 357.952 61.6516 360.469 61.6516C363.294 61.6516 365.68 62.3653 367.63 63.7928C369.594 65.2048 370.876 67.1388 371.474 69.5946L365.949 71.0911C365.519 69.7557 364.805 68.7197 363.808 67.9829C362.81 67.2309 361.674 66.8548 360.4 66.8548C358.958 66.8548 357.768 67.2002 356.832 67.8909C355.896 68.5662 355.205 69.5025 354.76 70.6997C354.315 71.8969 354.092 73.2552 354.092 74.7747C354.092 77.1384 354.622 79.0493 355.681 80.5075C356.74 81.9656 358.313 82.6947 360.4 82.6947C361.874 82.6947 363.033 82.357 363.877 81.6816C364.736 81.0063 365.381 80.0317 365.811 78.7577L371.474 80.024C370.707 82.5565 369.364 84.5058 367.445 85.8718C365.527 87.2225 363.179 87.8979 360.4 87.8979ZM382.636 87.8979C380.841 87.8979 379.321 87.5602 378.078 86.8848C376.835 86.1942 375.891 85.2809 375.246 84.1451C374.617 83.0093 374.302 81.7584 374.302 80.3924C374.302 79.1952 374.502 78.1207 374.901 77.1691C375.3 76.2022 375.914 75.3733 376.742 74.6826C377.571 73.9766 378.646 73.401 379.966 72.9559C380.963 72.6336 382.13 72.342 383.465 72.081C384.816 71.8201 386.274 71.5822 387.84 71.3673C389.42 71.1371 391.07 70.8915 392.789 70.6306L390.809 71.7587C390.825 70.0397 390.441 68.7734 389.658 67.9599C388.876 67.1464 387.556 66.7397 385.698 66.7397C384.578 66.7397 383.496 67.0006 382.452 67.5225C381.408 68.0443 380.679 68.9422 380.265 70.2162L375.2 68.6276C375.814 66.5248 376.98 64.8365 378.699 63.5625C380.434 62.2886 382.767 61.6516 385.698 61.6516C387.909 61.6516 389.85 62.0123 391.523 62.7337C393.212 63.4551 394.462 64.6369 395.276 66.2792C395.721 67.1541 395.99 68.052 396.082 68.9729C396.174 69.8785 396.22 70.8685 396.22 71.9429V87.2072H391.362V81.8198L392.168 82.6947C391.047 84.4904 389.735 85.8104 388.231 86.6546C386.742 87.4834 384.877 87.8979 382.636 87.8979ZM383.741 83.4774C385 83.4774 386.074 83.2549 386.965 82.8098C387.855 82.3647 388.561 81.8198 389.083 81.1751C389.62 80.5305 389.981 79.9242 390.165 79.3563C390.456 78.6503 390.618 77.8445 390.648 76.9389C390.694 76.018 390.717 75.2736 390.717 74.7057L392.421 75.2122C390.748 75.4731 389.313 75.7033 388.116 75.9029C386.919 76.1024 385.89 76.2943 385.031 76.4784C384.171 76.6473 383.411 76.8391 382.751 77.054C382.107 77.2842 381.562 77.5528 381.117 77.8598C380.672 78.1668 380.326 78.5198 380.081 78.9189C379.851 79.3179 379.735 79.7861 379.735 80.3233C379.735 80.9372 379.889 81.4821 380.196 81.9579C380.503 82.4184 380.948 82.7867 381.531 83.063C382.13 83.3393 382.867 83.4774 383.741 83.4774ZM402.214 87.2072V62.3423H407.118V68.3974L406.519 67.6146C406.826 66.7858 407.233 66.0337 407.739 65.3583C408.261 64.6676 408.883 64.0997 409.604 63.6546C410.218 63.2402 410.893 62.9179 411.63 62.6877C412.382 62.4421 413.15 62.2963 413.933 62.2502C414.715 62.1888 415.475 62.2195 416.212 62.3423V67.5225C415.475 67.3076 414.623 67.2385 413.656 67.3153C412.705 67.392 411.845 67.6606 411.078 68.1211C410.31 68.5355 409.681 69.065 409.19 69.7097C408.714 70.3543 408.361 71.0911 408.131 71.9199C407.9 72.7334 407.785 73.6159 407.785 74.5675V87.2072H402.214ZM431.46 87.8979C428.943 87.8979 426.732 87.353 424.829 86.2632C422.926 85.1735 421.437 83.6616 420.363 81.7277C419.304 79.7938 418.774 77.5682 418.774 75.051C418.774 72.3343 419.296 69.9783 420.34 67.9829C421.383 65.9723 422.834 64.4144 424.691 63.3093C426.548 62.2042 428.697 61.6516 431.138 61.6516C433.716 61.6516 435.903 62.2579 437.699 63.4704C439.51 64.6676 440.853 66.3637 441.728 68.5585C442.603 70.7534 442.933 73.3396 442.718 76.3173H437.216V74.2913C437.2 71.5899 436.724 69.6176 435.788 68.3743C434.852 67.1311 433.378 66.5095 431.368 66.5095C429.096 66.5095 427.408 67.2155 426.303 68.6276C425.198 70.0243 424.645 72.0734 424.645 74.7747C424.645 77.2919 425.198 79.2412 426.303 80.6226C427.408 82.004 429.019 82.6947 431.138 82.6947C432.504 82.6947 433.678 82.3954 434.66 81.7968C435.658 81.1828 436.425 80.3003 436.962 79.1491L442.442 80.8068C441.49 83.0477 440.017 84.7897 438.021 86.033C436.041 87.2762 433.854 87.8979 431.46 87.8979ZM422.895 76.3173V72.1271H440.001V76.3173H422.895ZM447.877 87.2072V81.5205H453.563V87.2072H447.877Z" fill="#3D3D3D"/>
<path d="M127.501 33.1531C125.782 33.4755 124.094 33.6136 122.436 33.5676C120.794 33.5369 119.321 33.2529 118.016 32.7157C116.727 32.1631 115.744 31.2806 115.069 30.0681C114.455 28.9323 114.133 27.7811 114.102 26.6146C114.071 25.4328 114.056 24.0974 114.056 22.6086V1.38138H120.318V22.2402C120.318 23.2072 120.326 24.0821 120.341 24.8649C120.372 25.6323 120.533 26.2462 120.825 26.7067C121.377 27.5816 122.26 28.0574 123.472 28.1341C124.685 28.2109 126.028 28.1495 127.501 27.9499V33.1531ZM109.82 13.1231V8.28829H127.501V13.1231H109.82ZM133.042 33.1531V8.28829H138.568V14.3664L137.969 13.5836C138.292 12.7241 138.721 11.9413 139.259 11.2352C139.796 10.5292 140.456 9.94594 141.239 9.48548C141.837 9.11711 142.49 8.83316 143.196 8.63363C143.902 8.41875 144.631 8.28829 145.383 8.24224C146.135 8.18084 146.887 8.19619 147.639 8.28829V14.1361C146.948 13.9212 146.143 13.8522 145.222 13.9289C144.316 13.9903 143.495 14.1975 142.758 14.5505C142.021 14.8882 141.4 15.341 140.893 15.9089C140.387 16.4615 140.003 17.1214 139.742 17.8889C139.481 18.641 139.351 19.4928 139.351 20.4444V33.1531H133.042ZM161.274 33.8899C159.324 33.8899 157.736 33.5599 156.508 32.8999C155.28 32.2399 154.321 31.4034 153.63 30.3904C152.955 29.3774 152.471 28.326 152.18 27.2362C151.888 26.1311 151.711 25.1258 151.65 24.2202C151.589 23.3146 151.558 22.6546 151.558 22.2402V8.28829H157.912V20.03C157.912 20.5979 157.943 21.327 158.004 22.2172C158.066 23.0921 158.258 23.9746 158.58 24.8649C158.902 25.7551 159.424 26.4995 160.146 27.0981C160.882 27.6967 161.918 27.996 163.254 27.996C163.791 27.996 164.366 27.9116 164.98 27.7427C165.594 27.5739 166.17 27.2516 166.707 26.7758C167.244 26.2846 167.682 25.5709 168.019 24.6346C168.372 23.683 168.549 22.4398 168.549 20.9049L172.141 22.6086C172.141 24.5732 171.741 26.4151 170.943 28.1341C170.145 29.8532 168.94 31.2422 167.329 32.3013C165.732 33.3603 163.714 33.8899 161.274 33.8899ZM169.332 33.1531V24.9109H168.549V8.28829H174.857V33.1531H169.332ZM191.008 33.8438C187.876 33.8438 185.344 33.1378 183.41 31.7257C181.491 30.2983 180.325 28.2876 179.91 25.6937L186.311 24.7267C186.572 25.8932 187.147 26.8065 188.038 27.4665C188.943 28.1264 190.087 28.4564 191.468 28.4564C192.604 28.4564 193.479 28.2416 194.093 27.8118C194.707 27.3667 195.014 26.7527 195.014 25.97C195.014 25.4788 194.891 25.0874 194.645 24.7958C194.4 24.4888 193.847 24.1895 192.988 23.8979C192.143 23.6063 190.823 23.2225 189.028 22.7467C187.002 22.2249 185.382 21.6416 184.17 20.997C182.957 20.3523 182.082 19.5849 181.545 18.6947C181.008 17.7891 180.739 16.6994 180.739 15.4254C180.739 13.8292 181.146 12.4478 181.959 11.2813C182.773 10.0994 183.916 9.19386 185.39 8.56456C186.879 7.91992 188.628 7.5976 190.639 7.5976C192.588 7.5976 194.315 7.89689 195.819 8.49549C197.324 9.09409 198.536 9.94594 199.457 11.051C200.393 12.1562 200.969 13.4608 201.184 14.965L194.783 16.1161C194.676 15.1952 194.277 14.4661 193.586 13.9289C192.895 13.3917 191.959 13.0771 190.777 12.985C189.626 12.9082 188.698 13.0617 187.992 13.4454C187.301 13.8292 186.955 14.3817 186.955 15.1031C186.955 15.5329 187.101 15.8936 187.393 16.1852C187.7 16.4768 188.322 16.7761 189.258 17.0831C190.209 17.39 191.652 17.7891 193.586 18.2803C195.474 18.7714 196.986 19.347 198.122 20.007C199.273 20.6516 200.109 21.4344 200.631 22.3553C201.153 23.2609 201.414 24.3583 201.414 25.6476C201.414 28.1955 200.493 30.1985 198.651 31.6566C196.809 33.1148 194.261 33.8438 191.008 33.8438ZM221.392 33.1531C219.673 33.4755 217.985 33.6136 216.327 33.5676C214.685 33.5369 213.211 33.2529 211.907 32.7157C210.617 32.1631 209.635 31.2806 208.96 30.0681C208.346 28.9323 208.023 27.7811 207.993 26.6146C207.962 25.4328 207.947 24.0974 207.947 22.6086V1.38138H214.209V22.2402C214.209 23.2072 214.217 24.0821 214.232 24.8649C214.263 25.6323 214.424 26.2462 214.715 26.7067C215.268 27.5816 216.151 28.0574 217.363 28.1341C218.576 28.2109 219.919 28.1495 221.392 27.9499V33.1531ZM203.71 13.1231V8.28829H221.392V13.1231H203.71ZM237.097 33.8438C234.549 33.8438 232.3 33.299 230.351 32.2092C228.417 31.1041 226.898 29.5922 225.792 27.6737C224.703 25.7397 224.158 23.5295 224.158 21.043C224.158 18.3263 224.695 15.9626 225.769 13.9519C226.844 11.9413 228.325 10.3834 230.213 9.27827C232.101 8.15782 234.273 7.5976 236.728 7.5976C239.338 7.5976 241.556 8.21154 243.382 9.43944C245.208 10.6673 246.559 12.3941 247.434 14.6196C248.309 16.8452 248.616 19.4621 248.355 22.4705H242.162V20.1682C242.162 17.6356 241.755 15.8168 240.942 14.7117C240.143 13.5913 238.831 13.031 237.005 13.031C234.871 13.031 233.298 13.6833 232.285 14.988C231.287 16.2773 230.788 18.1882 230.788 20.7207C230.788 23.0384 231.287 24.8342 232.285 26.1081C233.298 27.3667 234.779 27.996 236.728 27.996C237.956 27.996 239.008 27.7274 239.883 27.1902C240.757 26.653 241.425 25.8779 241.886 24.8649L248.148 26.6606C247.212 28.9323 245.73 30.6974 243.704 31.9559C241.694 33.2145 239.491 33.8438 237.097 33.8438ZM228.854 22.4705V17.8198H245.339V22.4705H228.854ZM263.638 33.8438C261.351 33.8438 259.348 33.2683 257.629 32.1171C255.91 30.966 254.567 29.4004 253.6 27.4204C252.648 25.4404 252.172 23.2072 252.172 20.7207C252.172 18.1882 252.656 15.9396 253.623 13.975C254.605 11.995 255.979 10.4371 257.744 9.3013C259.509 8.1655 261.581 7.5976 263.96 7.5976C266.324 7.5976 268.311 8.17317 269.923 9.32432C271.534 10.4755 272.755 12.041 273.584 14.021C274.412 16.001 274.827 18.2342 274.827 20.7207C274.827 23.2072 274.405 25.4404 273.56 27.4204C272.732 29.4004 271.488 30.966 269.831 32.1171C268.173 33.2683 266.109 33.8438 263.638 33.8438ZM264.651 28.2723C266.047 28.2723 267.16 27.9576 267.989 27.3283C268.833 26.699 269.439 25.8165 269.808 24.6807C270.176 23.5449 270.36 22.2249 270.36 20.7207C270.36 19.2165 270.176 17.8966 269.808 16.7608C269.439 15.625 268.848 14.7424 268.035 14.1131C267.237 13.4838 266.185 13.1692 264.881 13.1692C263.484 13.1692 262.333 13.5145 261.427 14.2052C260.537 14.8805 259.877 15.7938 259.447 16.9449C259.018 18.0807 258.803 19.3393 258.803 20.7207C258.803 22.1174 259.01 23.3914 259.424 24.5425C259.839 25.6783 260.476 26.5839 261.335 27.2592C262.195 27.9346 263.3 28.2723 264.651 28.2723ZM270.36 33.1531V16.1161H269.578V1.43194e-06H275.886V33.1531H270.36ZM303.753 33.8438C301.282 33.8438 299.217 33.2683 297.559 32.1171C295.902 30.966 294.651 29.4004 293.807 27.4204C292.978 25.4404 292.563 23.2072 292.563 20.7207C292.563 18.2342 292.978 16.001 293.807 14.021C294.636 12.041 295.856 10.4755 297.467 9.32432C299.079 8.17317 301.067 7.5976 303.43 7.5976C305.809 7.5976 307.881 8.1655 309.647 9.3013C311.412 10.4371 312.778 11.995 313.745 13.975C314.727 15.9396 315.218 18.1882 315.218 20.7207C315.218 23.2072 314.735 25.4404 313.768 27.4204C312.816 29.4004 311.481 30.966 309.762 32.1171C308.043 33.2683 306.04 33.8438 303.753 33.8438ZM291.504 44.2042V8.28829H297.03V25.3253H297.813V44.2042H291.504ZM302.74 28.2723C304.09 28.2723 305.195 27.9346 306.055 27.2592C306.914 26.5839 307.551 25.6783 307.966 24.5425C308.38 23.3914 308.587 22.1174 308.587 20.7207C308.587 19.3393 308.373 18.0807 307.943 16.9449C307.513 15.7938 306.845 14.8805 305.94 14.2052C305.05 13.5145 303.906 13.1692 302.509 13.1692C301.205 13.1692 300.146 13.4838 299.332 14.1131C298.534 14.7424 297.951 15.625 297.582 16.7608C297.214 17.8966 297.03 19.2165 297.03 20.7207C297.03 22.2249 297.214 23.5449 297.582 24.6807C297.951 25.8165 298.549 26.699 299.378 27.3283C300.222 27.9576 301.343 28.2723 302.74 28.2723ZM327.191 33.8438C325.411 33.8438 323.899 33.5062 322.656 32.8308C321.428 32.1401 320.491 31.2269 319.847 30.0911C319.218 28.9399 318.903 27.6737 318.903 26.2923C318.903 25.1411 319.079 24.0897 319.432 23.1381C319.785 22.1865 320.353 21.35 321.136 20.6286C321.934 19.8919 323.001 19.2779 324.336 18.7868C325.257 18.4491 326.355 18.1498 327.629 17.8889C328.903 17.628 330.345 17.3824 331.957 17.1521C333.569 16.9066 335.341 16.638 337.275 16.3463L335.019 17.5896C335.019 16.1161 334.666 15.034 333.96 14.3433C333.254 13.6526 332.072 13.3073 330.414 13.3073C329.493 13.3073 328.534 13.5299 327.537 13.975C326.539 14.4201 325.84 15.2105 325.441 16.3463L319.778 14.5505C320.407 12.4938 321.589 10.8208 323.323 9.53153C325.058 8.24224 327.421 7.5976 330.414 7.5976C332.609 7.5976 334.559 7.93527 336.262 8.61061C337.966 9.28595 339.255 10.4524 340.13 12.1101C340.621 13.031 340.913 13.9519 341.005 14.8729C341.097 15.7938 341.143 16.8221 341.143 17.958V33.1531H335.664V28.042L336.446 29.1011C335.234 30.7741 333.922 31.9866 332.509 32.7387C331.113 33.4755 329.34 33.8438 327.191 33.8438ZM328.526 28.9169C329.678 28.9169 330.645 28.7174 331.427 28.3183C332.226 27.9039 332.855 27.4358 333.315 26.9139C333.791 26.392 334.113 25.9546 334.282 25.6016C334.605 24.9262 334.789 24.1435 334.835 23.2532C334.896 22.3477 334.927 21.5956 334.927 20.997L336.769 21.4574C334.912 21.7644 333.407 22.0253 332.256 22.2402C331.105 22.4398 330.176 22.6239 329.47 22.7928C328.764 22.9616 328.143 23.1458 327.606 23.3453C326.992 23.5909 326.493 23.8595 326.109 24.1511C325.741 24.4274 325.464 24.7344 325.28 25.0721C325.111 25.4097 325.027 25.7858 325.027 26.2002C325.027 26.7681 325.165 27.2592 325.441 27.6737C325.733 28.0727 326.14 28.3797 326.662 28.5946C327.183 28.8095 327.805 28.9169 328.526 28.9169ZM347.129 33.1531V8.28829H352.655V14.3664L352.056 13.5836C352.379 12.7241 352.808 11.9413 353.346 11.2352C353.883 10.5292 354.543 9.94594 355.326 9.48548C355.924 9.11711 356.577 8.83316 357.283 8.63363C357.989 8.41875 358.718 8.28829 359.47 8.24224C360.222 8.18084 360.974 8.19619 361.726 8.28829V14.1361C361.035 13.9212 360.23 13.8522 359.309 13.9289C358.403 13.9903 357.582 14.1975 356.845 14.5505C356.108 14.8882 355.487 15.341 354.98 15.9089C354.474 16.4615 354.09 17.1214 353.829 17.8889C353.568 18.641 353.438 19.4928 353.438 20.4444V33.1531H347.129ZM381.024 33.1531C379.305 33.4755 377.617 33.6136 375.959 33.5676C374.317 33.5369 372.844 33.2529 371.539 32.7157C370.25 32.1631 369.267 31.2806 368.592 30.0681C367.978 28.9323 367.656 27.7811 367.625 26.6146C367.594 25.4328 367.579 24.0974 367.579 22.6086V1.38138H373.841V22.2402C373.841 23.2072 373.849 24.0821 373.864 24.8649C373.895 25.6323 374.056 26.2462 374.348 26.7067C374.9 27.5816 375.783 28.0574 376.995 28.1341C378.208 28.2109 379.551 28.1495 381.024 27.9499V33.1531ZM363.343 13.1231V8.28829H381.024V13.1231H363.343ZM403.51 33.1531V21.4114C403.51 20.8435 403.48 20.1221 403.418 19.2472C403.357 18.357 403.165 17.4668 402.843 16.5766C402.52 15.6863 401.991 14.9419 401.254 14.3433C400.533 13.7447 399.504 13.4454 398.169 13.4454C397.632 13.4454 397.056 13.5299 396.442 13.6987C395.828 13.8675 395.253 14.1975 394.715 14.6887C394.178 15.1645 393.733 15.8705 393.38 16.8068C393.042 17.7431 392.874 18.9863 392.874 20.5365L389.282 18.8328C389.282 16.8682 389.681 15.0264 390.479 13.3073C391.277 11.5883 392.475 10.1992 394.071 9.14014C395.682 8.08108 397.708 7.55155 400.149 7.55155C402.098 7.55155 403.687 7.88155 404.915 8.54154C406.143 9.20153 407.094 10.038 407.77 11.051C408.46 12.0641 408.951 13.1231 409.243 14.2282C409.535 15.318 409.711 16.3156 409.773 17.2212C409.834 18.1268 409.865 18.7868 409.865 19.2012V33.1531H403.51ZM386.519 33.1531V8.28829H392.091V16.5305H392.874V33.1531H386.519ZM426.947 33.8438C424.399 33.8438 422.15 33.299 420.201 32.2092C418.267 31.1041 416.747 29.5922 415.642 27.6737C414.553 25.7397 414.008 23.5295 414.008 21.043C414.008 18.3263 414.545 15.9626 415.619 13.9519C416.694 11.9413 418.175 10.3834 420.063 9.27827C421.951 8.15782 424.122 7.5976 426.578 7.5976C429.188 7.5976 431.405 8.21154 433.232 9.43944C435.058 10.6673 436.409 12.3941 437.284 14.6196C438.159 16.8452 438.466 19.4621 438.205 22.4705H432.012V20.1682C432.012 17.6356 431.605 15.8168 430.791 14.7117C429.993 13.5913 428.681 13.031 426.855 13.031C424.721 13.031 423.148 13.6833 422.135 14.988C421.137 16.2773 420.638 18.1882 420.638 20.7207C420.638 23.0384 421.137 24.8342 422.135 26.1081C423.148 27.3667 424.629 27.996 426.578 27.996C427.806 27.996 428.858 27.7274 429.732 27.1902C430.607 26.653 431.275 25.8779 431.735 24.8649L437.998 26.6606C437.061 28.9323 435.58 30.6974 433.554 31.9559C431.544 33.2145 429.341 33.8438 426.947 33.8438ZM418.704 22.4705V17.8198H435.189V22.4705H418.704ZM443.403 33.1531V8.28829H448.929V14.3664L448.33 13.5836C448.653 12.7241 449.082 11.9413 449.62 11.2352C450.157 10.5292 450.817 9.94594 451.6 9.48548C452.198 9.11711 452.851 8.83316 453.557 8.63363C454.263 8.41875 454.992 8.28829 455.744 8.24224C456.496 8.18084 457.248 8.19619 458 8.28829V14.1361C457.309 13.9212 456.504 13.8522 455.583 13.9289C454.677 13.9903 453.856 14.1975 453.119 14.5505C452.382 14.8882 451.761 15.341 451.254 15.9089C450.748 16.4615 450.364 17.1214 450.103 17.8889C449.842 18.641 449.712 19.4928 449.712 20.4444V33.1531H443.403Z" fill="url(#paint0_linear_43_468)"/>
<defs>
<linearGradient id="paint0_linear_43_468" x1="107.107" y1="-1.38137" x2="339.615" y2="176.258" gradientUnits="userSpaceOnUse">
<stop stop-color="#0179B4"/>
<stop offset="1" stop-color="#88D8FF"/>
</linearGradient>
</defs>
</svg>
